<?xml version="1.0" encoding="UTF-8" standalone="no"?>
<svg
   width="48"
   height="48"
   version="1.0"
   id="svg20"
   sodipodi:docname="closefolder.svg"
   xml:space="preserve"
   inkscape:version="1.4.4 (dcaf3e7d9e, 2026-05-05)"
   xmlns:inkscape="http://www.inkscape.org/namespaces/inkscape"
   xmlns:sodipodi="http://sodipodi.sourceforge.net/DTD/sodipodi-0.dtd"
   xmlns:xlink="http://www.w3.org/1999/xlink"
   xmlns="http://www.w3.org/2000/svg"
   xmlns:svg="http://www.w3.org/2000/svg"><sodipodi:namedview
     id="namedview20"
     pagecolor="#505050"
     bordercolor="#eeeeee"
     borderopacity="1"
     inkscape:showpageshadow="0"
     inkscape:pageopacity="0"
     inkscape:pagecheckerboard="0"
     inkscape:deskcolor="#505050"
     inkscape:zoom="8.4852814"
     inkscape:cx="16.852712"
     inkscape:cy="30.228815"
     inkscape:window-width="1600"
     inkscape:window-height="900"
     inkscape:window-x="0"
     inkscape:window-y="0"
     inkscape:window-maximized="1"
     inkscape:current-layer="svg20" /><defs
     id="defs9"><linearGradient
       id="a"><stop
         offset="0"
         stop-color="#cccdbc"
         id="stop1" /><stop
         offset="1"
         stop-color="#b9baa4"
         id="stop2" /></linearGradient><linearGradient
       xlink:href="#a"
       id="g"
       x1="24.588383"
       x2="24.588383"
       y1="1.8991361"
       y2="40.858932"
       gradientUnits="userSpaceOnUse" /><linearGradient
       id="d"><stop
         offset="0"
         stop-color="#fffff3"
         stop-opacity=".54455447"
         id="stop3" /><stop
         offset="1"
         stop-color="#fffff3"
         stop-opacity="0"
         id="stop4" /></linearGradient><linearGradient
       id="c"><stop
         offset="0"
         stop-color="#cfcfc4"
         id="stop5" /><stop
         offset=".32673267"
         stop-color="#cfcfc4"
         id="stop6" /><stop
         offset="1"
         stop-color="#cfcfc4"
         stop-opacity="0"
         id="stop7" /></linearGradient><linearGradient
       id="b"><stop
         offset="0"
         stop-color="#676756"
         id="stop8" /><stop
         offset="1"
         stop-color="#90937c"
         id="stop9" /></linearGradient><linearGradient
       xlink:href="#b"
       id="e"
       x1="24.983023"
       x2="24.983023"
       y1="43.710369"
       y2="19.705572"
       gradientTransform="scale(1.06831 .93606)"
       gradientUnits="userSpaceOnUse" /><linearGradient
       xlink:href="#c"
       id="f"
       x1="32.827568"
       x2="60.071049"
       y1="7.9206076"
       y2="7.8678756"
       gradientTransform="scale(.75046 1.33252)"
       gradientUnits="userSpaceOnUse" /><linearGradient
       xlink:href="#d"
       id="h"
       x1="24.710207"
       x2="29.842236"
       y1="16.329607"
       y2="27.759533"
       gradientTransform="matrix(.80686 0 0 .67071 -.104854 18.69867)"
       gradientUnits="userSpaceOnUse" /></defs><g
     fill-rule="evenodd"
     transform="matrix(.21608 0 0 .22639 -1.393233 -2.889517)"
     id="g16"><path
       d="M32.706693 164.36026c-10.3875 0-18.75 8.3625-18.75 18.75s8.3625 18.75 18.75 18.75H205.20669c10.3875 0 18.75-8.3625 18.75-18.75s-8.3625-18.75-18.75-18.75H32.706693z"
       opacity=".04787233"
       id="path9" /><path
       d="M32.706693 165.61026c-9.695 0-17.5 7.805-17.5 17.5s7.805 17.5 17.5 17.5H205.20669c9.695 0 17.5-7.805 17.5-17.5s-7.805-17.5-17.5-17.5H32.706693z"
       opacity=".04787233"
       id="path10" /><path
       d="M32.706694 166.86026c-9.0025 0-16.25 7.2475-16.25 16.25 0 9.0025 7.2475 16.25 16.25 16.25H205.20669c9.0025 0 16.25-7.2475 16.25-16.25 0-9.0025-7.2475-16.25-16.25-16.25H32.706694z"
       opacity=".04787233"
       id="path11" /><path
       d="M32.706694 168.11026c-8.31 0-15 6.69-15 15 0 8.31 6.69 15 15 15H205.20669c8.31 0 15-6.69 15-15 0-8.31-6.69-15-15-15H32.706694z"
       opacity=".04787233"
       id="path12" /><path
       d="M32.707764 169.36026c-7.6175 0-13.75 6.1325-13.75 13.75s6.1325 13.75 13.75 13.75H205.20618c7.6175 0 13.75-6.1325 13.75-13.75s-6.1325-13.75-13.75-13.75H32.707764z"
       opacity=".04787233"
       id="path13" /><path
       d="M32.706694 170.61026c-6.925 0-12.5 5.575-12.5 12.5s5.575 12.5 12.5 12.5H205.20669c6.925 0 12.5-5.575 12.5-12.5s-5.575-12.5-12.5-12.5H32.706694z"
       opacity=".04787233"
       id="path14" /><path
       d="M32.706694 171.86026c-6.2325 0-11.25 5.0175-11.25 11.25s5.0175 11.25 11.25 11.25H205.20669c6.2325 0 11.25-5.0175 11.25-11.25s-5.0175-11.25-11.25-11.25H32.706694z"
       opacity=".04787233"
       id="path15" /><path
       d="M32.706694 173.11026c-5.54 0-10 4.46-10 10s4.46 10 10 10H205.20669c5.54 0 10-4.46 10-10s-4.46-10-10-10H32.706694z"
       opacity=".04787233"
       id="path16" /></g><path
     fill="url(#e)"
     fill-rule="evenodd"
     stroke="#555753"
     d="M5.4186638 5.45611c-.4649766 0-.8151104.2352268-.8151104.726723v33.020961c0 .727146.487105 1.21156 1.149057 1.21156H43.489564c.665802 0 .930308-.452766.930308-1.08656V10.425912c0-.5429651-.400287-.836558-.899058-.836558H24.41149c-.337013 0-.69668-.198426-.894481-.471287l-2.602231-3.200009c-.217865-.300539-.642075-.461933-1.013278-.461933L5.4186638 5.45611z"
     color="#000"
     overflow="visible"
     style="marker:none"
     id="path17" /><path
     fill="url(#f)"
     fill-rule="evenodd"
     d="M5.0625 7.90625v28.25l.96875-4.375.21875-22.625c0-.7504226.5114657-1.125 1.2369586-1.125H19.09375c1.561596 0 3.014848 3.1875 5.317667 3.1875 5.971619 0 19.338396.087588 19.338583 0V10.1875l-19.53125-.125c-1.856135-.011879-3.130426-3.15625-4.5625-3.15625H6.2838336c-.8153288 0-1.2213336.3541661-1.2213336 1z"
     color="#000"
     overflow="visible"
     style="marker:none"
     id="path18" /><path
     fill="url(#g)"
     fill-rule="evenodd"
     stroke="#555753"
     stroke-linejoin="round"
     stroke-width=".99999988"
     d="M2.0236282 29.499437H14.898103c.738822 0 1.3626-.201983 1.680544-.467819.136206-.113882 1.263005-.934866 1.352345-1.004083.297614-.230579.769882-.402532 1.336714-.402532h26.906285c1.00281 0 1.521072 1.078039 1.310891 1.87048L44.72546 39.899257c-.173938.655795-.706289.782199-1.505974.782199H5.443473c-.799684 0-1.2880845-.36581-1.443473-.765624L.72855339 31.498408c-.3171588-.816049-.37748622-1.998971 1.29507481-1.998971z"
     color="#000"
     overflow="visible"
     style="marker:none"
     id="path19" /><path
     fill="url(#h)"
     fill-rule="evenodd"
     d="M19.179997 28.088388c-1.325565 0-1.722276 1.886751-4.241958 1.925277-1.249616.019106-12.307519-.044195-12.807519-.044195-1.41172206 0-1.0884406.646853-.9545048 1.256405.1325825.603393 3.1651334 8.207433 3.1651334 8.207433.2496934.551539-.0179992.683.8361675.683 0 0-2.8245242-8.242844-2.8245242-8.581074 0-.230618-.1866681-.582654.2638641-.582654H14.09835c3.677614 0 3.895464-1.925276 5.995019-1.925276 1.216667 0 24.950826.033823 24.950826.033823l1.856154-.98311s-26.437019.010371-27.720352.010371z"
     color="#000"
     overflow="visible"
     style="marker:none"
     id="path20" /><rect
     width="1.25"
     height="1.25"
     x="5.5290294"
     y="7.3598347"
     fill="#fffffd"
     fill-rule="evenodd"
     color="#000"
     overflow="visible"
     rx="1.4434735"
     ry="1.25"
     style="marker:none"
     id="rect20" /><g
     id="g20"
     transform="matrix(0.50199622,0,0,0.50199622,23.678027,-2.6498288)"><path
       style="opacity:0.092;fill:url(#SVGID_1_)"
       d="m 46.127,33.979 c 0,2.182 -9.906,3.947 -22.127,3.947 -12.22,0 -22.126,-1.768 -22.126,-3.947 0,-2.179 9.906,-3.946 22.126,-3.946 12.222,-0.001 22.127,1.767 22.127,3.946 z"
       id="path2" /><path
       style="opacity:0.2031;fill:url(#SVGID_2_)"
       d="m 22,35.392 c 0,2.322 -4.029,4.205 -9,4.205 -4.971,0 -9,-1.883 -9,-4.205 0,-2.322 4.029,-4.205 9,-4.205 4.971,0 9,1.882 9,4.205 z"
       id="path4" /><path
       style="opacity:0.2031;fill:url(#SVGID_3_)"
       d="m 43,35.392 c 0,2.322 -4.028,4.205 -9,4.205 -4.971,0 -9,-1.883 -9,-4.205 0,-2.322 4.029,-4.205 9,-4.205 4.972,0 9,1.882 9,4.205 z"
       id="path6" /><path
       style="fill:url(#SVGID_4_);stroke:#555753;stroke-width:0.8125;stroke-linecap:round;stroke-linejoin:round"
       d="m 13.102,8.405 c -1.456,-0.01 -2.788,0.879 -3.339,2.227 -0.551,1.348 -0.212,2.883 0.834,3.896 l 8.013,8.013 -8.013,8.013 c -1.398,1.398 -1.398,3.666 0,5.064 1.398,1.398 3.666,1.398 5.064,0 l 8.014,-8.014 8.013,8.014 c 0.898,0.924 2.204,1.277 3.45,0.945 1.245,-0.332 2.241,-1.313 2.561,-2.561 0.318,-1.249 -0.067,-2.563 -1.002,-3.45 l -8.014,-8.014 8.014,-8.013 c 1.056,-1.021 1.4,-2.6 0.834,-3.951 -0.563,-1.354 -1.928,-2.205 -3.396,-2.17 -0.93,0.037 -1.809,0.437 -2.447,1.111 l -8.013,8.014 -8.014,-8.014 c -0.666,-0.7 -1.592,-1.102 -2.559,-1.11 z"
       id="path8" /><path
       xlink:href="#path4262"
       style="opacity:0.3621;fill:none;stroke:#ffffff;stroke-width:0.8125;stroke-linecap:round;stroke-linejoin:round"
       d="m 13.126,9.405 c -1.037,-0.008 -2.03,0.654 -2.423,1.615 -0.393,0.961 -0.147,2.03 0.615,2.771 0.013,0 0.025,0 0.039,0 l 8,8.038 c 0.199,0.191 0.311,0.455 0.311,0.73 0,0.275 -0.112,0.541 -0.311,0.731 l -8,8 c -1.009,1.009 -1.009,2.605 0,3.615 1.008,1.009 2.606,1.009 3.615,0 l 8,-8.039 c 0.191,-0.198 0.455,-0.313 0.731,-0.313 0.275,0 0.539,0.112 0.73,0.313 l 8,8.039 c 0,0.013 0,0.023 0,0.037 0.637,0.656 1.55,0.896 2.461,0.654 0.904,-0.242 1.581,-0.957 1.809,-1.847 0.228,-0.896 -0.021,-1.823 -0.693,-2.462 -0.012,0 -0.024,0 -0.037,0 l -8,-8 c -0.198,-0.191 -0.313,-0.455 -0.313,-0.73 0,-0.275 0.113,-0.541 0.313,-0.73 l 8,-8.038 c 0.013,0 0.025,0 0.037,0 0.76,-0.733 1.015,-1.896 0.615,-2.847 -0.399,-0.959 -1.354,-1.563 -2.422,-1.539 -0.664,0.025 -1.315,0.328 -1.77,0.809 0,0.014 0,0.025 0,0.039 l -8,8.001 c -0.191,0.198 -0.455,0.312 -0.73,0.312 -0.276,0 -0.54,-0.112 -0.731,-0.312 l -8,-8.001 c 0,-0.014 0,-0.025 0,-0.039 C 14.501,9.715 13.819,9.411 13.126,9.405 Z"
       id="path9-9" /><path
       style="opacity:0.3;fill:url(#SVGID_5_)"
       d="m 19.454,22.559 c 5.222,-1.522 3.882,0.164 8.507,0.164 l 8.506,8.506 -4.704,3.64 -8,-8.068 -8,7.798 L 11.58,30.5 Z"
       id="path10-2" /></g></svg>
