<?xml version="1.0" encoding="UTF-8" standalone="no"?>
<!-- Created with Inkscape (http://www.inkscape.org/) -->

<svg
   width="48"
   height="48"
   id="svg2"
   sodipodi:version="0.32"
   inkscape:version="1.4.4 (dcaf3e7d9e, 2026-05-05)"
   version="1.0"
   sodipodi:docname="closewindow.svg"
   inkscape:export-filename="/home/lapo/Desktop/xubuntu/pngs/wksp.png"
   inkscape:export-xdpi="90"
   inkscape:export-ydpi="90"
   inkscape:output_extension="org.inkscape.output.svg.inkscape"
   xml:space="preserve"
   xmlns:inkscape="http://www.inkscape.org/namespaces/inkscape"
   xmlns:sodipodi="http://sodipodi.sourceforge.net/DTD/sodipodi-0.dtd"
   xmlns:xlink="http://www.w3.org/1999/xlink"
   xmlns="http://www.w3.org/2000/svg"
   xmlns:svg="http://www.w3.org/2000/svg"
   xmlns:rdf="http://www.w3.org/1999/02/22-rdf-syntax-ns#"
   xmlns:cc="http://creativecommons.org/ns#"
   xmlns:dc="http://purl.org/dc/elements/1.1/"><sodipodi:namedview
     inkscape:window-height="900"
     inkscape:window-width="1600"
     inkscape:pageshadow="2"
     inkscape:pageopacity="0.0"
     guidetolerance="10.0"
     gridtolerance="10.0"
     objecttolerance="10.0"
     borderopacity="1.0"
     bordercolor="#666666"
     pagecolor="#ffffff"
     id="base"
     showgrid="false"
     gridspacingx="0.5px"
     gridspacingy="0.5px"
     gridempspacing="2"
     inkscape:showpageshadow="false"
     showborder="false"
     inkscape:zoom="8"
     inkscape:cx="19.75"
     inkscape:cy="27.3125"
     inkscape:window-x="0"
     inkscape:window-y="0"
     inkscape:current-layer="layer1"
     inkscape:pagecheckerboard="0"
     inkscape:deskcolor="#505050"
     inkscape:window-maximized="1" /><defs
     id="defs4"><linearGradient
       id="linearGradient3690"><stop
         style="stop-color:white;stop-opacity:1;"
         offset="0"
         id="stop3692" /><stop
         style="stop-color:white;stop-opacity:0.46875"
         offset="1"
         id="stop3694" /></linearGradient><linearGradient
       id="linearGradient3674"><stop
         style="stop-color:#3465a4;stop-opacity:1"
         offset="0"
         id="stop3676" /><stop
         style="stop-color:#729fcf;stop-opacity:1;"
         offset="1"
         id="stop3678" /></linearGradient><linearGradient
       id="linearGradient2781"><stop
         style="stop-color:#d3d7cf;stop-opacity:1"
         offset="0"
         id="stop2783" /><stop
         style="stop-color:#eeeeec;stop-opacity:1"
         offset="1"
         id="stop2785" /></linearGradient><linearGradient
       inkscape:collect="always"
       xlink:href="#linearGradient2781"
       id="linearGradient2787"
       x1="24.925514"
       y1="40.000107"
       x2="24.925514"
       y2="19.53867"
       gradientUnits="userSpaceOnUse" /><linearGradient
       inkscape:collect="always"
       xlink:href="#linearGradient3674"
       id="linearGradient3680"
       x1="23.069359"
       y1="6.7993021"
       x2="23.069359"
       y2="12.403291"
       gradientUnits="userSpaceOnUse" /><linearGradient
       inkscape:collect="always"
       xlink:href="#linearGradient3690"
       id="linearGradient3696"
       x1="9.5"
       y1="16.26436"
       x2="9.5"
       y2="13.408723"
       gradientUnits="userSpaceOnUse" /><linearGradient
       id="linearGradient5048"><stop
         id="stop5050"
         offset="0"
         style="stop-color:black;stop-opacity:0;" /><stop
         style="stop-color:black;stop-opacity:1;"
         offset="0.5"
         id="stop5056" /><stop
         id="stop5052"
         offset="1"
         style="stop-color:black;stop-opacity:0;" /></linearGradient><linearGradient
       id="linearGradient5060"
       inkscape:collect="always"><stop
         id="stop5062"
         offset="0"
         style="stop-color:black;stop-opacity:1;" /><stop
         id="stop5064"
         offset="1"
         style="stop-color:black;stop-opacity:0;" /></linearGradient><linearGradient
       inkscape:collect="always"
       xlink:href="#linearGradient5048"
       id="linearGradient3843"
       gradientUnits="userSpaceOnUse"
       gradientTransform="matrix(2.774389,0,0,1.969706,-1892.179,-872.8854)"
       x1="302.85715"
       y1="366.64789"
       x2="302.85715"
       y2="609.50507" /><radialGradient
       inkscape:collect="always"
       xlink:href="#linearGradient5060"
       id="radialGradient3845"
       gradientUnits="userSpaceOnUse"
       gradientTransform="matrix(2.774389,0,0,1.969706,-1891.633,-872.8854)"
       cx="605.71429"
       cy="486.64789"
       fx="605.71429"
       fy="486.64789"
       r="117.14286" /><radialGradient
       inkscape:collect="always"
       xlink:href="#linearGradient5060"
       id="radialGradient3847"
       gradientUnits="userSpaceOnUse"
       gradientTransform="matrix(-2.774389,0,0,1.969706,112.7623,-872.8854)"
       cx="605.71429"
       cy="486.64789"
       fx="605.71429"
       fy="486.64789"
       r="117.14286" /><linearGradient
       id="linearGradient2378"><stop
         id="stop2380"
         offset="0"
         style="stop-color:#ffffff;stop-opacity:1;" /><stop
         style="stop-color:#fefede;stop-opacity:0.91836733;"
         offset="0.25"
         id="stop4146" /><stop
         style="stop-color:#f5f328;stop-opacity:1;"
         offset="0.5"
         id="stop2386" /><stop
         id="stop2382"
         offset="1"
         style="stop-color:#f5f32d;stop-opacity:0.12234043;" /></linearGradient></defs><sodipodi:namedview
     id="namedview33"
     pagecolor="#ffffff"
     bordercolor="#666666"
     borderopacity="1.0"
     inkscape:pageopacity="0.0"
     inkscape:pageshadow="2"
     inkscape:zoom="1"
     inkscape:cx="10.097903"
     inkscape:cy="38.917761"
     inkscape:document-units="px"
     inkscape:current-layer="layer1"
     showgrid="false"
     gridempspacing="2"
     gridspacingx="0.5px"
     gridspacingy="0.5px"
     inkscape:window-width="965"
     inkscape:window-height="763"
     inkscape:window-x="176"
     inkscape:window-y="103"
     fill="#729fcf"
     stroke="#3465a4"
     inkscape:showpageshadow="false"
     showguides="false"
     inkscape:guide-bbox="true"
     inkscape:grid-points="true"
     inkscape:grid-bbox="false"
     showborder="true"><sodipodi:guide
       orientation="vertical"
       position="24.041631"
       id="guide2191"
       inkscape:locked="false" /><sodipodi:guide
       orientation="horizontal"
       position="25.986174"
       id="guide2203"
       inkscape:locked="false" /></sodipodi:namedview><metadata
     id="metadata7"><rdf:RDF><cc:Work
         rdf:about=""><dc:format>image/svg+xml</dc:format><dc:type
           rdf:resource="http://purl.org/dc/dcmitype/StillImage" /><dc:creator><cc:Agent><dc:title>Lapo Calamandrei</dc:title></cc:Agent></dc:creator><dc:subject><rdf:Bag><rdf:li>window</rdf:li><rdf:li>create</rdf:li><rdf:li>new</rdf:li></rdf:Bag></dc:subject><cc:license
           rdf:resource="http://creativecommons.org/licenses/GPL/2.0/" /></cc:Work><cc:License
         rdf:about="http://creativecommons.org/licenses/GPL/2.0/"><cc:permits
           rdf:resource="http://web.resource.org/cc/Reproduction" /><cc:permits
           rdf:resource="http://web.resource.org/cc/Distribution" /><cc:requires
           rdf:resource="http://web.resource.org/cc/Notice" /><cc:permits
           rdf:resource="http://web.resource.org/cc/DerivativeWorks" /><cc:requires
           rdf:resource="http://web.resource.org/cc/ShareAlike" /><cc:requires
           rdf:resource="http://web.resource.org/cc/SourceCode" /></cc:License></rdf:RDF></metadata><g
     inkscape:label="Livello 1"
     inkscape:groupmode="layer"
     id="layer1"><g
       style="opacity:0.58730164;display:inline"
       id="g5022"
       transform="matrix(2.019273e-2,0,0,1.254292e-2,42.96013,37.39018)"><rect
         y="-150.69685"
         x="-1559.2523"
         height="478.35718"
         width="1339.6335"
         id="rect4173"
         style="opacity:0.40206185;color:black;fill:url(#linearGradient3843);fill-opacity:1;fill-rule:nonzero;stroke:none;stroke-width:1;stroke-linecap:round;stroke-linejoin:miter;marker:none;marker-start:none;marker-mid:none;marker-end:none;stroke-miterlimit:4;stroke-dasharray:none;stroke-dashoffset:0;stroke-opacity:1;visibility:visible;display:inline;overflow:visible" /><path
         sodipodi:nodetypes="cccc"
         id="path5058"
         d="M -219.61876,-150.68038 C -219.61876,-150.68038 -219.61876,327.65041 -219.61876,327.65041 C -76.744594,328.55086 125.78146,220.48075 125.78138,88.454235 C 125.78138,-43.572302 -33.655436,-150.68036 -219.61876,-150.68038 z "
         style="opacity:0.40206185;color:black;fill:url(#radialGradient3845);fill-opacity:1;fill-rule:nonzero;stroke:none;stroke-width:1;stroke-linecap:round;stroke-linejoin:miter;marker:none;marker-start:none;marker-mid:none;marker-end:none;stroke-miterlimit:4;stroke-dasharray:none;stroke-dashoffset:0;stroke-opacity:1;visibility:visible;display:inline;overflow:visible" /><path
         style="opacity:0.40206185;color:black;fill:url(#radialGradient3847);fill-opacity:1;fill-rule:nonzero;stroke:none;stroke-width:1;stroke-linecap:round;stroke-linejoin:miter;marker:none;marker-start:none;marker-mid:none;marker-end:none;stroke-miterlimit:4;stroke-dasharray:none;stroke-dashoffset:0;stroke-opacity:1;visibility:visible;display:inline;overflow:visible"
         d="M -1559.2523,-150.68038 C -1559.2523,-150.68038 -1559.2523,327.65041 -1559.2523,327.65041 C -1702.1265,328.55086 -1904.6525,220.48075 -1904.6525,88.454235 C -1904.6525,-43.572302 -1745.2157,-150.68036 -1559.2523,-150.68038 z "
         id="path5018"
         sodipodi:nodetypes="cccc" /></g><rect
       style="opacity:1;fill:url(#linearGradient2787);stroke:#888a85;stroke-width:1.00000024;stroke-miterlimit:4;stroke-dasharray:none;stroke-opacity:1;fill-opacity:1.0"
       id="rect1887"
       width="33.000038"
       height="30.499985"
       x="8.5"
       y="9"
       rx="2"
       ry="2" /><path
       style="fill:url(#linearGradient3680);stroke:#204a87;stroke-width:1.00000048;stroke-miterlimit:4;stroke-opacity:1;fill-opacity:1.0"
       d="M 8.499999,14.030334 L 8.499999,10.500005 C 8.499999,9.3920048 9.391999,8.5000048 10.499999,8.5000048 L 39.499999,8.5000048 C 40.607999,8.5000048 41.499999,9.3920048 41.499999,10.500005 L 41.499999,14.030334"
       id="rect2776"
       sodipodi:nodetypes="cccccc" /><rect
       style="opacity:0.8;fill:none;stroke:url(#linearGradient3696);stroke-width:1.00000083;stroke-miterlimit:4;stroke-dasharray:none;stroke-opacity:1;fill-opacity:1.0"
       id="rect2779"
       width="31.000004"
       height="29.000008"
       x="9.5"
       y="9.5000076"
       rx="0.99539089"
       ry="0.99539089" /><g
       id="g2"
       transform="matrix(0.5000339,0,0,0.5000339,24.561437,2.076229)"><path
         style="opacity:0.092;fill:url(#SVGID_1_)"
         d="m 46.127,33.979 c 0,2.182 -9.906,3.947 -22.127,3.947 -12.22,0 -22.126,-1.768 -22.126,-3.947 0,-2.179 9.906,-3.946 22.126,-3.946 12.222,-0.001 22.127,1.767 22.127,3.946 z"
         id="path2" /><path
         style="opacity:0.2031;fill:url(#SVGID_2_)"
         d="m 22,35.392 c 0,2.322 -4.029,4.205 -9,4.205 -4.971,0 -9,-1.883 -9,-4.205 0,-2.322 4.029,-4.205 9,-4.205 4.971,0 9,1.882 9,4.205 z"
         id="path4" /><path
         style="opacity:0.2031;fill:url(#SVGID_3_)"
         d="m 43,35.392 c 0,2.322 -4.028,4.205 -9,4.205 -4.971,0 -9,-1.883 -9,-4.205 0,-2.322 4.029,-4.205 9,-4.205 4.972,0 9,1.882 9,4.205 z"
         id="path6" /><path
         style="fill:url(#SVGID_4_);stroke:#555753;stroke-width:0.8125;stroke-linecap:round;stroke-linejoin:round"
         d="m 13.102,8.405 c -1.456,-0.01 -2.788,0.879 -3.339,2.227 -0.551,1.348 -0.212,2.883 0.834,3.896 l 8.013,8.013 -8.013,8.013 c -1.398,1.398 -1.398,3.666 0,5.064 1.398,1.398 3.666,1.398 5.064,0 l 8.014,-8.014 8.013,8.014 c 0.898,0.924 2.204,1.277 3.45,0.945 1.245,-0.332 2.241,-1.313 2.561,-2.561 0.318,-1.249 -0.067,-2.563 -1.002,-3.45 l -8.014,-8.014 8.014,-8.013 c 1.056,-1.021 1.4,-2.6 0.834,-3.951 -0.563,-1.354 -1.928,-2.205 -3.396,-2.17 -0.93,0.037 -1.809,0.437 -2.447,1.111 l -8.013,8.014 -8.014,-8.014 c -0.666,-0.7 -1.592,-1.102 -2.559,-1.11 z"
         id="path8" /><path
         xlink:href="#path4262"
         style="opacity:0.3621;fill:none;stroke:#ffffff;stroke-width:0.8125;stroke-linecap:round;stroke-linejoin:round"
         d="m 13.126,9.405 c -1.037,-0.008 -2.03,0.654 -2.423,1.615 -0.393,0.961 -0.147,2.03 0.615,2.771 0.013,0 0.025,0 0.039,0 l 8,8.038 c 0.199,0.191 0.311,0.455 0.311,0.73 0,0.275 -0.112,0.541 -0.311,0.731 l -8,8 c -1.009,1.009 -1.009,2.605 0,3.615 1.008,1.009 2.606,1.009 3.615,0 l 8,-8.039 c 0.191,-0.198 0.455,-0.313 0.731,-0.313 0.275,0 0.539,0.112 0.73,0.313 l 8,8.039 c 0,0.013 0,0.023 0,0.037 0.637,0.656 1.55,0.896 2.461,0.654 0.904,-0.242 1.581,-0.957 1.809,-1.847 0.228,-0.896 -0.021,-1.823 -0.693,-2.462 -0.012,0 -0.024,0 -0.037,0 l -8,-8 c -0.198,-0.191 -0.313,-0.455 -0.313,-0.73 0,-0.275 0.113,-0.541 0.313,-0.73 l 8,-8.038 c 0.013,0 0.025,0 0.037,0 0.76,-0.733 1.015,-1.896 0.615,-2.847 -0.399,-0.959 -1.354,-1.563 -2.422,-1.539 -0.664,0.025 -1.315,0.328 -1.77,0.809 0,0.014 0,0.025 0,0.039 l -8,8.001 c -0.191,0.198 -0.455,0.312 -0.73,0.312 -0.276,0 -0.54,-0.112 -0.731,-0.312 l -8,-8.001 c 0,-0.014 0,-0.025 0,-0.039 C 14.501,9.715 13.819,9.411 13.126,9.405 Z"
         id="path9" /><path
         style="opacity:0.3;fill:url(#SVGID_5_)"
         d="m 19.454,22.559 c 5.222,-1.522 3.882,0.164 8.507,0.164 l 8.506,8.506 -4.704,3.64 -8,-8.068 -8,7.798 L 11.58,30.5 Z"
         id="path10" /></g></g></svg>
