<?xml version="1.0" encoding="UTF-8" standalone="no"?>
<svg xmlns="http://www.w3.org/2000/svg" xmlns:xlink="http://www.w3.org/1999/xlink" width="48" height="48" version="1.0">
  <defs>
    <linearGradient id="a">
      <stop offset="0" stop-color="#cccdbc"/>
      <stop offset="1" stop-color="#b9baa4"/>
    </linearGradient>
    <linearGradient xlink:href="#a" id="c" x1="24.588383" x2="24.588383" y1="1.8991361" y2="40.858932" gradientUnits="userSpaceOnUse"/>
    <linearGradient id="b">
      <stop offset="0" stop-color="#fff" stop-opacity=".36633664"/>
      <stop offset="1" stop-color="#fff" stop-opacity="0"/>
    </linearGradient>
    <linearGradient xlink:href="#b" id="d" x1="86.307266" x2="86.307266" y1="60.062927" y2="25.197067" gradientTransform="scale(1.12262 .89077)" gradientUnits="userSpaceOnUse"/>
    <linearGradient xlink:href="#b" id="e" x1="86.307266" x2="86.307266" y1="60.062927" y2="25.197067" gradientTransform="scale(1.12262 .89077)" gradientUnits="userSpaceOnUse"/>
    <linearGradient xlink:href="#b" id="f" x1="86.307266" x2="86.307266" y1="60.062927" y2="25.197067" gradientTransform="scale(1.12262 .89077)" gradientUnits="userSpaceOnUse"/>
    <linearGradient xlink:href="#b" id="g" x1="86.307266" x2="86.307266" y1="60.062927" y2="25.197067" gradientTransform="scale(1.12262 .89077)" gradientUnits="userSpaceOnUse"/>
    <linearGradient xlink:href="#b" id="h" x1="86.307266" x2="86.307266" y1="60.062927" y2="25.197067" gradientTransform="scale(1.12262 .89077)" gradientUnits="userSpaceOnUse"/>
  </defs>
  <path fill="url(#c)" fill-rule="evenodd" stroke="#555753" stroke-linejoin="round" stroke-width=".99999988" d="M5.40625 5.46875c-.4649768 0-.8125.2272538-.8125.71875v13.59375C3.119779 19.8751 2.375 20.350995 2.375 22.125L4 38.9375c0 .799684.6378161 1.4375 1.4375 1.4375h.21875c.0363522.003071.0562166.03125.09375.03125H43.5c.398877-.000001.60977-.170923.75-.4375.00954-.00954.02198-.021445.03125-.03125.244246-.258332.375-.614778.375-1l1.75-21.71875c0-.799685-.637815-1.4375-1.4375-1.4375h-.5625V10.4375c0-.542965-.376229-.84375-.875-.84375h-19.125c-.337012 4e-7-.677199-.195889-.875-.46875l-2.625-3.21875c-.217865-.3005389-.628797-.4375-1-.4375h-14.5z" color="#000" overflow="visible" style="marker:none"/>
  <g fill="url(#d)" fill-rule="evenodd" color="#000" transform="translate(-70.33924 -23.05916) scale(.97867)">
    <path fill="url(#e)" d="m117.59375 57.53125-6.03125 6.03125.9375.9375h3.5c.39888-.000001.60977-.170923.75-.4375.00954-.00954.02198-.021445.03125-.03125.24425-.258332.375-.614778.375-1l.4375-5.5z" overflow="visible" style="marker:none"/>
    <path fill="url(#f)" d="M85.53125 29.5625 77.09375 38v5.875c-1.473969.09385-2.21875.569745-2.21875 2.34375l.4375 4.53125L94.625 31.46875 93.40625 30c-.217868-.300539-.6288-.4375-1-.4375h-6.875z" overflow="visible" style="marker:none"/>
    <path fill="url(#g)" d="M116.90625 38.1875 91.5625 63.5625 92.5 64.5h9.0625l16.84375-16.8125.5-6.375c0-.799685-.63782-1.4375-1.4375-1.4375h-.5625v-1.6875z" overflow="visible" style="marker:none"/>
    <path fill="url(#h)" d="M101.40625 33.6875 76.125 59l.375 4.03125c.000002.799684.637816 1.4375 1.4375 1.4375h.21875c.036354.003071.056217.03125.09375.03125h3.3125l30.84375-30.8125h-11z" overflow="visible" style="marker:none"/>
  </g>
</svg>