<?xml version="1.0" encoding="UTF-8" standalone="no"?>
<!-- Created with Inkscape (http://www.inkscape.org/) -->

<svg
   version="1.0"
   x="0.0000000"
   y="0.0000000"
   width="48.000000px"
   height="48.000000px"
   id="svg1"
   sodipodi:version="0.32"
   inkscape:version="1.4.4 (dcaf3e7d9e, 2026-05-05)"
   sodipodi:docname="openinfolder.svg"
   inkscape:output_extension="org.inkscape.output.svg.inkscape"
   xml:space="preserve"
   xmlns:inkscape="http://www.inkscape.org/namespaces/inkscape"
   xmlns:sodipodi="http://sodipodi.sourceforge.net/DTD/sodipodi-0.dtd"
   xmlns:xlink="http://www.w3.org/1999/xlink"
   xmlns="http://www.w3.org/2000/svg"
   xmlns:svg="http://www.w3.org/2000/svg"
   xmlns:rdf="http://www.w3.org/1999/02/22-rdf-syntax-ns#"
   xmlns:cc="http://creativecommons.org/ns#"
   xmlns:dc="http://purl.org/dc/elements/1.1/"><metadata
     id="metadata162"><rdf:RDF><cc:Work
         rdf:about=""><dc:format>image/svg+xml</dc:format><dc:type
           rdf:resource="http://purl.org/dc/dcmitype/StillImage" /><dc:creator><cc:Agent><dc:title>Jakub Steiner</dc:title></cc:Agent></dc:creator><dc:date>2005-02-01</dc:date><cc:license
           rdf:resource="http://creativecommons.org/licenses/GPL/2.0/" /><dc:identifier>http://jimmac.musichall.cz/</dc:identifier><dc:subject><rdf:Bag><rdf:li>folder</rdf:li><rdf:li>directory</rdf:li><rdf:li>storage</rdf:li></rdf:Bag></dc:subject></cc:Work><cc:License
         rdf:about="http://creativecommons.org/licenses/GPL/2.0/"><cc:permits
           rdf:resource="http://web.resource.org/cc/Reproduction" /><cc:permits
           rdf:resource="http://web.resource.org/cc/Distribution" /><cc:requires
           rdf:resource="http://web.resource.org/cc/Notice" /><cc:permits
           rdf:resource="http://web.resource.org/cc/DerivativeWorks" /><cc:requires
           rdf:resource="http://web.resource.org/cc/ShareAlike" /><cc:requires
           rdf:resource="http://web.resource.org/cc/SourceCode" /></cc:License></rdf:RDF></metadata><sodipodi:namedview
     id="base"
     pagecolor="#ffffff"
     bordercolor="#666666"
     borderopacity="0.14901961"
     inkscape:pageopacity="0.0"
     inkscape:pageshadow="2"
     inkscape:window-width="1600"
     inkscape:window-height="900"
     inkscape:cy="27.046834"
     inkscape:cx="-31.112698"
     inkscape:zoom="2.8284271"
     inkscape:document-units="px"
     showgrid="false"
     inkscape:window-x="0"
     inkscape:window-y="0"
     inkscape:current-layer="layer2"
     inkscape:showpageshadow="false"
     inkscape:pagecheckerboard="0"
     inkscape:deskcolor="#505050"
     inkscape:window-maximized="1" /><defs
     id="defs3"><linearGradient
       id="linearGradient4734"><stop
         style="stop-color:#cccdbc;stop-opacity:1;"
         offset="0"
         id="stop4736" /><stop
         style="stop-color:#b9baa4;stop-opacity:1;"
         offset="1"
         id="stop4738" /></linearGradient><linearGradient
       inkscape:collect="always"
       id="linearGradient2339"><stop
         style="stop-color:#ffffff;stop-opacity:1;"
         offset="0"
         id="stop2341" /><stop
         style="stop-color:#ffffff;stop-opacity:0;"
         offset="1"
         id="stop2343" /></linearGradient><linearGradient
       inkscape:collect="always"
       xlink:href="#linearGradient2339"
       id="linearGradient2345"
       x1="25.850664"
       y1="37.625"
       x2="24.996323"
       y2="25.25"
       gradientUnits="userSpaceOnUse" /><linearGradient
       id="linearGradient356"><stop
         style="stop-color:#fffff3;stop-opacity:1.0000000;"
         offset="0.0000000"
         id="stop357" /><stop
         style="stop-color:#fffff3;stop-opacity:0.0000000;"
         offset="1.0000000"
         id="stop358" /></linearGradient><linearGradient
       id="linearGradient311"><stop
         style="stop-color:#cfcfc4;stop-opacity:1.0000000;"
         offset="0.0000000"
         id="stop312" /><stop
         style="stop-color:#cfcfc4;stop-opacity:1.0000000;"
         offset="0.32673267"
         id="stop335" /><stop
         style="stop-color:#cfcfc4;stop-opacity:0;"
         offset="1"
         id="stop313" /></linearGradient><linearGradient
       id="linearGradient235"><stop
         style="stop-color:#59594a;stop-opacity:1.0000000;"
         offset="0.0000000"
         id="stop236" /><stop
         style="stop-color:#a2a491;stop-opacity:1.0000000;"
         offset="1.0000000"
         id="stop237" /></linearGradient><linearGradient
       inkscape:collect="always"
       xlink:href="#linearGradient235"
       id="linearGradient253"
       gradientTransform="scale(1.068312,0.936056)"
       x1="24.983023"
       y1="22.828066"
       x2="24.983023"
       y2="8.3744106"
       gradientUnits="userSpaceOnUse" /><linearGradient
       inkscape:collect="always"
       xlink:href="#linearGradient311"
       id="linearGradient320"
       gradientUnits="userSpaceOnUse"
       gradientTransform="scale(0.750458,1.332520)"
       x1="32.827568"
       y1="7.9206076"
       x2="60.071049"
       y2="7.8678756" /><linearGradient
       inkscape:collect="always"
       xlink:href="#linearGradient356"
       id="linearGradient355"
       gradientUnits="userSpaceOnUse"
       gradientTransform="scale(0.806859,1.239374)"
       x1="23.643002"
       y1="12.818464"
       x2="28.443289"
       y2="25.232374" /><linearGradient
       inkscape:collect="always"
       xlink:href="#linearGradient4734"
       id="linearGradient4740"
       x1="24.588383"
       y1="1.8991361"
       x2="24.588383"
       y2="40.858932"
       gradientUnits="userSpaceOnUse" /><linearGradient
       inkscape:collect="always"
       id="linearGradient5282"><stop
         style="stop-color:#888a85;stop-opacity:1;"
         offset="0"
         id="stop5284" /><stop
         style="stop-color:#555753;stop-opacity:1"
         offset="1"
         id="stop5286" /></linearGradient><linearGradient
       inkscape:collect="always"
       id="linearGradient5403"><stop
         style="stop-color:#000000;stop-opacity:1;"
         offset="0"
         id="stop5405" /><stop
         style="stop-color:#000000;stop-opacity:0;"
         offset="1"
         id="stop5407" /></linearGradient><linearGradient
       id="linearGradient5265"><stop
         style="stop-color:#ffffff;stop-opacity:1;"
         offset="0"
         id="stop5267" /><stop
         id="stop5281"
         offset="0.28349411"
         style="stop-color:#ffffff;stop-opacity:1;" /><stop
         style="stop-color:#ffffff;stop-opacity:0;"
         offset="1"
         id="stop5269" /></linearGradient><radialGradient
       inkscape:collect="always"
       xlink:href="#linearGradient5403"
       id="radialGradient2788"
       cx="28.682018"
       cy="39.779884"
       fx="28.682018"
       fy="39.779884"
       r="12.59534"
       gradientTransform="matrix(1,0,0,0.329825,0,26.6595)"
       gradientUnits="userSpaceOnUse" /><radialGradient
       inkscape:collect="always"
       xlink:href="#linearGradient5265"
       id="radialGradient5271"
       cx="16.350952"
       cy="12.578328"
       fx="16.350952"
       fy="12.578328"
       r="6.9271288"
       gradientTransform="matrix(3.5838969,0,0,3.0076999,-41.766746,-27.550587)"
       gradientUnits="userSpaceOnUse" /><radialGradient
       inkscape:collect="always"
       xlink:href="#linearGradient5403"
       id="radialGradient5285"
       gradientUnits="userSpaceOnUse"
       gradientTransform="matrix(1,0,0,0.329825,0,26.6595)"
       cx="28.682018"
       cy="39.779884"
       fx="28.682018"
       fy="39.779884"
       r="12.59534" /><filter
       inkscape:collect="always"
       id="filter5379"
       x="-0.14493341"
       width="1.2898668"
       y="-0.43942576"
       height="1.8788515"><feGaussianBlur
         inkscape:collect="always"
         stdDeviation="1.521238"
         id="feGaussianBlur5381" /></filter><radialGradient
       inkscape:collect="always"
       xlink:href="#linearGradient2339"
       id="radialGradient5399"
       cx="12.893971"
       cy="13.137217"
       fx="12.893971"
       fy="13.137217"
       r="6.9404535"
       gradientTransform="matrix(0.9391513,0.9314688,-2.7714066,2.7714066,47.469422,-33.517793)"
       gradientUnits="userSpaceOnUse" /><linearGradient
       inkscape:collect="always"
       xlink:href="#linearGradient5403"
       id="linearGradient5409"
       x1="33.688488"
       y1="39.894127"
       x2="26.822592"
       y2="32.924358"
       gradientUnits="userSpaceOnUse" /><filter
       inkscape:collect="always"
       id="filter5471"
       x="-0.13357687"
       width="1.2671537"
       y="-0.07559745"
       height="1.1511949"><feGaussianBlur
         inkscape:collect="always"
         stdDeviation="1.2011151"
         id="feGaussianBlur5473" /></filter><linearGradient
       inkscape:collect="always"
       xlink:href="#linearGradient5282"
       id="linearGradient5288"
       x1="18.666454"
       y1="23.601217"
       x2="19.550337"
       y2="43.589653"
       gradientUnits="userSpaceOnUse" /></defs><g
     inkscape:groupmode="layer"
     id="layer1"
     inkscape:label="pixmap"
     style="display:inline" /><g
     inkscape:groupmode="layer"
     id="layer2"
     inkscape:label="vectors"
     style="display:inline"><g
       transform="matrix(0.216083,0.000000,0.000000,0.263095,-0.893233,-10.24236)"
       id="g1197"><path
         d="M 32.706693,164.36026 C 22.319193,164.36026 13.956693,172.72276 13.956693,183.11026 C 13.956693,193.49776 22.319193,201.86026 32.706693,201.86026 L 205.20669,201.86026 C 215.59419,201.86026 223.95669,193.49776 223.95669,183.11026 C 223.95669,172.72276 215.59419,164.36026 205.20669,164.36026 L 32.706693,164.36026 z "
         style="opacity:0.047872309;fill-rule:evenodd;stroke-width:3.0000000pt"
         id="path1196" /><path
         d="M 32.706693,165.61026 C 23.011693,165.61026 15.206693,173.41526 15.206693,183.11026 C 15.206693,192.80526 23.011693,200.61026 32.706693,200.61026 L 205.20669,200.61026 C 214.90169,200.61026 222.70669,192.80526 222.70669,183.11026 C 222.70669,173.41526 214.90169,165.61026 205.20669,165.61026 L 32.706693,165.61026 z "
         style="opacity:0.047872309;fill-rule:evenodd;stroke-width:3.0000000pt"
         id="path1195" /><path
         d="M 32.706694,166.86026 C 23.704194,166.86026 16.456694,174.10776 16.456694,183.11026 C 16.456694,192.11276 23.704194,199.36026 32.706694,199.36026 L 205.20669,199.36026 C 214.20919,199.36026 221.45669,192.11276 221.45669,183.11026 C 221.45669,174.10776 214.20919,166.86026 205.20669,166.86026 L 32.706694,166.86026 z "
         style="opacity:0.047872309;fill-rule:evenodd;stroke-width:3.0000000pt"
         id="path1194" /><path
         d="M 32.706694,168.11026 C 24.396694,168.11026 17.706694,174.80026 17.706694,183.11026 C 17.706694,191.42026 24.396694,198.11026 32.706694,198.11026 L 205.20669,198.11026 C 213.51669,198.11026 220.20669,191.42026 220.20669,183.11026 C 220.20669,174.80026 213.51669,168.11026 205.20669,168.11026 L 32.706694,168.11026 z "
         style="opacity:0.047872309;fill-rule:evenodd;stroke-width:3.0000000pt"
         id="path1193" /><path
         d="M 32.707764,169.36026 C 25.090264,169.36026 18.957764,175.49276 18.957764,183.11026 C 18.957764,190.72776 25.090264,196.86026 32.707764,196.86026 L 205.20618,196.86026 C 212.82368,196.86026 218.95618,190.72776 218.95618,183.11026 C 218.95618,175.49276 212.82368,169.36026 205.20618,169.36026 L 32.707764,169.36026 z "
         style="opacity:0.047872309;fill-rule:evenodd;stroke-width:3.0000000pt"
         id="path1192" /><path
         d="M 32.706694,170.61026 C 25.781694,170.61026 20.206694,176.18526 20.206694,183.11026 C 20.206694,190.03526 25.781694,195.61026 32.706694,195.61026 L 205.20669,195.61026 C 212.13169,195.61026 217.70669,190.03526 217.70669,183.11026 C 217.70669,176.18526 212.13169,170.61026 205.20669,170.61026 L 32.706694,170.61026 z "
         style="opacity:0.047872309;fill-rule:evenodd;stroke-width:3.0000000pt"
         id="path1191" /><path
         d="M 32.706694,171.86026 C 26.474194,171.86026 21.456694,176.87776 21.456694,183.11026 C 21.456694,189.34276 26.474194,194.36026 32.706694,194.36026 L 205.20669,194.36026 C 211.43919,194.36026 216.45669,189.34276 216.45669,183.11026 C 216.45669,176.87776 211.43919,171.86026 205.20669,171.86026 L 32.706694,171.86026 z "
         style="opacity:0.047872309;fill-rule:evenodd;stroke-width:3.0000000pt"
         id="path1190" /><path
         d="M 32.706694,173.11026 C 27.166694,173.11026 22.706694,177.57026 22.706694,183.11026 C 22.706694,188.65026 27.166694,193.11026 32.706694,193.11026 L 205.20669,193.11026 C 210.74669,193.11026 215.20669,188.65026 215.20669,183.11026 C 215.20669,177.57026 210.74669,173.11026 205.20669,173.11026 L 32.706694,173.11026 z "
         style="opacity:0.047872309;fill-rule:evenodd;stroke-width:3.0000000pt"
         id="path1189" /></g><path
       d="M 5.4186638,5.4561100 C 4.9536872,5.4561100 4.6035534,5.6913368 4.6035534,6.1828330 L 4.6035534,39.203794 C 4.6035534,39.930940 5.0906584,40.415354 5.7526104,40.415354 L 43.489564,40.415354 C 44.155366,40.415354 44.419872,39.962588 44.419872,39.328794 L 44.419872,10.425912 C 44.419872,9.8829469 44.019585,9.5893540 43.520814,9.5893540 L 24.411490,9.5893540 C 24.074477,9.5893540 23.714810,9.3909280 23.517009,9.1180670 L 20.914778,5.9180580 C 20.696913,5.6175190 20.272703,5.4561250 19.901500,5.4561250 L 5.4186638,5.4561100 z "
       style="fill:url(#linearGradient253);fill-opacity:1.0;fill-rule:evenodd;stroke:#555753;stroke-width:1.0000000;stroke-miterlimit:4.0000000;stroke-opacity:1"
       id="path895"
       sodipodi:nodetypes="ccccccccccccc" /><g
       id="g891"
       transform="matrix(0.186703,0.000000,0.000000,0.186703,-21.10730,57.62299)" /><path
       style="fill:url(#linearGradient320);fill-opacity:1.0;fill-rule:evenodd;stroke:none;stroke-width:0.25000000pt;stroke-linecap:butt;stroke-linejoin:miter;stroke-opacity:1.0000000;opacity:1.0000000;color:#000000;marker:none;marker-start:none;marker-mid:none;marker-end:none;stroke-miterlimit:4.0000000;stroke-dasharray:none;stroke-dashoffset:0;visibility:visible;display:inline;overflow:visible"
       d="M 5.0625000,7.9062500 L 5.0625000,36.156250 L 6.0312500,31.781250 L 6.2500000,9.1562500 C 6.2500000,8.4058274 6.7614657,8.0312500 7.4869586,8.0312500 L 19.093750,8.0312500 C 20.655346,8.0312500 22.108598,11.218750 24.411417,11.218750 C 30.383036,11.218750 43.749813,11.306338 43.750000,11.218750 L 43.750000,10.187500 L 24.218750,10.062500 C 22.362615,10.050621 21.088324,6.9062500 19.656250,6.9062500 L 6.2838336,6.9062500 C 5.4685048,6.9062500 5.0625000,7.2604161 5.0625000,7.9062500 z "
       id="path315"
       sodipodi:nodetypes="ccccczscczzcc" /><path
       style="color:#000000;fill:url(#linearGradient4740);fill-opacity:1.0;fill-rule:evenodd;stroke:#555753;stroke-width:0.99999988;stroke-linecap:butt;stroke-linejoin:round;marker:none;marker-start:none;marker-mid:none;marker-end:none;stroke-miterlimit:4;stroke-dashoffset:0;stroke-opacity:1;visibility:visible;display:inline;overflow:visible"
       d="M 7.6864537,16.296282 L 15.619799,16.296282 C 16.361533,16.296282 16.987769,15.915471 17.306966,15.414278 C 17.443709,15.199569 18.574948,13.28855 18.66464,13.158052 C 18.963427,12.723328 19.437557,12.399136 20.006622,12.399136 L 43.048855,12.399136 C 43.851692,12.399136 44.498018,13.042925 44.498018,13.84261 L 44.498018,38.915459 C 44.498018,39.715143 43.851692,40.358932 43.048855,40.358932 L 6.1279084,40.358932 C 5.3250725,40.358932 4.6787461,39.715143 4.6787461,38.915459 L 4.6787461,19.481904 C 4.6787461,17.507539 5.8190623,16.296282 7.6864537,16.296282 z "
       id="rect337"
       sodipodi:nodetypes="czzszcccccccc"
       inkscape:r_cx="true"
       inkscape:r_cy="true" /><path
       style="fill:url(#linearGradient355);fill-opacity:1.0;fill-rule:evenodd;stroke:none;stroke-width:0.25000000pt;stroke-linecap:butt;stroke-linejoin:miter;stroke-miterlimit:4.0000000;stroke-opacity:1.0000000;opacity:1.0000000;color:#000000;marker:none;marker-start:none;marker-mid:none;marker-end:none;stroke-dasharray:none;stroke-dashoffset:0;visibility:visible;display:inline;overflow:visible"
       d="M 20.500000,13.750000 C 19.853581,13.750000 19.490960,14.031698 19.125000,14.500000 C 18.759040,14.968302 18.343502,15.671815 18.062500,16.218750 C 17.781498,16.765685 17.493409,17.272919 17.218750,17.625000 C 16.944091,17.977081 16.729167,18.125000 16.500000,18.125000 C 15.250000,18.125000 7.3428301,18.125000 6.8428301,18.125000 C 6.3844968,18.125000 6.0073599,18.355519 5.6865801,18.656250 C 5.3658003,18.956981 5.0928301,19.362500 5.0928301,19.875000 C 5.0928302,20.499998 5.0928301,39.250000 5.0928301,39.250000 L 6.0928301,39.250000 C 6.0928301,39.250000 6.0928302,20.500002 6.0928301,19.875000 C 6.0928301,19.762500 6.1948599,19.543019 6.3740801,19.375000 C 6.5533003,19.206981 6.8011635,19.125000 6.8428301,19.125000 C 7.3428301,19.125000 15.250000,19.125000 16.500000,19.125000 C 17.145833,19.125000 17.634731,18.718232 18.000000,18.250000 C 18.365269,17.781768 18.656559,17.203065 18.937500,16.656250 C 19.218441,16.109435 19.568667,15.477011 19.843750,15.125000 C 20.118833,14.772989 20.269189,14.750000 20.500000,14.750000 C 21.716667,14.750000 43.750000,14.875000 43.750000,14.875000 L 43.750000,13.875000 C 43.750000,13.875000 21.783333,13.750000 20.500000,13.750000 z "
       id="path349"
       sodipodi:nodetypes="ccccccccccccccccccccc" /><rect
       style="color:#000000;fill:#fffffd;fill-opacity:1.0000000;fill-rule:evenodd;stroke:none;stroke-width:0.25000000pt;stroke-linecap:butt;stroke-linejoin:miter;stroke-miterlimit:4.0000000;stroke-dashoffset:0.0000000;stroke-opacity:1.0000000;marker:none;marker-start:none;marker-mid:none;marker-end:none;visibility:visible;display:inline;overflow:visible"
       id="rect459"
       width="1.2500000"
       height="1.2500000"
       x="5.5290294"
       y="7.3598347"
       rx="1.4434735"
       ry="1.2500000" /><rect
       style="opacity:0.28571429;color:#000000;fill:none;fill-opacity:1;fill-rule:evenodd;stroke:url(#linearGradient2345);stroke-width:1.00000024;stroke-linecap:square;stroke-linejoin:round;marker:none;marker-start:none;marker-mid:none;marker-end:none;stroke-miterlimit:4;stroke-dasharray:none;stroke-dashoffset:0;stroke-opacity:1;visibility:visible;display:inline;overflow:visible"
       id="rect2337"
       width="37.95816"
       height="23.625"
       x="5.5381637"
       y="15.75"
       inkscape:r_cx="true"
       inkscape:r_cy="true"
       rx="0.43750021"
       ry="0.4375" /><g
       id="layer1-7"
       inkscape:label="Layer 1"
       transform="matrix(0.50334727,0,0,0.50334727,24.744218,20.676435)"><ellipse
         transform="matrix(0.7315426,0,0,0.8758998,-2.6289879,8.6451927)"
         id="path5283"
         style="color:#000000;display:inline;overflow:visible;visibility:visible;opacity:0.53012;fill:url(#radialGradient5285);fill-opacity:1;fill-rule:nonzero;stroke:none;stroke-width:1;stroke-linecap:butt;stroke-linejoin:miter;stroke-miterlimit:4;stroke-dasharray:none;stroke-dashoffset:0;stroke-opacity:1;marker:none;marker-start:none;marker-mid:none;marker-end:none;filter:url(#filter5379)"
         cx="28.682018"
         cy="39.779884"
         rx="12.59534"
         ry="4.1542525" /><ellipse
         style="color:#000000;display:inline;overflow:visible;visibility:visible;opacity:0.134021;fill:url(#radialGradient2788);fill-opacity:1;fill-rule:nonzero;stroke:none;stroke-width:1;stroke-linecap:butt;stroke-linejoin:miter;stroke-miterlimit:4;stroke-dasharray:none;stroke-dashoffset:0;stroke-opacity:1;marker:none;marker-start:none;marker-mid:none;marker-end:none"
         id="path2780"
         transform="matrix(1.2334109,0,0,1.0076725,-8.228868,3.4032918)"
         cx="28.682018"
         cy="39.779884"
         rx="12.59534"
         ry="4.1542525" /><path
         sodipodi:nodetypes="ccccccsc"
         id="path2177"
         d="M 13.231032,44.801742 C 32.533918,45.05839 43.631188,27.964269 28.215997,12.281453 l 7.451349,-7.7062297 c 0,0 -23.226234,-0.030726 -23.226234,-0.030726 l 0.03452,23.4296397 c 0,0 7.615618,-7.592548 7.615618,-7.592548 12.539667,11.928347 3.731482,21.41642 -7.438584,21.351977 -1.077832,-0.0062 -1.559352,3.164947 0.578362,3.068176 z"
         style="color:#000000;display:block;overflow:visible;visibility:visible;opacity:1;fill:#e0e3dd;fill-opacity:1;fill-rule:nonzero;stroke:url(#linearGradient5288);stroke-width:0.999999;stroke-linecap:butt;stroke-linejoin:miter;stroke-miterlimit:10;stroke-dasharray:none;stroke-dashoffset:0;stroke-opacity:1;marker:none;marker-start:none;marker-mid:none;marker-end:none" /><path
         sodipodi:type="inkscape:offset"
         inkscape:radius="-0.99764425"
         inkscape:original="M 12.441406 4.5449219 L 12.476562 27.974609 L 20.091797 20.380859 C 32.631464 32.309206 23.82241 41.798818 12.652344 41.734375 C 11.574512 41.728175 11.092755 44.897552 13.230469 44.800781 C 32.533355 45.057429 43.631988 27.964066 28.216797 12.28125 L 35.667969 4.5761719 L 12.441406 4.5449219 z "
         xlink:href="#path2177"
         style="color:#000000;display:block;overflow:visible;visibility:visible;opacity:1;fill:none;fill-opacity:1;fill-rule:nonzero;stroke:url(#radialGradient5271);stroke-width:0.999999;stroke-linecap:butt;stroke-linejoin:miter;stroke-miterlimit:10;stroke-dasharray:none;stroke-dashoffset:0;stroke-opacity:1;marker:none;marker-start:none;marker-mid:none;marker-end:none"
         id="path4686"
         inkscape:href="#path2177"
         d="m 13.441406,5.5449219 0.0293,20.0273441 5.916016,-5.898438 a 0.99774401,0.99774401 0 0 1 1.392578,-0.01563 c 3.225041,3.067818 5.138683,6.031387 5.966797,8.816406 0.828114,2.78502 0.53404,5.393014 -0.59961,7.544922 -2.239009,4.250117 -7.504159,6.663922 -13.287109,6.691406 -0.06021,0.109457 -0.130315,0.356683 -0.126953,0.574219 0.0034,0.218242 0.07247,0.380477 0.117187,0.433594 0.04472,0.05312 0.04558,0.09908 0.335938,0.08594 a 0.99774401,0.99774401 0 0 1 0.05859,-0.002 C 22.598637,43.92711 29.8094,39.855658 32.859375,34.054687 35.90935,28.253717 35.002526,20.607286 27.505859,12.980469 A 0.99774401,0.99774401 0 0 1 27.5,11.587891 l 5.818359,-6.0175785 z" /><path
         style="color:#000000;display:block;overflow:visible;visibility:visible;opacity:1;fill:url(#radialGradient5399);fill-opacity:1;fill-rule:nonzero;stroke:none;stroke-width:0.999999;stroke-linecap:butt;stroke-linejoin:miter;stroke-miterlimit:10;stroke-dasharray:none;stroke-dashoffset:0;stroke-opacity:1;marker:none;marker-start:none;marker-mid:none;marker-end:none"
         d="m 17.159788,43.640829 c 14.355098,0.03349 25.726736,-17.797982 9.952346,-31.284319 l 6.591644,-6.8171264 c 0,0 -20.546513,-0.027181 -20.546513,-0.027181 l 0.03054,20.7264614 c 0,0 6.736976,-6.716559 6.736976,-6.716559 11.0929,10.552111 7.682618,19.679887 -2.110604,22.372239 -0.819697,0.225351 -2.545468,1.832089 -0.654389,1.746485 z"
         id="path5383"
         sodipodi:nodetypes="ccccccsc" /><path
         sodipodi:nodetypes="ccccccsc"
         id="path5401"
         d="m 17.159788,43.640829 c 14.355098,0.03349 25.726736,-17.797982 9.952346,-31.284319 l 6.591644,-6.8171264 c 0,0 -20.546513,-0.027181 -20.546513,-0.027181 l 0.03054,20.7264614 c 0,0 6.736976,-6.716559 6.736976,-6.716559 11.0929,10.552111 7.682618,19.679887 -2.110604,22.372239 -0.819697,0.225351 -2.545468,1.832089 -0.654389,1.746485 z"
         style="color:#000000;display:block;overflow:visible;visibility:visible;opacity:0.512048;fill:url(#linearGradient5409);fill-opacity:1;fill-rule:nonzero;stroke:none;stroke-width:0.999999;stroke-linecap:butt;stroke-linejoin:miter;stroke-miterlimit:10;stroke-dasharray:none;stroke-dashoffset:0;stroke-opacity:1;marker:none;marker-start:none;marker-mid:none;marker-end:none;filter:url(#filter5471)" /></g></g></svg>
