<?xml version="1.0" encoding="UTF-8" standalone="no"?>
<svg xmlns="http://www.w3.org/2000/svg" xmlns:xlink="http://www.w3.org/1999/xlink" width="48" height="48">
  <defs>
    <linearGradient id="e">
      <stop offset="0" stop-color="#888a85"/>
      <stop offset="1" stop-color="#888a85" stop-opacity="0"/>
    </linearGradient>
    <linearGradient id="a">
      <stop offset="0" stop-opacity="0"/>
      <stop offset=".5"/>
      <stop offset="1" stop-opacity="0"/>
    </linearGradient>
    <linearGradient xlink:href="#a" id="h" x1="18.142136" x2="18.142136" y1="35" y2="42.040661" gradientUnits="userSpaceOnUse"/>
    <linearGradient id="f">
      <stop offset="0"/>
      <stop offset="1" stop-opacity="0"/>
    </linearGradient>
    <linearGradient id="d">
      <stop offset="0" stop-color="#bdc2b6"/>
      <stop offset="1" stop-color="#bdc2b6" stop-opacity="0"/>
    </linearGradient>
    <linearGradient id="c">
      <stop offset="0" stop-color="#fff"/>
      <stop offset="1" stop-color="#fff" stop-opacity="0"/>
    </linearGradient>
    <linearGradient id="b">
      <stop offset="0" stop-color="#eaece8"/>
      <stop offset="1" stop-color="#b6bcaf"/>
    </linearGradient>
    <linearGradient xlink:href="#b" id="i" x1="10.964286" x2="31.714285" y1="26.214285" y2="32.142857" gradientTransform="matrix(1 0 0 .99824 1.96428 .0398929)" gradientUnits="userSpaceOnUse"/>
    <linearGradient xlink:href="#c" id="k" x1="24" x2="24" y1="24.035713" y2="30.5" gradientTransform="matrix(1.98214 0 0 1.25 -22.58921 -5.749999)" gradientUnits="userSpaceOnUse"/>
    <linearGradient xlink:href="#d" id="l" x1="38.991886" x2="38.966633" y1="17" y2="18" gradientTransform="matrix(1 0 0 1.5 0 -9.5)" gradientUnits="userSpaceOnUse"/>
    <linearGradient xlink:href="#e" id="j" x1="30.890739" x2="28.57049" y1="26.488178" y2="26.607817" gradientUnits="userSpaceOnUse"/>
    <linearGradient xlink:href="#c" id="m" x1="24" x2="24" y1="24.035713" y2="30.5" gradientTransform="matrix(.48214 0 0 .875 8.94651 2.875001)" gradientUnits="userSpaceOnUse"/>
    <linearGradient xlink:href="#c" id="n" x1="24" x2="24" y1="24.035713" y2="30.5" gradientTransform="matrix(1.5 0 0 .92578 -18.5 2.300782)" gradientUnits="userSpaceOnUse"/>
    <radialGradient xlink:href="#f" id="g" cx="7" cy="39.464806" r="3.5" fx="7" fy="39.464806" gradientTransform="matrix(0 -1 1.14286 0 -89.10259 -31.49999)" gradientUnits="userSpaceOnUse"/>
  </defs>
  <path fill="#2e3436" fill-rule="evenodd" d="M2.0076926 29.502972c-.439476-.799238 18.0917584-6.625939 19.5566784-6.574375H32.33153l2.050889 3.789933L42 36H28.742477c-6.787462 0-26.7591998-4.331352-26.7347844-6.497028z" opacity=".2"/>
  <path fill="#2e3436" fill-rule="evenodd" d="M2.0076926 29.074558c-.439476-.799238 18.0917584-6.625939 19.5566784-6.574375H32.33153l2.050889 3.789933L42 35.571586H28.742477c-6.787462 0-26.7591998-4.331352-26.7347844-6.497028z" opacity=".2"/>
  <g opacity=".2" transform="matrix(.31943 0 0 .72596 30.7223 -.490416)">
    <path fill="url(#g)" d="M-48-42h4v7h-4z" opacity="1" transform="scale(-1)"/>
    <path fill="url(#h)" d="M4 35h40v7H4z" opacity="1"/>
  </g>
  <path fill="url(#i)" fill-rule="evenodd" stroke="#898b86" stroke-linejoin="round" d="M2.3928514 28.561065c-.4285715-.736797 9.7364616-6.06075 19.0714286-6.06075h10.5l2 3.493844 7.428571 8.556352H28.46428c-12.121626 0-26.0952382-3.992964-26.0714286-5.989446z"/>
  <path fill="none" stroke="#fff" d="M4.2924457 28.672578c.0083151-.397138 9.6022503-5.172313 17.3263833-5.172313h9.742696l1.580241 2.899333 6.165386 7.100409H27.899674c-5.939031 0-23.3428779-3.992096-23.6072283-4.827429z" opacity=".5"/>
  <path fill="#bdc2b6" fill-rule="evenodd" stroke="url(#j)" stroke-width="1.00000012" d="M26.46428 26.535713h5.044382v-7.671151c0-2.492969 1.426519-3.336834 3.388518-3.336834h9.693682c.598708 0 .909138.486008.909138.978816v1.97026c0 .730333-.353028 1.005338-1.060661 1.005338h-8.34047c-.998906.020833-1.591563.697917-1.590469 1.84375v6.602679"/>
  <rect width="3.9642792" height="10" x="23" y="23" fill="url(#k)" opacity=".5" rx="0" ry="0"/>
  <path fill="#555753" d="M35.964279 15.051001H44.5c.887681 0 1.5.670118 1.5 1.451659v2.224253C46 19.454944 45.386914 20 44.464286 20h-8.500007v-4.948999z" opacity=".7"/>
  <path fill="url(#l)" d="M34 16h11v3H34z" opacity=".72826089"/>
  <path fill="#fff" d="M33.99999804 27.00000388a1.00000065 1.00000217 0 1 1-2.00000123 0 1.00000065 1.00000217 0 1 1 2.00000123 0z" opacity=".3"/>
  <path fill="url(#m)" d="M20.035721 23.243068 21 23.088388V30h-.964279v-6.756932z" opacity=".5"/>
  <path fill="url(#n)" d="m16 24.345051 3-.751301V31h-3v-6.654949z" opacity=".4"/>
  <path fill="none" stroke="#fff" stroke-linecap="round" d="M32.499999 26.500001v-7.96875c0-1.104953.817496-2 2.03125-2h9.96875v1.96875h-8.9375" opacity=".2"/>
</svg>