<?xml version="1.0" encoding="UTF-8" standalone="no"?>
<!-- Created with Inkscape (http://www.inkscape.org/) -->

<svg
   version="1.0"
   x="0.0000000"
   y="0.0000000"
   width="48.000000px"
   height="48.000000px"
   id="svg1"
   sodipodi:version="0.32"
   inkscape:version="1.4.4 (dcaf3e7d9e, 2026-05-05)"
   sodipodi:docname="folder.svg"
   inkscape:output_extension="org.inkscape.output.svg.inkscape"
   xml:space="preserve"
   xmlns:inkscape="http://www.inkscape.org/namespaces/inkscape"
   xmlns:sodipodi="http://sodipodi.sourceforge.net/DTD/sodipodi-0.dtd"
   xmlns:xlink="http://www.w3.org/1999/xlink"
   xmlns="http://www.w3.org/2000/svg"
   xmlns:svg="http://www.w3.org/2000/svg"
   xmlns:rdf="http://www.w3.org/1999/02/22-rdf-syntax-ns#"
   xmlns:cc="http://creativecommons.org/ns#"
   xmlns:dc="http://purl.org/dc/elements/1.1/"><metadata
     id="metadata162"><rdf:RDF><cc:Work
         rdf:about=""><dc:format>image/svg+xml</dc:format><dc:type
           rdf:resource="http://purl.org/dc/dcmitype/StillImage" /><dc:title>Folder</dc:title><dc:creator><cc:Agent><dc:title>Jakub Steiner</dc:title></cc:Agent></dc:creator><dc:date>2005-02-01</dc:date><cc:license
           rdf:resource="http://creativecommons.org/licenses/GPL/2.0/" /><dc:identifier>http://jimmac.musichall.cz/</dc:identifier><dc:subject><rdf:Bag><rdf:li>folder</rdf:li><rdf:li>directory</rdf:li><rdf:li>storage</rdf:li></rdf:Bag></dc:subject></cc:Work><cc:License
         rdf:about="http://creativecommons.org/licenses/GPL/2.0/"><cc:permits
           rdf:resource="http://web.resource.org/cc/Reproduction" /><cc:permits
           rdf:resource="http://web.resource.org/cc/Distribution" /><cc:requires
           rdf:resource="http://web.resource.org/cc/Notice" /><cc:permits
           rdf:resource="http://web.resource.org/cc/DerivativeWorks" /><cc:requires
           rdf:resource="http://web.resource.org/cc/ShareAlike" /><cc:requires
           rdf:resource="http://web.resource.org/cc/SourceCode" /></cc:License></rdf:RDF></metadata><sodipodi:namedview
     id="base"
     pagecolor="#ffffff"
     bordercolor="#666666"
     borderopacity="0.14901961"
     inkscape:pageopacity="0.0"
     inkscape:pageshadow="2"
     inkscape:window-width="1594"
     inkscape:window-height="894"
     inkscape:cy="23.125"
     inkscape:cx="4.25"
     inkscape:zoom="4"
     inkscape:document-units="px"
     showgrid="false"
     inkscape:window-x="0"
     inkscape:window-y="0"
     inkscape:current-layer="layer2"
     inkscape:showpageshadow="false"
     inkscape:pagecheckerboard="0"
     inkscape:deskcolor="#505050"
     inkscape:window-maximized="1" /><defs
     id="defs3"><linearGradient
       id="linearGradient4734"><stop
         style="stop-color:#cccdbc;stop-opacity:1;"
         offset="0"
         id="stop4736" /><stop
         style="stop-color:#b9baa4;stop-opacity:1;"
         offset="1"
         id="stop4738" /></linearGradient><linearGradient
       inkscape:collect="always"
       id="linearGradient2339"><stop
         style="stop-color:#ffffff;stop-opacity:1;"
         offset="0"
         id="stop2341" /><stop
         style="stop-color:#ffffff;stop-opacity:0;"
         offset="1"
         id="stop2343" /></linearGradient><linearGradient
       inkscape:collect="always"
       xlink:href="#linearGradient2339"
       id="linearGradient2345"
       x1="25.850664"
       y1="37.625"
       x2="24.996323"
       y2="25.25"
       gradientUnits="userSpaceOnUse" /><linearGradient
       id="linearGradient356"><stop
         style="stop-color:#fffff3;stop-opacity:1.0000000;"
         offset="0.0000000"
         id="stop357" /><stop
         style="stop-color:#fffff3;stop-opacity:0.0000000;"
         offset="1.0000000"
         id="stop358" /></linearGradient><linearGradient
       id="linearGradient311"><stop
         style="stop-color:#cfcfc4;stop-opacity:1.0000000;"
         offset="0.0000000"
         id="stop312" /><stop
         style="stop-color:#cfcfc4;stop-opacity:1.0000000;"
         offset="0.32673267"
         id="stop335" /><stop
         style="stop-color:#cfcfc4;stop-opacity:0;"
         offset="1"
         id="stop313" /></linearGradient><linearGradient
       id="linearGradient235"><stop
         style="stop-color:#59594a;stop-opacity:1.0000000;"
         offset="0.0000000"
         id="stop236" /><stop
         style="stop-color:#a2a491;stop-opacity:1.0000000;"
         offset="1.0000000"
         id="stop237" /></linearGradient><linearGradient
       inkscape:collect="always"
       xlink:href="#linearGradient235"
       id="linearGradient253"
       gradientTransform="scale(1.068312,0.936056)"
       x1="24.983023"
       y1="22.828066"
       x2="24.983023"
       y2="8.3744106"
       gradientUnits="userSpaceOnUse" /><linearGradient
       inkscape:collect="always"
       xlink:href="#linearGradient311"
       id="linearGradient320"
       gradientUnits="userSpaceOnUse"
       gradientTransform="scale(0.750458,1.332520)"
       x1="32.827568"
       y1="7.9206076"
       x2="60.071049"
       y2="7.8678756" /><linearGradient
       inkscape:collect="always"
       xlink:href="#linearGradient356"
       id="linearGradient355"
       gradientUnits="userSpaceOnUse"
       gradientTransform="scale(0.806859,1.239374)"
       x1="23.643002"
       y1="12.818464"
       x2="28.443289"
       y2="25.232374" /><linearGradient
       inkscape:collect="always"
       xlink:href="#linearGradient4734"
       id="linearGradient4740"
       x1="24.588383"
       y1="1.8991361"
       x2="24.588383"
       y2="40.858932"
       gradientUnits="userSpaceOnUse" /><linearGradient
       id="g"><stop
         offset="0"
         id="stop1" /><stop
         offset="1"
         stop-opacity="0"
         id="stop2" /></linearGradient><linearGradient
       id="i"><stop
         offset="0"
         stop-color="#f9f9f9"
         id="stop5" /><stop
         offset="1"
         stop-color="#f9f9f9"
         stop-opacity="0"
         id="stop6" /></linearGradient><linearGradient
       id="c"><stop
         offset="0"
         stop-color="#555753"
         id="stop11" /><stop
         offset="1"
         stop-color="#888a85"
         id="stop12" /></linearGradient><linearGradient
       id="d"><stop
         offset="0"
         stop-color="#888a85"
         stop-opacity="0"
         id="stop13" /><stop
         offset="1"
         stop-color="#babdb6"
         id="stop14" /></linearGradient><linearGradient
       id="b"><stop
         offset="0"
         stop-color="#888a85"
         id="stop15" /><stop
         offset=".34042552"
         stop-color="#babdb6"
         id="stop16" /><stop
         offset="1"
         stop-color="#555753"
         id="stop17" /></linearGradient><linearGradient
       id="a"><stop
         offset="0"
         stop-color="#888a85"
         id="stop18" /><stop
         offset="1"
         stop-color="#555753"
         id="stop19" /></linearGradient><linearGradient
       id="k"><stop
         offset="0"
         stop-color="#7a7a7a"
         id="stop20" /><stop
         offset="1"
         id="stop21" /></linearGradient><linearGradient
       id="f"><stop
         offset="0"
         stop-color="#010101"
         id="stop22" /><stop
         offset="1"
         stop-color="#959595"
         id="stop23" /></linearGradient><linearGradient
       xlink:href="#a"
       id="r"
       x1="15.910872"
       x2="17.822588"
       y1="5.5152001"
       y2="4.4475551"
       gradientUnits="userSpaceOnUse" /><linearGradient
       xlink:href="#a"
       id="t"
       x1="15.910872"
       x2="17.822588"
       y1="5.5152001"
       y2="4.4475551"
       gradientTransform="matrix(-0.5,0.8660254,0.8660254,0.5,22.120835,-12.77147)"
       gradientUnits="userSpaceOnUse" /><linearGradient
       xlink:href="#b"
       id="v"
       x1="14.937631"
       x2="19.445436"
       y1="68.506096"
       y2="70.892586"
       gradientTransform="translate(0,-56)"
       gradientUnits="userSpaceOnUse" /><linearGradient
       xlink:href="#c"
       id="w"
       x1="15.3125"
       x2="15.3125"
       y1="76.232018"
       y2="83.3125"
       gradientUnits="userSpaceOnUse" /><linearGradient
       xlink:href="#d"
       id="x"
       x1="14.507583"
       x2="14.287912"
       y1="75.603554"
       y2="73.9664"
       gradientTransform="translate(0,-56)"
       gradientUnits="userSpaceOnUse" /><linearGradient
       xlink:href="#b"
       id="y"
       x1="20.240931"
       x2="15.423766"
       y1="70.804199"
       y2="70.229668"
       gradientTransform="matrix(-1,0,0,1,48.0625,-56)"
       gradientUnits="userSpaceOnUse" /><linearGradient
       xlink:href="#d"
       id="A"
       x1="14.507583"
       x2="14.287912"
       y1="75.603554"
       y2="73.9664"
       gradientTransform="matrix(-1,0,0,1,48.0625,-56)"
       gradientUnits="userSpaceOnUse" /><linearGradient
       xlink:href="#b"
       id="B"
       x1="21.812019"
       x2="26"
       y1="16.46875"
       y2="16.46875"
       gradientTransform="translate(0,-3)"
       gradientUnits="userSpaceOnUse" /><linearGradient
       xlink:href="#b"
       id="C"
       x1="32.432842"
       x2="42.548504"
       y1="116.58936"
       y2="116.58936"
       gradientTransform="translate(0,-96)"
       gradientUnits="userSpaceOnUse" /><linearGradient
       xlink:href="#b"
       id="D"
       x1="32.432842"
       x2="42.548504"
       y1="116.58936"
       y2="116.58936"
       gradientTransform="translate(-30,-96)"
       gradientUnits="userSpaceOnUse" /><linearGradient
       xlink:href="#c"
       id="E"
       x1="22.15625"
       x2="22.15625"
       y1="69.6875"
       y2="80.97287"
       gradientUnits="userSpaceOnUse" /><linearGradient
       xlink:href="#linearGradient2339"
       id="G"
       x1="23.909048"
       x2="21.058523"
       y1="76.483147"
       y2="67.290756"
       gradientUnits="userSpaceOnUse" /><linearGradient
       xlink:href="#f"
       id="I"
       x1="12.835793"
       x2="18.422049"
       y1="18.849401"
       y2="27.072878"
       gradientUnits="userSpaceOnUse" /><radialGradient
       xlink:href="#g"
       id="m"
       cx="23.78125"
       cy="27.46875"
       r="9.71875"
       fx="23.78125"
       fy="27.46875"
       gradientTransform="matrix(1,0,0,0.55627,0,12.188706)"
       gradientUnits="userSpaceOnUse" /><radialGradient
       xlink:href="#g"
       id="n"
       cx="23.78125"
       cy="27.46875"
       r="9.71875"
       fx="23.78125"
       fy="27.46875"
       gradientTransform="matrix(1,0,0,0.55627,0,12.188706)"
       gradientUnits="userSpaceOnUse" /><radialGradient
       xlink:href="#g"
       id="o"
       cx="23.78125"
       cy="27.46875"
       r="9.71875"
       fx="23.78125"
       fy="27.46875"
       gradientTransform="matrix(1,0,0,0.55627,0,12.188706)"
       gradientUnits="userSpaceOnUse" /><radialGradient
       xlink:href="#g"
       id="p"
       cx="14.5"
       cy="25.78125"
       r="5.5"
       fx="14.5"
       fy="25.78125"
       gradientTransform="matrix(1,0,0,2.14205,0,-29.443359)"
       gradientUnits="userSpaceOnUse" /><radialGradient
       xlink:href="#g"
       id="q"
       cx="14.5"
       cy="25.78125"
       r="5.5"
       fx="14.5"
       fy="25.78125"
       gradientTransform="matrix(1,0,0,2.14205,0,-29.443359)"
       gradientUnits="userSpaceOnUse" /><radialGradient
       xlink:href="#i"
       id="s"
       cx="17.34375"
       cy="5.0044641"
       r="2.5"
       fx="17.34375"
       fy="5.0044641"
       gradientTransform="matrix(2.03765,0,0,2.85271,-17.996801,-9.8700587)"
       gradientUnits="userSpaceOnUse" /><radialGradient
       xlink:href="#i"
       id="u"
       cx="17.34375"
       cy="5.0044641"
       r="2.5"
       fx="17.34375"
       fy="5.0044641"
       gradientTransform="matrix(-1.01883,1.76466,2.47052,1.42636,22.571514,-33.292186)"
       gradientUnits="userSpaceOnUse" /><radialGradient
       xlink:href="#linearGradient2339"
       id="F"
       cx="22.957685"
       cy="22.990465"
       r="3.9375"
       fx="22.957685"
       fy="22.990465"
       gradientTransform="matrix(0.88153,0,0,0.71013,2.9647845,-1.513614)"
       gradientUnits="userSpaceOnUse" /><radialGradient
       xlink:href="#k"
       id="H"
       cx="16.875"
       cy="23.672499"
       r="4.625"
       fx="16.875"
       fy="23.672499"
       gradientTransform="matrix(1,0,0,1.01351,0,-0.304899)"
       gradientUnits="userSpaceOnUse" /><radialGradient
       xlink:href="#linearGradient2339"
       id="J"
       cx="14.75"
       cy="22.6875"
       r="1.75"
       fx="14.75"
       fy="22.6875"
       gradientTransform="matrix(1,0,0,1.03571,0,-0.810268)"
       gradientUnits="userSpaceOnUse" /><radialGradient
       xlink:href="#k"
       id="K"
       cx="16.875"
       cy="23.672499"
       r="4.625"
       fx="16.875"
       fy="23.672499"
       gradientTransform="matrix(1,0,0,1.01351,0,-0.304899)"
       gradientUnits="userSpaceOnUse" /><radialGradient
       xlink:href="#linearGradient2339"
       id="M"
       cx="14.75"
       cy="22.6875"
       r="1.75"
       fx="14.75"
       fy="22.6875"
       gradientTransform="matrix(1,0,0,1.03571,0,-0.810268)"
       gradientUnits="userSpaceOnUse" /><linearGradient
       inkscape:collect="always"
       xlink:href="#c"
       id="linearGradient1"
       gradientUnits="userSpaceOnUse"
       x1="15.3125"
       y1="76.232018"
       x2="15.3125"
       y2="83.3125" /><linearGradient
       inkscape:collect="always"
       xlink:href="#f"
       id="linearGradient2"
       gradientUnits="userSpaceOnUse"
       x1="12.835793"
       y1="18.849401"
       x2="18.422049"
       y2="27.072878" /></defs><g
     inkscape:groupmode="layer"
     id="layer1"
     inkscape:label="pixmap"
     style="display:inline" /><g
     inkscape:groupmode="layer"
     id="layer2"
     inkscape:label="vectors"
     style="display:inline"><g
       transform="matrix(0.216083,0.000000,0.000000,0.263095,-0.893233,-10.24236)"
       id="g1197"><path
         d="M 32.706693,164.36026 C 22.319193,164.36026 13.956693,172.72276 13.956693,183.11026 C 13.956693,193.49776 22.319193,201.86026 32.706693,201.86026 L 205.20669,201.86026 C 215.59419,201.86026 223.95669,193.49776 223.95669,183.11026 C 223.95669,172.72276 215.59419,164.36026 205.20669,164.36026 L 32.706693,164.36026 z "
         style="opacity:0.047872309;fill-rule:evenodd;stroke-width:3.0000000pt"
         id="path1196" /><path
         d="M 32.706693,165.61026 C 23.011693,165.61026 15.206693,173.41526 15.206693,183.11026 C 15.206693,192.80526 23.011693,200.61026 32.706693,200.61026 L 205.20669,200.61026 C 214.90169,200.61026 222.70669,192.80526 222.70669,183.11026 C 222.70669,173.41526 214.90169,165.61026 205.20669,165.61026 L 32.706693,165.61026 z "
         style="opacity:0.047872309;fill-rule:evenodd;stroke-width:3.0000000pt"
         id="path1195" /><path
         d="M 32.706694,166.86026 C 23.704194,166.86026 16.456694,174.10776 16.456694,183.11026 C 16.456694,192.11276 23.704194,199.36026 32.706694,199.36026 L 205.20669,199.36026 C 214.20919,199.36026 221.45669,192.11276 221.45669,183.11026 C 221.45669,174.10776 214.20919,166.86026 205.20669,166.86026 L 32.706694,166.86026 z "
         style="opacity:0.047872309;fill-rule:evenodd;stroke-width:3.0000000pt"
         id="path1194" /><path
         d="M 32.706694,168.11026 C 24.396694,168.11026 17.706694,174.80026 17.706694,183.11026 C 17.706694,191.42026 24.396694,198.11026 32.706694,198.11026 L 205.20669,198.11026 C 213.51669,198.11026 220.20669,191.42026 220.20669,183.11026 C 220.20669,174.80026 213.51669,168.11026 205.20669,168.11026 L 32.706694,168.11026 z "
         style="opacity:0.047872309;fill-rule:evenodd;stroke-width:3.0000000pt"
         id="path1193" /><path
         d="M 32.707764,169.36026 C 25.090264,169.36026 18.957764,175.49276 18.957764,183.11026 C 18.957764,190.72776 25.090264,196.86026 32.707764,196.86026 L 205.20618,196.86026 C 212.82368,196.86026 218.95618,190.72776 218.95618,183.11026 C 218.95618,175.49276 212.82368,169.36026 205.20618,169.36026 L 32.707764,169.36026 z "
         style="opacity:0.047872309;fill-rule:evenodd;stroke-width:3.0000000pt"
         id="path1192" /><path
         d="M 32.706694,170.61026 C 25.781694,170.61026 20.206694,176.18526 20.206694,183.11026 C 20.206694,190.03526 25.781694,195.61026 32.706694,195.61026 L 205.20669,195.61026 C 212.13169,195.61026 217.70669,190.03526 217.70669,183.11026 C 217.70669,176.18526 212.13169,170.61026 205.20669,170.61026 L 32.706694,170.61026 z "
         style="opacity:0.047872309;fill-rule:evenodd;stroke-width:3.0000000pt"
         id="path1191" /><path
         d="M 32.706694,171.86026 C 26.474194,171.86026 21.456694,176.87776 21.456694,183.11026 C 21.456694,189.34276 26.474194,194.36026 32.706694,194.36026 L 205.20669,194.36026 C 211.43919,194.36026 216.45669,189.34276 216.45669,183.11026 C 216.45669,176.87776 211.43919,171.86026 205.20669,171.86026 L 32.706694,171.86026 z "
         style="opacity:0.047872309;fill-rule:evenodd;stroke-width:3.0000000pt"
         id="path1190" /><path
         d="M 32.706694,173.11026 C 27.166694,173.11026 22.706694,177.57026 22.706694,183.11026 C 22.706694,188.65026 27.166694,193.11026 32.706694,193.11026 L 205.20669,193.11026 C 210.74669,193.11026 215.20669,188.65026 215.20669,183.11026 C 215.20669,177.57026 210.74669,173.11026 205.20669,173.11026 L 32.706694,173.11026 z "
         style="opacity:0.047872309;fill-rule:evenodd;stroke-width:3.0000000pt"
         id="path1189" /></g><path
       d="M 5.4186638,5.4561100 C 4.9536872,5.4561100 4.6035534,5.6913368 4.6035534,6.1828330 L 4.6035534,39.203794 C 4.6035534,39.930940 5.0906584,40.415354 5.7526104,40.415354 L 43.489564,40.415354 C 44.155366,40.415354 44.419872,39.962588 44.419872,39.328794 L 44.419872,10.425912 C 44.419872,9.8829469 44.019585,9.5893540 43.520814,9.5893540 L 24.411490,9.5893540 C 24.074477,9.5893540 23.714810,9.3909280 23.517009,9.1180670 L 20.914778,5.9180580 C 20.696913,5.6175190 20.272703,5.4561250 19.901500,5.4561250 L 5.4186638,5.4561100 z "
       style="fill:url(#linearGradient253);fill-opacity:1.0;fill-rule:evenodd;stroke:#555753;stroke-width:1.0000000;stroke-miterlimit:4.0000000;stroke-opacity:1"
       id="path895"
       sodipodi:nodetypes="ccccccccccccc" /><g
       id="g891"
       transform="matrix(0.186703,0.000000,0.000000,0.186703,-21.10730,57.62299)" /><path
       style="fill:url(#linearGradient320);fill-opacity:1.0;fill-rule:evenodd;stroke:none;stroke-width:0.25000000pt;stroke-linecap:butt;stroke-linejoin:miter;stroke-opacity:1.0000000;opacity:1.0000000;color:#000000;marker:none;marker-start:none;marker-mid:none;marker-end:none;stroke-miterlimit:4.0000000;stroke-dasharray:none;stroke-dashoffset:0;visibility:visible;display:inline;overflow:visible"
       d="M 5.0625000,7.9062500 L 5.0625000,36.156250 L 6.0312500,31.781250 L 6.2500000,9.1562500 C 6.2500000,8.4058274 6.7614657,8.0312500 7.4869586,8.0312500 L 19.093750,8.0312500 C 20.655346,8.0312500 22.108598,11.218750 24.411417,11.218750 C 30.383036,11.218750 43.749813,11.306338 43.750000,11.218750 L 43.750000,10.187500 L 24.218750,10.062500 C 22.362615,10.050621 21.088324,6.9062500 19.656250,6.9062500 L 6.2838336,6.9062500 C 5.4685048,6.9062500 5.0625000,7.2604161 5.0625000,7.9062500 z "
       id="path315"
       sodipodi:nodetypes="ccccczscczzcc" /><path
       style="color:#000000;fill:url(#linearGradient4740);fill-opacity:1.0;fill-rule:evenodd;stroke:#555753;stroke-width:0.99999988;stroke-linecap:butt;stroke-linejoin:round;marker:none;marker-start:none;marker-mid:none;marker-end:none;stroke-miterlimit:4;stroke-dashoffset:0;stroke-opacity:1;visibility:visible;display:inline;overflow:visible"
       d="M 7.6864537,16.296282 L 15.619799,16.296282 C 16.361533,16.296282 16.987769,15.915471 17.306966,15.414278 C 17.443709,15.199569 18.574948,13.28855 18.66464,13.158052 C 18.963427,12.723328 19.437557,12.399136 20.006622,12.399136 L 43.048855,12.399136 C 43.851692,12.399136 44.498018,13.042925 44.498018,13.84261 L 44.498018,38.915459 C 44.498018,39.715143 43.851692,40.358932 43.048855,40.358932 L 6.1279084,40.358932 C 5.3250725,40.358932 4.6787461,39.715143 4.6787461,38.915459 L 4.6787461,19.481904 C 4.6787461,17.507539 5.8190623,16.296282 7.6864537,16.296282 z "
       id="rect337"
       sodipodi:nodetypes="czzszcccccccc"
       inkscape:r_cx="true"
       inkscape:r_cy="true" /><path
       style="fill:url(#linearGradient355);fill-opacity:1.0;fill-rule:evenodd;stroke:none;stroke-width:0.25000000pt;stroke-linecap:butt;stroke-linejoin:miter;stroke-miterlimit:4.0000000;stroke-opacity:1.0000000;opacity:1.0000000;color:#000000;marker:none;marker-start:none;marker-mid:none;marker-end:none;stroke-dasharray:none;stroke-dashoffset:0;visibility:visible;display:inline;overflow:visible"
       d="M 20.500000,13.750000 C 19.853581,13.750000 19.490960,14.031698 19.125000,14.500000 C 18.759040,14.968302 18.343502,15.671815 18.062500,16.218750 C 17.781498,16.765685 17.493409,17.272919 17.218750,17.625000 C 16.944091,17.977081 16.729167,18.125000 16.500000,18.125000 C 15.250000,18.125000 7.3428301,18.125000 6.8428301,18.125000 C 6.3844968,18.125000 6.0073599,18.355519 5.6865801,18.656250 C 5.3658003,18.956981 5.0928301,19.362500 5.0928301,19.875000 C 5.0928302,20.499998 5.0928301,39.250000 5.0928301,39.250000 L 6.0928301,39.250000 C 6.0928301,39.250000 6.0928302,20.500002 6.0928301,19.875000 C 6.0928301,19.762500 6.1948599,19.543019 6.3740801,19.375000 C 6.5533003,19.206981 6.8011635,19.125000 6.8428301,19.125000 C 7.3428301,19.125000 15.250000,19.125000 16.500000,19.125000 C 17.145833,19.125000 17.634731,18.718232 18.000000,18.250000 C 18.365269,17.781768 18.656559,17.203065 18.937500,16.656250 C 19.218441,16.109435 19.568667,15.477011 19.843750,15.125000 C 20.118833,14.772989 20.269189,14.750000 20.500000,14.750000 C 21.716667,14.750000 43.750000,14.875000 43.750000,14.875000 L 43.750000,13.875000 C 43.750000,13.875000 21.783333,13.750000 20.500000,13.750000 z "
       id="path349"
       sodipodi:nodetypes="ccccccccccccccccccccc" /><rect
       style="color:#000000;fill:#fffffd;fill-opacity:1.0000000;fill-rule:evenodd;stroke:none;stroke-width:0.25000000pt;stroke-linecap:butt;stroke-linejoin:miter;stroke-miterlimit:4.0000000;stroke-dashoffset:0.0000000;stroke-opacity:1.0000000;marker:none;marker-start:none;marker-mid:none;marker-end:none;visibility:visible;display:inline;overflow:visible"
       id="rect459"
       width="1.2500000"
       height="1.2500000"
       x="5.5290294"
       y="7.3598347"
       rx="1.4434735"
       ry="1.2500000" /><rect
       style="opacity:0.28571429;color:#000000;fill:none;fill-opacity:1;fill-rule:evenodd;stroke:url(#linearGradient2345);stroke-width:1.00000024;stroke-linecap:square;stroke-linejoin:round;marker:none;marker-start:none;marker-mid:none;marker-end:none;stroke-miterlimit:4;stroke-dasharray:none;stroke-dashoffset:0;stroke-opacity:1;visibility:visible;display:inline;overflow:visible"
       id="rect2337"
       width="37.95816"
       height="23.625"
       x="5.5381637"
       y="15.75"
       inkscape:r_cx="true"
       inkscape:r_cy="true"
       rx="0.43750021"
       ry="0.4375" /><g
       id="g1"
       transform="matrix(0.50889119,0,0,0.50889119,22.010072,27.411023)"><path
         fill="url(#m)"
         fill-rule="evenodd"
         d="m 33.5,27.46875 a 9.71875,5.40625 0 1 1 -19.4375,0 9.71875,5.40625 0 1 1 19.4375,0 z"
         opacity="0.2"
         transform="matrix(1.09249,0,0,1.09249,-1.918172,-7.5092124)"
         id="path25"
         style="fill:url(#m)" /><path
         fill="url(#n)"
         fill-rule="evenodd"
         d="m 33.5,27.46875 a 9.71875,5.40625 0 1 1 -19.4375,0 9.71875,5.40625 0 1 1 19.4375,0 z"
         opacity="0.2"
         transform="matrix(0.92605,0,0,0.73988,-13.022512,12.676301)"
         id="path26"
         style="fill:url(#n)" /><path
         fill="url(#o)"
         fill-rule="evenodd"
         d="m 33.5,27.46875 a 9.71875,5.40625 0 1 1 -19.4375,0 9.71875,5.40625 0 1 1 19.4375,0 z"
         opacity="0.2"
         transform="matrix(0.92605,0,0,0.73988,16.977488,12.676301)"
         id="path27"
         style="fill:url(#o)" /><path
         fill="url(#p)"
         fill-rule="evenodd"
         d="m 20,25.78125 a 5.5,11.78125 0 1 1 -11,0 5.5,11.78125 0 1 1 11,0 z"
         opacity="0.4"
         transform="matrix(2.11626,0,-0.24699,1.01857,-13.318001,-0.2599454)"
         id="path28"
         style="fill:url(#p)" /><path
         fill="url(#q)"
         fill-rule="evenodd"
         d="m 20,25.78125 a 5.5,11.78125 0 1 1 -11,0 5.5,11.78125 0 1 1 11,0 z"
         opacity="0.4"
         transform="matrix(-2.11626,0,0.24699,1.01857,61.318007,-0.2599454)"
         id="path29"
         style="fill:url(#q)" /><g
         stroke-dashoffset="0.7"
         id="g33"><path
           fill="url(#r)"
           fill-rule="evenodd"
           stroke="#2e3436"
           d="m 18.5,2.5 c -1.656,0 -3,1.344 -3,3 v 2 c 0,1.656 1.344,3 3,3 1.656,0 3,-1.344 3,-3 v -2 c 0,-1.656 -1.344,-3 -3,-3 z"
           transform="rotate(30,3.0714424,7.6337701)"
           id="path30"
           style="fill:url(#r)" /><path
           fill="none"
           stroke="url(#s)"
           d="m 18.5,3.5 c -1.112006,0 -2,0.887994 -2,2 v 2 c 0,1.112006 0.887994,2 2,2 1.112006,0 2,-0.887994 2,-2 v -2 c 0,-1.112006 -0.887994,-2 -2,-2 z"
           opacity="0.25"
           transform="rotate(30,3.0714424,7.6337701)"
           id="path31"
           style="stroke:url(#s)" /><path
           fill="url(#t)"
           fill-rule="evenodd"
           stroke="#2e3436"
           d="m 18.5,2.5 c -1.656,0 -3,1.344 -3,3 v 2 c 0,1.656 1.344,3 3,3 1.656,0 3,-1.344 3,-3 v -2 c 0,-1.656 -1.344,-3 -3,-3 z"
           transform="matrix(-0.86603,0.5,0.5,0.86603,43.77132,-0.5129899)"
           id="path32"
           style="fill:url(#t)" /><path
           fill="none"
           stroke="url(#u)"
           d="m 18.5,3.5 c -1.112006,0 -2,0.887994 -2,2 v 2 c 0,1.112006 0.887994,2 2,2 1.112006,0 2,-0.887994 2,-2 v -2 c 0,-1.112006 -0.887994,-2 -2,-2 z"
           opacity="0.25"
           transform="matrix(-0.86603,0.5,0.5,0.86603,43.77132,-0.5129899)"
           id="path33"
           style="stroke:url(#u)" /></g><path
         fill="url(#v)"
         fill-rule="evenodd"
         stroke="#2e3436"
         stroke-dashoffset="0.7"
         stroke-width="1"
         d="m 19.0625,12.5 c 1.382403,-10e-7 2.5,1.152119 2.5,2.59375 v 3.8125 c 0,0.151836 -0.0077,0.293287 -0.03125,0.4375 -0.380208,1.800979 -0.750398,3.604087 -1.125,5.40625 C 19.965248,25.779567 18.93511,26.5 17.75,26.5 H 7.4375 c -1.59275,0 -2.875,-1.304001 -2.875,-2.90625 V 21.375 c 0,-0.522396 0.13607,-1.017849 0.375,-1.4375 l 3,-4.28125 C 8.047735,15.447971 8.184782,15.261757 8.34375,15.09375 8.797291,14.614423 9.424583,14.3125 10.125,14.3125 h 3.15625 c 1.301904,10e-4 2.604351,-1.810814 3.90625,-1.8125 z"
         id="path34"
         style="fill:url(#v)" /><path
         fill="url(#w)"
         fill-rule="evenodd"
         d="m 15.5,73 c -0.530296,6.62e-4 -1.218655,0.406279 -1.96875,0.90625 C 12.781155,74.406221 11.970034,75.000731 11,75 H 7.375 C 6.0459402,75 5,76.036836 5,77.375 v 2.21875 C 5,80.931916 6.0524142,82 7.375,82 h 10.3125 c 1.322585,0 2.375,-1.068087 2.375,-2.40625 V 75.375 c 0,-1.338167 -1.04594,-2.375001 -2.375,-2.375 z"
         transform="translate(0,-56)"
         id="path35"
         style="fill:url(#linearGradient1)" /><path
         fill="none"
         stroke="url(#x)"
         stroke-dashoffset="0.7"
         stroke-width="1"
         d="M 7.375,18.497268 11,18.5 c 1.5,0.0011 3.000001,-1.998127 4.5,-2 l 2.1875,-0.0027 c 1.59275,0 2.875,1.289897 2.875,2.892147 v 4.218439 C 20.5625,25.210103 19.28025,26.5 17.6875,26.5 H 7.375 C 5.78225,26.5 4.5,25.210103 4.5,23.607854 v -2.218439 c 0,-1.60225 1.28225,-2.892147 2.875,-2.892147 z"
         id="path36"
         style="stroke:url(#x)" /><path
         fill="none"
         stroke="#ffffff"
         stroke-dashoffset="0.7"
         stroke-width="1"
         d="m 17.1875,13.5 c -0.187488,2.43e-4 -0.723721,0.265575 -1.375,0.71875 -0.651279,0.453175 -1.416145,1.094621 -2.53125,1.09375 H 10.125 c -0.4130425,0 -0.7812554,0.171515 -1.0625,0.46875 C 8.9598651,15.889721 8.8777145,16.001783 8.8125,16.125 8.793445,16.1574 8.772578,16.1887 8.75,16.21875 L 5.8125,20.4375 c -0.1522543,0.267416 -0.25,0.588753 -0.25,0.9375 v 2.21875 c 0,1.068728 0.8280569,1.90625 1.875,1.90625 H 17.75 c 0.76409,0 1.423788,-0.479414 1.71875,-1.125 0.358688,-1.726775 0.697426,-3.457053 1.0625,-5.1875 0.01235,-0.07555 0.03125,-0.163104 0.03125,-0.28125 v -3.8125 c 0,-0.92481 -0.67321,-1.593751 -1.5,-1.59375 z"
         opacity="0.17803"
         id="path37" /><path
         fill="url(#y)"
         fill-rule="evenodd"
         stroke="#2e3436"
         stroke-dashoffset="0.7"
         stroke-width="1"
         d="m 29,12.5 c -1.382403,-10e-7 -2.5,1.152119 -2.5,2.59375 v 3.8125 c 0,0.151836 0.0077,0.293287 0.03125,0.4375 0.380208,1.800979 0.750398,3.604087 1.125,5.40625 0.441002,1.029567 1.47114,1.75 2.65625,1.75 H 40.625 c 1.59275,0 2.875,-1.304001 2.875,-2.90625 V 21.375 c 0,-0.522396 -0.13607,-1.017849 -0.375,-1.4375 l -3,-4.28125 C 40.014765,15.447971 39.877718,15.261757 39.71875,15.09375 39.265209,14.614423 38.637917,14.3125 37.9375,14.3125 H 34.78125 C 33.479346,14.313517 32.176899,12.501686 30.875,12.5 Z"
         id="path38"
         style="fill:url(#y)" /><path
         fill="url(#z)"
         fill-rule="evenodd"
         d="m 15.5,73 c -0.530296,6.62e-4 -1.218655,0.406279 -1.96875,0.90625 C 12.781155,74.406221 11.970034,75.000731 11,75 H 7.375 C 6.0459402,75 5,76.036836 5,77.375 v 2.21875 C 5,80.931916 6.0524142,82 7.375,82 h 10.3125 c 1.322585,0 2.375,-1.068087 2.375,-2.40625 V 75.375 c 0,-1.338167 -1.04594,-2.375001 -2.375,-2.375 z"
         transform="matrix(-1,0,0,1,48.0625,-56)"
         id="path39"
         style="fill:url(#w)" /><path
         fill="none"
         stroke="url(#A)"
         stroke-dashoffset="0.7"
         stroke-width="1"
         d="M 40.6875,18.497268 37.0625,18.5 c -1.5,0.0011 -3.000001,-1.998127 -4.5,-2 L 30.375,16.4973 c -1.59275,0 -2.875,1.289897 -2.875,2.892147 v 4.218439 C 27.5,25.210103 28.78225,26.5 30.375,26.5 h 10.3125 c 1.59275,0 2.875,-1.289897 2.875,-2.892146 v -2.218439 c 0,-1.60225 -1.28225,-2.892147 -2.875,-2.892147 z"
         id="path40"
         style="stroke:url(#A)" /><path
         fill="none"
         stroke="#ffffff"
         stroke-dashoffset="0.7"
         stroke-width="1"
         d="m 30.875,13.5 c 0.187488,2.43e-4 0.723721,0.265575 1.375,0.71875 0.651279,0.453175 1.416145,1.094621 2.53125,1.09375 h 3.15625 c 0.413043,0 0.781255,0.171515 1.0625,0.46875 0.102635,0.108471 0.184785,0.220533 0.25,0.34375 0.01906,0.0324 0.03992,0.0637 0.0625,0.09375 L 42.25,20.4375 c 0.152254,0.267416 0.25,0.588753 0.25,0.9375 v 2.21875 C 42.5,24.662478 41.671943,25.5 40.625,25.5 H 30.3125 c -0.76409,0 -1.423788,-0.479414 -1.71875,-1.125 -0.358688,-1.726775 -0.697426,-3.457053 -1.0625,-5.1875 C 27.518898,19.111949 27.5,19.024396 27.5,18.90625 v -3.8125 C 27.5,14.16894 28.17321,13.499999 29,13.5 Z"
         opacity="0.17803"
         id="path41" /><path
         fill="url(#B)"
         fill-rule="evenodd"
         stroke="#2e3436"
         stroke-dashoffset="0.7"
         stroke-width="1"
         d="m 24.0625,11.5 c -1.383517,4e-6 -2.556946,0.802724 -3.125,1.96875 -0.281708,0.987655 -0.498613,1.991021 -0.6875,3 0.804848,0.710661 1.3125,1.752259 1.3125,2.90625 v 1.21875 c 0.686127,0.552767 1.551097,0.90625 2.5,0.90625 0.928604,1e-6 1.758386,-0.34341 2.4375,-0.875 v -1.25 c 0,-1.16948 0.520137,-2.22625 1.34375,-2.9375 -0.19922,-1.005707 -0.420432,-2.002489 -0.65625,-3 C 26.614573,12.285057 25.436064,11.5 24.0625,11.5 Z"
         id="path42"
         style="fill:url(#B)" /><path
         fill="url(#C)"
         fill-rule="evenodd"
         stroke="#2e3436"
         stroke-dashoffset="0.7"
         d="m 38.5,17.53125 c -3.859271,0 -7,3.10948 -7,6.96875 l 0.03125,2.5 c 0,4.13527 3.33348,7.46875 7.46875,7.46875 4.135271,0 7.5,-3.33348 7.5,-7.46875 0,-4.5 -2.999902,-9.46875 -8,-9.46875 z"
         id="path43"
         style="fill:url(#C)" /><path
         fill="#babdb6"
         fill-rule="evenodd"
         stroke="#babdb6"
         stroke-dashoffset="0.610358"
         stroke-width="1"
         d="m 45.517136,26.991431 a 6.5085681,6.5085681 0 1 1 -13.017136,0 6.5085681,6.5085681 0 1 1 13.017136,0 z"
         opacity="0.8"
         id="path44" /><path
         fill="url(#D)"
         fill-rule="evenodd"
         stroke="#2e3436"
         stroke-dashoffset="0.7"
         d="m 9.5,17.53125 c 3.859271,0 7,3.10948 7,6.96875 L 16.46875,27 c 0,4.13527 -3.33348,7.46875 -7.46875,7.46875 -4.135271,0 -7.5,-3.33348 -7.5,-7.46875 0,-4.5 2.999902,-9.46875 8,-9.46875 z"
         id="path45"
         style="fill:url(#D)" /><path
         fill="#babdb6"
         fill-rule="evenodd"
         stroke="#babdb6"
         stroke-dashoffset="0.610358"
         stroke-width="1"
         d="m 15.517136,26.991431 a 6.5085681,6.5085681 0 1 1 -13.0171357,0 6.5085681,6.5085681 0 1 1 13.0171357,0 z"
         opacity="0.8"
         id="path46" /><path
         fill="url(#E)"
         fill-rule="evenodd"
         d="m 24,70 c -1.39911,0 -2.620989,0.795226 -3.1875,1.96875 -0.0038,0.008 0.0038,0.02326 0,0.03125 -0.02054,0.109567 -0.04221,0.228153 -0.0625,0.34375 0.774698,0.788363 1.3125,1.845014 1.3125,3.03125 v 0.9375 c 0.259425,0.18444 0.507759,0.354665 0.8125,0.46875 0.14434,0.05404 0.334186,0.116013 0.53125,0.15625 C 23.645128,76.98628 23.855443,77 24.0625,77 c 0.207304,-0.0032 0.430578,-0.01628 0.65625,-0.0625 0.17817,-0.03645 0.347703,-0.09946 0.5,-0.15625 -0.07784,0.02847 -0.08366,0.01305 0.03125,-0.03125 0.16727,-0.06585 0.220832,-0.04138 0.125,0 -0.004,0.0017 0.01623,-0.02646 0.09375,-0.0625 0.144775,-0.06732 0.294594,-0.156957 0.4375,-0.25 0.119474,-0.07826 0.147103,-0.08858 0.0625,-0.03125 C 25.90922,76.44648 25.99189,76.38484 26,76.375 v -1 c 0,-1.171876 0.522622,-2.213137 1.28125,-3 C 26.810497,70.991968 25.546657,70 24,70 Z"
         transform="translate(0,-56)"
         id="path47"
         style="fill:url(#E)" /><path
         fill="none"
         stroke="url(#F)"
         stroke-dashoffset="0.7"
         stroke-width="1"
         d="m 20.480251,18.5 c 0,-2.208 1.576848,-4 3.519749,-4 1.942902,0 3.519749,1.792 3.519749,4"
         opacity="0.909091"
         id="path48"
         style="stroke:url(#F)" /><path
         fill="none"
         stroke="#2e3436"
         stroke-dashoffset="0.100002"
         stroke-width="1.00002"
         d="M 24.499999,18 A 0.4999995,0.4999995 0 1 1 23.5,18 a 0.4999995,0.4999995 0 1 1 0.999999,0 z"
         opacity="0.579545"
         id="path49" /><path
         fill="none"
         stroke="url(#G)"
         stroke-dashoffset="0.7"
         stroke-linejoin="round"
         d="m 24.0625,68.5 c -0.981674,3e-6 -1.770872,0.555575 -2.1875,1.375 -0.216457,0.775161 -0.404574,1.569468 -0.5625,2.375 0.736194,0.855251 1.25,1.916742 1.25,3.125 v 0.5625 c 0.459115,0.286054 0.937422,0.5625 1.5,0.5625 0.542854,10e-7 0.989565,-0.257923 1.4375,-0.53125 V 75.375 c 0,-1.223889 0.527166,-2.295358 1.28125,-3.15625 -0.159408,-0.779843 -0.317605,-1.564915 -0.5,-2.34375 C 26.27845,69.86289 26.25284,69.85586 26.25,69.84375 25.832588,69.040197 25.039733,68.5 24.0625,68.5 Z"
         opacity="0.155303"
         transform="translate(0,-56)"
         id="path50"
         style="stroke:url(#G)" /><g
         color="#000000"
         font-family="'Bitstream Vera Sans'"
         id="g55"><path
           fill="url(#H)"
           stroke="url(#I)"
           stroke-width="0.75428"
           d="m 19.875,22.5625 a 4.125,4.1875 0 1 1 -8.25,0 4.125,4.1875 0 1 1 8.25,0 z"
           overflow="visible"
           style="fill:url(#H);stroke:url(#linearGradient2);marker:none"
           transform="matrix(1.33447,0,0,1.31712,-12.022317,-2.7174615)"
           id="path51" /><path
           fill="#ffffff"
           fill-opacity="0.528662"
           d="m 16.5,22.6875 a 1.75,1.8125 0 1 1 -3.5,0 1.75,1.8125 0 1 1 3.5,0 z"
           opacity="0.607595"
           overflow="visible"
           style="marker:none"
           transform="matrix(1.33447,0,0,1.31712,-10.421625,-2.8310692)"
           id="path52" /><path
           fill="#ffffff"
           d="m 16.5,22.6875 a 1.75,1.8125 0 1 1 -3.5,0 1.75,1.8125 0 1 1 3.5,0 z"
           opacity="0.373418"
           overflow="visible"
           style="marker:none"
           transform="matrix(1.3315,0,0,1.31418,-12.145246,-4.2490243)"
           id="path53" /><path
           fill="url(#J)"
           d="m 16.5,22.6875 a 1.75,1.8125 0 1 1 -3.5,0 1.75,1.8125 0 1 1 3.5,0 z"
           overflow="visible"
           style="fill:url(#J);marker:none"
           transform="matrix(0.32843,0,0,0.32416,7.0463984,22.44113)"
           id="path54" /><path
           fill="#ffffff"
           d="m 16.5,22.6875 a 1.75,1.8125 0 1 1 -3.5,0 1.75,1.8125 0 1 1 3.5,0 z"
           overflow="visible"
           style="marker:none"
           transform="matrix(0.36295,0,0,0.35823,1.3577828,16.480893)"
           id="path55" /></g><path
         fill="#ffffff"
         d="m 9.25,24.65625 c -1.2891023,0 -2.3125001,1.088474 -2.3125,2.40625 0,0.304847 0.054216,0.575643 0.15625,0.84375 0.1327192,0.02404 0.2668138,0.03125 0.40625,0.03125 1.2862281,0 2.3124996,-1.060162 2.3125,-2.375 0,-0.295293 -0.028775,-0.582728 -0.125,-0.84375 C 9.5448256,24.69087 9.4005829,24.65625 9.25,24.65625 Z"
         color="#000000"
         font-family="'Bitstream Vera Sans'"
         opacity="0.7"
         overflow="visible"
         style="marker:none"
         id="path56" /><g
         color="#000000"
         font-family="'Bitstream Vera Sans'"
         id="g61"><path
           fill="url(#K)"
           stroke="url(#L)"
           stroke-width="0.75428"
           d="m 19.875,22.5625 a 4.125,4.1875 0 1 1 -8.25,0 4.125,4.1875 0 1 1 8.25,0 z"
           overflow="visible"
           style="fill:url(#K);stroke:url(#I);marker:none"
           transform="matrix(1.33447,0,0,1.31712,17.977687,-2.7174615)"
           id="path57" /><path
           fill="#ffffff"
           fill-opacity="0.528662"
           d="m 16.5,22.6875 a 1.75,1.8125 0 1 1 -3.5,0 1.75,1.8125 0 1 1 3.5,0 z"
           opacity="0.607595"
           overflow="visible"
           style="marker:none"
           transform="matrix(1.33447,0,0,1.31712,19.578379,-2.8310692)"
           id="path58" /><path
           fill="#ffffff"
           d="m 16.5,22.6875 a 1.75,1.8125 0 1 1 -3.5,0 1.75,1.8125 0 1 1 3.5,0 z"
           opacity="0.373418"
           overflow="visible"
           style="marker:none"
           transform="matrix(1.3315,0,0,1.31418,17.854758,-4.2490243)"
           id="path59" /><path
           fill="url(#M)"
           d="m 16.5,22.6875 a 1.75,1.8125 0 1 1 -3.5,0 1.75,1.8125 0 1 1 3.5,0 z"
           overflow="visible"
           style="fill:url(#M);marker:none"
           transform="matrix(0.32843,0,0,0.32416,37.046402,22.44113)"
           id="path60" /><path
           fill="#ffffff"
           d="m 16.5,22.6875 a 1.75,1.8125 0 1 1 -3.5,0 1.75,1.8125 0 1 1 3.5,0 z"
           overflow="visible"
           style="marker:none"
           transform="matrix(0.36295,0,0,0.35823,31.357787,16.480893)"
           id="path61" /></g><path
         fill="#ffffff"
         d="m 39.25,24.65625 c -1.289102,0 -2.3125,1.088474 -2.3125,2.40625 0,0.304847 0.05422,0.575643 0.15625,0.84375 0.132719,0.02404 0.266814,0.03125 0.40625,0.03125 1.286228,0 2.3125,-1.060162 2.3125,-2.375 0,-0.295293 -0.02878,-0.582728 -0.125,-0.84375 -0.142674,-0.02788 -0.286917,-0.0625 -0.4375,-0.0625 z"
         color="#000000"
         font-family="'Bitstream Vera Sans'"
         opacity="0.7"
         overflow="visible"
         style="marker:none"
         id="path62" /></g></g></svg>
