<?xml version="1.0" encoding="UTF-8" standalone="no"?>
<svg xmlns="http://www.w3.org/2000/svg" xmlns:xlink="http://www.w3.org/1999/xlink" width="48" height="48" version="1.0">
  <defs>
    <linearGradient id="k">
      <stop offset="0" stop-color="#fcaf3e"/>
      <stop offset="1" stop-color="#fcaf3e" stop-opacity="0"/>
    </linearGradient>
    <linearGradient id="j">
      <stop offset="0" stop-color="#ce5c00"/>
      <stop offset="1" stop-color="#ce5c00" stop-opacity="0"/>
    </linearGradient>
    <linearGradient id="i">
      <stop offset="0" stop-color="#fcaf3e"/>
      <stop offset="1" stop-color="#fcaf3e" stop-opacity="0"/>
    </linearGradient>
    <linearGradient id="l">
      <stop offset="0"/>
      <stop offset="1" stop-opacity="0"/>
    </linearGradient>
    <linearGradient id="m">
      <stop offset="0"/>
      <stop offset="1" stop-opacity="0"/>
    </linearGradient>
    <linearGradient id="n">
      <stop offset="0" stop-color="#f9f9f9"/>
      <stop offset="1" stop-color="#f9f9f9" stop-opacity="0"/>
    </linearGradient>
    <linearGradient id="e">
      <stop offset="0" stop-color="#fff"/>
      <stop offset="1" stop-color="#fff" stop-opacity="0"/>
    </linearGradient>
    <linearGradient id="o">
      <stop offset="0" stop-color="#fff"/>
      <stop offset="1" stop-color="#fff" stop-opacity="0"/>
    </linearGradient>
    <linearGradient id="c">
      <stop offset="0" stop-color="#555753"/>
      <stop offset="1" stop-color="#888a85"/>
    </linearGradient>
    <linearGradient id="d">
      <stop offset="0" stop-color="#888a85" stop-opacity="0"/>
      <stop offset="1" stop-color="#babdb6"/>
    </linearGradient>
    <linearGradient id="b">
      <stop offset="0" stop-color="#888a85"/>
      <stop offset=".34042552" stop-color="#babdb6"/>
      <stop offset="1" stop-color="#555753"/>
    </linearGradient>
    <linearGradient id="a">
      <stop offset="0" stop-color="#888a85"/>
      <stop offset="1" stop-color="#555753"/>
    </linearGradient>
    <linearGradient id="p">
      <stop offset="0" stop-color="#7a7a7a"/>
      <stop offset="1"/>
    </linearGradient>
    <linearGradient id="f">
      <stop offset="0" stop-color="#010101"/>
      <stop offset="1" stop-color="#959595"/>
    </linearGradient>
    <linearGradient id="q">
      <stop offset="0" stop-color="#fff"/>
      <stop offset="1" stop-color="#fff" stop-opacity="0"/>
    </linearGradient>
    <linearGradient id="g">
      <stop offset="0" stop-color="#fff"/>
      <stop offset="1" stop-color="#fff" stop-opacity="0"/>
    </linearGradient>
    <linearGradient id="h">
      <stop offset="0" stop-color="#fff"/>
      <stop offset="1" stop-color="#fff" stop-opacity="0"/>
    </linearGradient>
    <linearGradient xlink:href="#a" id="y" x1="15.910872" x2="17.822588" y1="5.5152001" y2="4.4475551" gradientUnits="userSpaceOnUse"/>
    <linearGradient xlink:href="#a" id="A" x1="15.910872" x2="17.822588" y1="5.5152001" y2="4.4475551" gradientTransform="scale(-1 1) rotate(60 -1e-8 -25.54294019)" gradientUnits="userSpaceOnUse"/>
    <linearGradient xlink:href="#b" id="C" x1="14.937631" x2="19.445436" y1="68.506096" y2="70.892586" gradientTransform="translate(0 -56)" gradientUnits="userSpaceOnUse"/>
    <linearGradient xlink:href="#c" id="D" x1="15.3125" x2="15.3125" y1="76.232018" y2="83.3125" gradientUnits="userSpaceOnUse"/>
    <linearGradient xlink:href="#d" id="E" x1="14.507583" x2="14.287912" y1="75.603554" y2="73.9664" gradientTransform="translate(0 -56)" gradientUnits="userSpaceOnUse"/>
    <linearGradient xlink:href="#b" id="F" x1="20.240931" x2="15.423766" y1="70.804199" y2="70.229668" gradientTransform="matrix(-1 0 0 1 48.0625 -56)" gradientUnits="userSpaceOnUse"/>
    <linearGradient xlink:href="#c" id="G" x1="15.3125" x2="15.3125" y1="76.232018" y2="83.3125" gradientUnits="userSpaceOnUse"/>
    <linearGradient xlink:href="#d" id="H" x1="14.507583" x2="14.287912" y1="75.603554" y2="73.9664" gradientTransform="matrix(-1 0 0 1 48.0625 -56)" gradientUnits="userSpaceOnUse"/>
    <linearGradient xlink:href="#b" id="I" x1="21.812019" x2="26" y1="16.46875" y2="16.46875" gradientTransform="translate(0 -3)" gradientUnits="userSpaceOnUse"/>
    <linearGradient xlink:href="#b" id="J" x1="32.432842" x2="42.548504" y1="116.58936" y2="116.58936" gradientTransform="translate(0 -96)" gradientUnits="userSpaceOnUse"/>
    <linearGradient xlink:href="#b" id="K" x1="32.432842" x2="42.548504" y1="116.58936" y2="116.58936" gradientTransform="translate(-30 -96)" gradientUnits="userSpaceOnUse"/>
    <linearGradient xlink:href="#c" id="L" x1="22.15625" x2="22.15625" y1="69.6875" y2="80.97287" gradientUnits="userSpaceOnUse"/>
    <linearGradient xlink:href="#e" id="N" x1="23.909048" x2="21.058523" y1="76.483147" y2="67.290756" gradientUnits="userSpaceOnUse"/>
    <linearGradient xlink:href="#f" id="P" x1="12.835793" x2="18.422049" y1="18.849401" y2="27.072878" gradientUnits="userSpaceOnUse"/>
    <linearGradient xlink:href="#f" id="S" x1="12.835793" x2="18.422049" y1="18.849401" y2="27.072878" gradientUnits="userSpaceOnUse"/>
    <linearGradient xlink:href="#g" id="V" x1="17.819366" x2="19.663483" y1="29.184433" y2="36.954018" gradientTransform="rotate(45 39.02662802 27.24262309)" gradientUnits="userSpaceOnUse"/>
    <linearGradient xlink:href="#h" id="W" x1="18.3125" x2="22.3125" y1="9.4375" y2="11.625" gradientTransform="scale(-1 1) rotate(-45 -.40654345 77.80208474)" gradientUnits="userSpaceOnUse"/>
    <linearGradient xlink:href="#i" id="U" x1="37.625" x2="37.75" y1="18.875" y2="16.25" gradientUnits="userSpaceOnUse"/>
    <linearGradient xlink:href="#j" id="s" x1="15" x2="13.25" y1="14.875" y2="22" gradientUnits="userSpaceOnUse"/>
    <linearGradient xlink:href="#k" id="r" x1="18.25" x2="15.5" y1="13.59064" y2="22" gradientUnits="userSpaceOnUse"/>
    <radialGradient xlink:href="#l" id="t" cx="23.78125" cy="27.46875" r="9.71875" fx="23.78125" fy="27.46875" gradientTransform="matrix(1 0 0 .55627 0 12.188706)" gradientUnits="userSpaceOnUse"/>
    <radialGradient xlink:href="#l" id="u" cx="23.78125" cy="27.46875" r="9.71875" fx="23.78125" fy="27.46875" gradientTransform="matrix(1 0 0 .55627 0 12.188706)" gradientUnits="userSpaceOnUse"/>
    <radialGradient xlink:href="#l" id="v" cx="23.78125" cy="27.46875" r="9.71875" fx="23.78125" fy="27.46875" gradientTransform="matrix(1 0 0 .55627 0 12.188706)" gradientUnits="userSpaceOnUse"/>
    <radialGradient xlink:href="#m" id="w" cx="14.5" cy="25.78125" r="5.5" fx="14.5" fy="25.78125" gradientTransform="matrix(1 0 0 2.14205 0 -29.443359)" gradientUnits="userSpaceOnUse"/>
    <radialGradient xlink:href="#m" id="x" cx="14.5" cy="25.78125" r="5.5" fx="14.5" fy="25.78125" gradientTransform="matrix(1 0 0 2.14205 0 -29.443359)" gradientUnits="userSpaceOnUse"/>
    <radialGradient xlink:href="#n" id="z" cx="17.34375" cy="5.0044641" r="2.5" fx="17.34375" fy="5.0044641" gradientTransform="matrix(2.03765 0 0 2.85271 -17.996801 -9.8700587)" gradientUnits="userSpaceOnUse"/>
    <radialGradient xlink:href="#n" id="B" cx="17.34375" cy="5.0044641" r="2.5" fx="17.34375" fy="5.0044641" gradientTransform="matrix(-1.01883 1.76466 2.47052 1.42636 22.571514 -33.292186)" gradientUnits="userSpaceOnUse"/>
    <radialGradient xlink:href="#o" id="M" cx="22.957685" cy="22.990465" r="3.9375" fx="22.957685" fy="22.990465" gradientTransform="matrix(.88153 0 0 .71013 2.9647845 -1.513614)" gradientUnits="userSpaceOnUse"/>
    <radialGradient xlink:href="#p" id="O" cx="16.875" cy="23.672499" r="4.625" fx="16.875" fy="23.672499" gradientTransform="matrix(1 0 0 1.01351 0 -.304899)" gradientUnits="userSpaceOnUse"/>
    <radialGradient xlink:href="#q" id="Q" cx="14.75" cy="22.6875" r="1.75" fx="14.75" fy="22.6875" gradientTransform="matrix(1 0 0 1.03571 0 -.810268)" gradientUnits="userSpaceOnUse"/>
    <radialGradient xlink:href="#p" id="R" cx="16.875" cy="23.672499" r="4.625" fx="16.875" fy="23.672499" gradientTransform="matrix(1 0 0 1.01351 0 -.304899)" gradientUnits="userSpaceOnUse"/>
    <radialGradient xlink:href="#q" id="T" cx="14.75" cy="22.6875" r="1.75" fx="14.75" fy="22.6875" gradientTransform="matrix(1 0 0 1.03571 0 -.810268)" gradientUnits="userSpaceOnUse"/>
  </defs>
  <path fill="url(#r)" stroke="url(#s)" stroke-width=".99999887" d="M13.392155 22.327526C7.954579 3.5239586 28.94502-3.8166903 40.491666 7.9524737l5.70387-5.7038703 1.427968 21.3092336-21.79374-.943462 6.172358-6.172358c-6.943402-7.5305325-15.562496-5.285378-13.531036 5.367734.581417 3.049003-3.80559 4.921091-5.078931.517775z" color="#000" display="block" overflow="visible" style="marker:none"/>
  <g transform="translate(0 10)">
    <path fill="url(#t)" fill-rule="evenodd" d="M33.5 27.46875a9.71875 5.40625 0 1 1-19.4375 0 9.71875 5.40625 0 1 1 19.4375 0z" opacity=".2" transform="translate(-1.918172 -7.5092124) scale(1.09249)"/>
    <path fill="url(#u)" fill-rule="evenodd" d="M33.5 27.46875a9.71875 5.40625 0 1 1-19.4375 0 9.71875 5.40625 0 1 1 19.4375 0z" opacity=".2" transform="matrix(.92605 0 0 .73988 -13.022512 12.676301)"/>
    <path fill="url(#v)" fill-rule="evenodd" d="M33.5 27.46875a9.71875 5.40625 0 1 1-19.4375 0 9.71875 5.40625 0 1 1 19.4375 0z" opacity=".2" transform="matrix(.92605 0 0 .73988 16.977488 12.676301)"/>
    <path fill="url(#w)" fill-rule="evenodd" d="M20 25.78125a5.5 11.78125 0 1 1-11 0 5.5 11.78125 0 1 1 11 0z" opacity=".4" transform="matrix(2.11626 0 -.24699 1.01857 -13.318001 -.2599454)"/>
    <path fill="url(#x)" fill-rule="evenodd" d="M20 25.78125a5.5 11.78125 0 1 1-11 0 5.5 11.78125 0 1 1 11 0z" opacity=".4" transform="matrix(-2.11626 0 .24699 1.01857 61.318007 -.2599454)"/>
    <g stroke-dashoffset=".69999992" transform="translate(0 -3)">
      <g transform="rotate(30 -2.5266338 9.1337701)">
        <path fill="url(#y)" fill-rule="evenodd" stroke="#2e3436" d="M18.5 2.5c-1.656 0-3 1.344-3 3v2c0 1.656 1.344 3 3 3s3-1.344 3-3v-2c0-1.656-1.344-3-3-3z"/>
        <path fill="none" stroke="url(#z)" d="M18.5 3.5c-1.112006 0-2 .887994-2 2v2c0 1.112006.887994 2 2 2s2-.887994 2-2v-2c0-1.112006-.887994-2-2-2z" opacity=".25"/>
      </g>
      <g transform="scale(-1 1) rotate(30 -26.5264841 -80.43488998)">
        <path fill="url(#A)" fill-rule="evenodd" stroke="#2e3436" d="M18.5 2.5c-1.656 0-3 1.344-3 3v2c0 1.656 1.344 3 3 3s3-1.344 3-3v-2c0-1.656-1.344-3-3-3z"/>
        <path fill="none" stroke="url(#B)" d="M18.5 3.5c-1.112006 0-2 .887994-2 2v2c0 1.112006.887994 2 2 2s2-.887994 2-2v-2c0-1.112006-.887994-2-2-2z" opacity=".25"/>
      </g>
    </g>
    <path fill="url(#C)" fill-rule="evenodd" stroke="#2e3436" stroke-dashoffset=".69999992" stroke-width=".99999988" d="M19.0625 12.5c1.382403-.000001 2.5 1.152119 2.5 2.59375v3.8125c0 .151836-.007673.293287-.03125.4375-.380208 1.800979-.750398 3.604087-1.125 5.40625-.441002 1.029567-1.47114 1.75-2.65625 1.75H7.4375c-1.59275 0-2.875-1.304001-2.875-2.90625V21.375c0-.522396.13607-1.017849.375-1.4375l3-4.28125c.110235-.208279.247282-.394493.40625-.5625.453541-.479327 1.080833-.78125 1.78125-.78125h3.15625c1.301904.001017 2.604351-1.810814 3.90625-1.8125h1.875z"/>
    <path fill="url(#D)" fill-rule="evenodd" d="M15.5 73c-.530296.000662-1.218655.406279-1.96875.90625S11.970034 75.000731 11 75H7.375C6.0459402 75 5 76.036836 5 77.375v2.21875C5 80.931916 6.0524142 82 7.375 82h10.3125c1.322585 0 2.375-1.068087 2.375-2.40625V75.375c0-1.338167-1.04594-2.375001-2.375-2.375H15.5z" transform="translate(0 -56)"/>
    <path fill="none" stroke="url(#E)" stroke-dashoffset=".69999992" stroke-width=".99999988" d="M7.375 18.497268 11 18.5c1.5.00113 3.000001-1.998127 4.5-2l2.1875-.002732c1.59275 0 2.875 1.289897 2.875 2.892147v4.218439c0 1.602249-1.28225 2.892146-2.875 2.892146H7.375c-1.59275 0-2.875-1.289897-2.875-2.892146v-2.218439c0-1.60225 1.28225-2.892147 2.875-2.892147z"/>
    <path fill="none" stroke="#fff" stroke-dashoffset=".69999992" stroke-width=".99999988" d="M17.1875 13.5c-.187488.000243-.723721.265575-1.375.71875s-1.416145 1.094621-2.53125 1.09375H10.125c-.4130425 0-.7812554.171515-1.0625.46875-.1026349.108471-.1847855.220533-.25.34375-.019055.0324-.0399215.063699-.0625.09375L5.8125 20.4375c-.1522543.267416-.25.588753-.25.9375v2.21875c0 1.068728.8280569 1.90625 1.875 1.90625H17.75c.76409 0 1.423788-.479414 1.71875-1.125.358688-1.726775.697426-3.457053 1.0625-5.1875.012352-.075551.03125-.163104.03125-.28125v-3.8125c0-.92481-.67321-1.593751-1.5-1.59375h-1.875z" opacity=".17803028"/>
    <path fill="url(#F)" fill-rule="evenodd" stroke="#2e3436" stroke-dashoffset=".69999992" stroke-width=".99999988" d="M29 12.5c-1.382403-.000001-2.5 1.152119-2.5 2.59375v3.8125c0 .151836.007673.293287.03125.4375.380208 1.800979.750398 3.604087 1.125 5.40625.441002 1.029567 1.47114 1.75 2.65625 1.75H40.625c1.59275 0 2.875-1.304001 2.875-2.90625V21.375c0-.522396-.13607-1.017849-.375-1.4375l-3-4.28125c-.110235-.208279-.247282-.394493-.40625-.5625-.453541-.479327-1.080833-.78125-1.78125-.78125h-3.15625c-1.301904.001017-2.604351-1.810814-3.90625-1.8125H29z"/>
    <path fill="url(#G)" fill-rule="evenodd" d="M15.5 73c-.530296.000662-1.218655.406279-1.96875.90625S11.970034 75.000731 11 75H7.375C6.0459402 75 5 76.036836 5 77.375v2.21875C5 80.931916 6.0524142 82 7.375 82h10.3125c1.322585 0 2.375-1.068087 2.375-2.40625V75.375c0-1.338167-1.04594-2.375001-2.375-2.375H15.5z" transform="matrix(-1 0 0 1 48.0625 -56)"/>
    <path fill="none" stroke="url(#H)" stroke-dashoffset=".69999992" stroke-width=".99999988" d="M40.6875 18.497268 37.0625 18.5c-1.5.00113-3.000001-1.998127-4.5-2l-2.1875-.002732c-1.59275 0-2.875 1.289897-2.875 2.892147v4.218439C27.5 25.210103 28.78225 26.5 30.375 26.5h10.3125c1.59275 0 2.875-1.289897 2.875-2.892146v-2.218439c0-1.60225-1.28225-2.892147-2.875-2.892147z"/>
    <path fill="none" stroke="#fff" stroke-dashoffset=".69999992" stroke-width=".99999988" d="M30.875 13.5c.187488.000243.723721.265575 1.375.71875s1.416145 1.094621 2.53125 1.09375h3.15625c.4130425 0 .7812554.171515 1.0625.46875.1026349.108471.1847855.220533.25.34375.019055.0324.0399215.063699.0625.09375L42.25 20.4375c.1522543.267416.25.588753.25.9375v2.21875c0 1.068728-.8280569 1.90625-1.875 1.90625H30.3125c-.76409 0-1.423788-.479414-1.71875-1.125-.358688-1.726775-.697426-3.457053-1.0625-5.1875-.012352-.075551-.03125-.163104-.03125-.28125v-3.8125c0-.92481.67321-1.593751 1.5-1.59375h1.875z" opacity=".17803028"/>
    <path fill="url(#I)" fill-rule="evenodd" stroke="#2e3436" stroke-dashoffset=".69999992" stroke-width=".99999988" d="M24.0625 11.5c-1.383517.000004-2.556946.802724-3.125 1.96875-.281708.987655-.498613 1.991021-.6875 3 .804848.710661 1.3125 1.752259 1.3125 2.90625v1.21875c.686127.552767 1.551097.90625 2.5.90625.928604.000001 1.758386-.34341 2.4375-.875v-1.25c0-1.16948.520137-2.22625 1.34375-2.9375-.19922-1.005707-.420432-2.002489-.65625-3-.572927-1.152443-1.751436-1.9375-3.125-1.9375z"/>
    <path fill="url(#J)" fill-rule="evenodd" stroke="#2e3436" stroke-dashoffset=".69999992" d="M38.5 17.53125c-3.859271 0-7 3.10948-7 6.96875l.03125 2.5c0 4.13527 3.33348 7.46875 7.46875 7.46875 4.135271 0 7.5-3.33348 7.5-7.46875 0-4.5-2.999902-9.46875-8-9.46875z"/>
    <path fill="#babdb6" fill-rule="evenodd" stroke="#babdb6" stroke-dashoffset=".61035793" stroke-width=".99999987" d="M45.5171364 26.99143063a6.50856806 6.50856806 0 1 1-13.01713613 0 6.50856806 6.50856806 0 1 1 13.01713613 0z" opacity=".8"/>
    <path fill="url(#K)" fill-rule="evenodd" stroke="#2e3436" stroke-dashoffset=".69999992" d="M9.5 17.53125c3.859271 0 7 3.10948 7 6.96875l-.03125 2.5c0 4.13527-3.33348 7.46875-7.46875 7.46875-4.135271 0-7.5-3.33348-7.5-7.46875 0-4.5 2.999902-9.46875 8-9.46875z"/>
    <path fill="#babdb6" fill-rule="evenodd" stroke="#babdb6" stroke-dashoffset=".61035793" stroke-width=".99999987" d="M15.5171364 26.99143063a6.50856806 6.50856806 0 1 1-13.01713613 0 6.50856806 6.50856806 0 1 1 13.01713613 0z" opacity=".8"/>
    <path fill="url(#L)" fill-rule="evenodd" d="M24 70c-1.39911 0-2.620989.795226-3.1875 1.96875-.003842.007958.003783.023258 0 .03125-.020544.109567-.042214.228153-.0625.34375.774698.788363 1.3125 1.845014 1.3125 3.03125v.9375c.259425.18444.507759.354665.8125.46875.14434.054036.334186.116013.53125.15625.238878.048775.449193.0625.65625.0625.207304-.003193.430578-.016282.65625-.0625.17817-.036445.347703-.099457.5-.15625-.077845.028472-.083663.013051.03125-.03125.16727-.065846.220832-.041382.125 0-.004016.001699.016231-.026457.09375-.0625.144775-.067316.294594-.156957.4375-.25.119474-.078258.147103-.088575.0625-.03125-.059527.040228.023138-.02141.03125-.03125v-1c0-1.171876.522622-2.213137 1.28125-3C26.810497 70.991968 25.546657 70 24 70z" transform="translate(0 -56)"/>
    <path fill="none" stroke="url(#M)" stroke-dashoffset=".69999992" stroke-width=".99999994" d="M20.480251 18.5c0-2.208 1.576848-4 3.519749-4 1.942902 0 3.519749 1.792 3.519749 4" opacity=".90909095"/>
    <path fill="none" stroke="#2e3436" stroke-dashoffset=".10000199" stroke-width="1.00002027" d="M24.499999 18.0000005a.4999995.4999995 0 1 1-.999999 0 .4999995.4999995 0 1 1 .999999 0z" opacity=".57954544"/>
    <path fill="none" stroke="url(#N)" stroke-dashoffset=".69999992" stroke-linejoin="round" d="M24.0625 68.5c-.981674.000003-1.770872.555575-2.1875 1.375-.216457.775161-.404574 1.569468-.5625 2.375.736194.855251 1.25 1.916742 1.25 3.125v.5625c.459115.286054.937422.5625 1.5.5625.542854.000001.989565-.257923 1.4375-.53125V75.375c0-1.223889.527166-2.295358 1.28125-3.15625-.159408-.779843-.317605-1.564915-.5-2.34375-.002836-.012109-.028409-.01914-.03125-.03125-.417412-.803553-1.210267-1.34375-2.1875-1.34375z" opacity=".15530306" transform="translate(0 -56)"/>
    <g color="#000" font-family="Bitstream Vera Sans" transform="matrix(.79576 0 0 .7854 78.571696 -29.229826)">
      <path fill="url(#O)" stroke="url(#P)" stroke-width=".75428027" d="M19.875 22.5625a4.125 4.1875 0 1 1-8.25 0 4.125 4.1875 0 1 1 8.25 0z" overflow="visible" style="marker:none" transform="translate(-113.8461 33.756151) scale(1.67698)"/>
      <path fill="#fff" fill-opacity=".52866247" d="M16.5 22.6875a1.75 1.8125 0 1 1-3.5 0 1.75 1.8125 0 1 1 3.5 0z" opacity=".60759499" overflow="visible" style="marker:none" transform="translate(-111.83457 33.611503) scale(1.67698)"/>
      <path fill="#fff" d="M16.5 22.6875a1.75 1.8125 0 1 1-3.5 0 1.75 1.8125 0 1 1 3.5 0z" opacity=".37341769" overflow="visible" style="marker:none" transform="translate(-114.00058 31.80613) scale(1.67325)"/>
      <path fill="url(#Q)" d="M16.5 22.6875a1.75 1.8125 0 1 1-3.5 0 1.75 1.8125 0 1 1 3.5 0z" overflow="visible" style="marker:none" transform="translate(-89.88316 65.788647) scale(.41273)"/>
      <path fill="#fff" d="M16.5 22.6875a1.75 1.8125 0 1 1-3.5 0 1.75 1.8125 0 1 1 3.5 0z" overflow="visible" style="marker:none" transform="translate(-97.03183 58.199937) scale(.45611)"/>
    </g>
    <path fill="#fff" d="M9.25 24.65625c-1.2891023 0-2.3125001 1.088474-2.3125 2.40625 0 .304847.0542161.575643.15625.84375.1327192.024038.2668138.03125.40625.03125 1.2862281 0 2.3124996-1.060162 2.3125-2.375 0-.295293-.028775-.582728-.125-.84375-.1426744-.027878-.2869171-.0625-.4375-.0625z" color="#000" font-family="Bitstream Vera Sans" opacity=".7" overflow="visible" style="marker:none"/>
    <g color="#000" font-family="Bitstream Vera Sans" transform="matrix(.79576 0 0 .7854 108.5717 -29.229826)">
      <path fill="url(#R)" stroke="url(#S)" stroke-width=".75428027" d="M19.875 22.5625a4.125 4.1875 0 1 1-8.25 0 4.125 4.1875 0 1 1 8.25 0z" overflow="visible" style="marker:none" transform="translate(-113.8461 33.756151) scale(1.67698)"/>
      <path fill="#fff" fill-opacity=".52866247" d="M16.5 22.6875a1.75 1.8125 0 1 1-3.5 0 1.75 1.8125 0 1 1 3.5 0z" opacity=".60759499" overflow="visible" style="marker:none" transform="translate(-111.83457 33.611503) scale(1.67698)"/>
      <path fill="#fff" d="M16.5 22.6875a1.75 1.8125 0 1 1-3.5 0 1.75 1.8125 0 1 1 3.5 0z" opacity=".37341769" overflow="visible" style="marker:none" transform="translate(-114.00058 31.80613) scale(1.67325)"/>
      <path fill="url(#T)" d="M16.5 22.6875a1.75 1.8125 0 1 1-3.5 0 1.75 1.8125 0 1 1 3.5 0z" overflow="visible" style="marker:none" transform="translate(-89.88316 65.788647) scale(.41273)"/>
      <path fill="#fff" d="M16.5 22.6875a1.75 1.8125 0 1 1-3.5 0 1.75 1.8125 0 1 1 3.5 0z" overflow="visible" style="marker:none" transform="translate(-97.03183 58.199937) scale(.45611)"/>
    </g>
    <path fill="#fff" d="M39.25 24.65625c-1.289102 0-2.3125 1.088474-2.3125 2.40625 0 .304847.054216.575643.15625.84375.132719.024038.266814.03125.40625.03125 1.286228 0 2.3125-1.060162 2.3125-2.375 0-.295293-.028775-.582728-.125-.84375-.142674-.027878-.286917-.0625-.4375-.0625z" color="#000" font-family="Bitstream Vera Sans" opacity=".7" overflow="visible" style="marker:none"/>
  </g>
  <path fill="url(#U)" stroke="#ce5c00" stroke-width=".99999887" d="m40.491666 7.9524737 5.70387-5.7038703 1.427968 21.3092336-21.79374-.943462 6.172358-6.172358" color="#000" display="block" overflow="visible" style="marker:none"/>
  <path fill="none" stroke="url(#V)" stroke-width=".99999893" d="M45.366544 4.5132046 41.212292 8.667457c-.393991.3820647-1.020223.3820647-1.414214 0-5.483695-5.5893717-13.197301-6.576765-18.804621-4.043767-5.60732 2.5329981-9.24116 8.424084-6.629127 17.456699.269698.932636.671819 1.40117 1.016466 1.635185.344648.234014.682126.262012 1.016466.176776.668681-.170473 1.278145-.853625 1.082758-1.878252-.533891-2.799756-.394507-5.133559.331456-6.960583.725963-1.827023 2.073599-3.119868 3.734408-3.690213 3.321617-1.140689 7.555192.440814 11.203223 4.39732.361849.396899.352166 1.006902-.022097 1.392117 0 0-2.78183 2.781829-4.552 4.552l18.384777.795495-1.193243-17.9870294z" color="#000" display="block" opacity=".85" overflow="visible" style="marker:none"/>
  <path fill="url(#W)" fill-rule="evenodd" d="M46.996348 22.997374C36.092697 7.6672233 25.044527 4.0854071 16.427501 7.1868843c8.831133-9.0485891 20.706415-2.3733885 24.057471 1.5254393l5.296839-5.3189357 1.214537 19.6039861z" opacity=".55"/>
</svg>