<?xml version="1.0" encoding="UTF-8" standalone="no"?>
<svg xmlns="http://www.w3.org/2000/svg" xmlns:xlink="http://www.w3.org/1999/xlink" width="48" height="48" version="1.0">
  <defs>
    <linearGradient id="d">
      <stop offset="0" stop-color="#fff"/>
      <stop offset="1" stop-color="#fff" stop-opacity=".56273764"/>
    </linearGradient>
    <linearGradient id="a">
      <stop offset="0" stop-opacity="0"/>
      <stop offset=".5"/>
      <stop offset="1" stop-opacity="0"/>
    </linearGradient>
    <linearGradient xlink:href="#a" id="m" x1="25.058096" x2="25.058096" y1="47.027729" y2="39.999443" gradientUnits="userSpaceOnUse"/>
    <linearGradient id="e">
      <stop offset="0"/>
      <stop offset="1" stop-opacity="0"/>
    </linearGradient>
    <linearGradient id="c">
      <stop offset="0" stop-color="#e5c184"/>
      <stop offset=".42469135" stop-color="#d9a752"/>
      <stop offset=".9041152" stop-color="#d9a752"/>
      <stop offset="1" stop-color="#e5c184"/>
    </linearGradient>
    <linearGradient id="j">
      <stop offset="0" stop-color="#fff"/>
      <stop offset=".25" stop-color="#fefede" stop-opacity=".91836733"/>
      <stop offset=".5" stop-color="#f5f328"/>
      <stop offset="1" stop-color="#f5f32d" stop-opacity=".12234043"/>
    </linearGradient>
    <linearGradient id="i">
      <stop offset="0"/>
      <stop offset="1" stop-opacity="0"/>
    </linearGradient>
    <linearGradient id="b">
      <stop offset="0" stop-color="#fff"/>
      <stop offset="1" stop-color="#fff" stop-opacity="0"/>
    </linearGradient>
    <linearGradient xlink:href="#b" id="t" x1="33.396004" x2="34.170048" y1="36.921333" y2="38.070381" gradientTransform="rotate(-91.878 21.44970057 22.87473819)" gradientUnits="userSpaceOnUse"/>
    <linearGradient id="h">
      <stop offset="0" stop-color="#fff"/>
      <stop offset="1" stop-color="#f8f8f8"/>
    </linearGradient>
    <linearGradient id="f">
      <stop offset="0" stop-color="#a3a3a3"/>
      <stop offset="1" stop-color="#8a8a8a"/>
    </linearGradient>
    <linearGradient id="g">
      <stop offset="0" stop-color="#fafafa"/>
      <stop offset="1" stop-color="#bbb"/>
    </linearGradient>
    <linearGradient xlink:href="#c" id="v" x1="17.948223" x2="17.948223" y1="17.797228" y2="4.361907" gradientTransform="matrix(.93095 0 0 1 .6917802 -.0441941)" gradientUnits="userSpaceOnUse"/>
    <linearGradient xlink:href="#d" id="w" x1="13.46875" x2="13.46875" y1="3.0304594" y2="5.5014644" gradientUnits="userSpaceOnUse"/>
    <radialGradient xlink:href="#e" id="l" cx="4.9929786" cy="43.5" r="2.5" fx="4.9929786" fy="43.5" gradientTransform="matrix(2.00378 0 0 1.4 -20.01187 -104.4)" gradientUnits="userSpaceOnUse"/>
    <radialGradient xlink:href="#e" id="k" cx="4.9929786" cy="43.5" r="2.5" fx="4.9929786" fy="43.5" gradientTransform="matrix(2.00378 0 0 1.4 27.98813 -17.4)" gradientUnits="userSpaceOnUse"/>
    <radialGradient xlink:href="#f" id="o" cx="8.824419" cy="3.7561285" r="37.751713" fx="8.824419" fy="3.7561285" gradientTransform="matrix(.97174 0 0 1.03607 3.2383519 .5060885)" gradientUnits="userSpaceOnUse"/>
    <radialGradient xlink:href="#g" id="n" cx="33.966679" cy="35.736916" r="86.70845" fx="33.966679" fy="35.736916" gradientTransform="matrix(.96394 0 0 1.04446 -.127221 -.1424244)" gradientUnits="userSpaceOnUse"/>
    <radialGradient xlink:href="#h" id="p" cx="8.1435566" cy="7.2678967" r="38.158695" fx="8.1435566" fy="7.2678967" gradientTransform="matrix(.97318 0 0 1.035 3.1656505 .5540137)" gradientUnits="userSpaceOnUse"/>
    <radialGradient xlink:href="#f" id="s" cx="31.863327" cy="2.3667307" r="37.751713" fx="31.863327" fy="2.3667307" gradientTransform="matrix(.33174 0 0 .35854 20.10526 9.5269319)" gradientUnits="userSpaceOnUse"/>
    <radialGradient xlink:href="#g" id="r" cx="30.653816" cy="14.9373" r="86.70845" fx="30.653816" fy="14.9373" gradientTransform="matrix(.14835 .01023 -.01104 .16453 25.06011 12.804777)" gradientUnits="userSpaceOnUse"/>
    <radialGradient xlink:href="#i" id="q" cx="37.030354" cy="12.98915" r="4.2929163" fx="37.030354" fy="12.98915" gradientTransform="matrix(1.74465 0 0 1.28383 -26.58256 -3.478359)" gradientUnits="userSpaceOnUse"/>
    <radialGradient xlink:href="#j" id="u" cx="38.658855" cy="9.3411446" r="8.341651" fx="38.658855" fy="9.3411446" gradientUnits="userSpaceOnUse"/>
  </defs>
  <g opacity=".4">
    <path fill="url(#k)" d="M38 40h5v7h-5z" opacity="1" transform="matrix(1.05263 0 0 .71429 -1.263176 12.42857703)"/>
    <path fill="url(#l)" d="M-10-47h5v7h-5z" opacity="1" transform="matrix(-1.05263 0 0 -.71429 -1.263176 12.42857703)"/>
    <path fill="url(#m)" d="M10 40h28v7.0000005H10z" opacity="1" transform="matrix(1.05263 0 0 .71429 -1.263176 12.42857703)"/>
  </g>
  <g stroke-linecap="round" stroke-linejoin="round" stroke-width=".99999994" color="#000">
    <path fill="url(#n)" stroke="url(#o)" d="m7.6531674 3.5156747 23.5310546-.0156749S41.5 13.07421 41.5 13.712818v29.7014c0 .638607-.514313 1.15272-1.153167 1.15272H7.6531674c-.6388545 0-1.153167-.514113-1.153167-1.15272V4.6683954c0-.6386072.5143125-1.1527207 1.153167-1.1527207z" display="block" overflow="visible" style="marker:none"/>
    <path fill="none" stroke="url(#p)" d="M7.6498034 4.4999998H32.652226s7.789712 8.0387162 7.789712 8.1214672v30.759492c0 .082751-.066811.149371-.149803.149371H7.6498034c-.0829913 0-.1498037-.06662-.1498037-.149371V4.6493697c0-.0827509.0668124-.1493699.1498037-.1493699z" display="block" overflow="visible" style="marker:none"/>
  </g>
  <path fill="url(#q)" fill-rule="evenodd" d="M40.985189 13.861445c-.728362-1.346628-6.102968-3.730511-8.900554-4.5300367.169508 1.5729457-.122779 6.3180307-.122779 6.3180307 2.0625-1.375 8.242629-1.950108 9.023333-1.787994z" color="#000" opacity=".35714285" overflow="visible" style="marker:none"/>
  <path fill="url(#r)" stroke="url(#s)" stroke-linejoin="round" d="M41.410559 13.739267c.013165-1.433991-6.352534-10.3432064-10.235118-10.238349.973038.2360984 1.750355 6.2501835.360635 9.100144 2.75 0 8.910618-.744719 9.874483 1.138205z" color="#000" display="block" overflow="visible" style="marker:none"/>
  <path fill="none" stroke="url(#t)" stroke-width="1.00000024" d="M39.121563 11.586207c-.728362-1.346628-4.158536-5.0695494-6.081122-6.3065754.23894 1.4258489.537055 3.682428-.078585 6.2448074 0 0 5.379003-.100346 6.159707.061768z" color="#000" overflow="visible" style="marker:none"/>
  <path fill="url(#u)" fill-rule="evenodd" d="M47.000506 9.3411446a8.341651 8.341651 0 1 1-16.683302 0 8.341651 8.341651 0 1 1 16.683302 0z" transform="translate(-7.595328 .490895) scale(1.14985)"/>
  <path fill="#fff" fill-rule="evenodd" d="M44.520054 15.50279c-.507171.878446-4.594703-.160823-5.521351.251748-.926648.41257-2.889414 4.145604-3.88159 3.934711-.992177-.210894-1.266891-4.419519-1.945618-5.173323-.678728-.753803-4.835582-1.466933-4.94161-2.475719-.106028-1.008786 3.811722-2.5705906 4.318893-3.4490369.507171-.8784463-.099141-5.0522193.827507-5.4647895.926648-.4125703 3.622664 2.8308064 4.614841 3.0417001.992176.2108936 4.77431-1.6555099 5.453037-.9017066.678728.7538034-1.572792 4.3201254-1.466764 5.3289109.106027 1.008786 3.049826 4.029058 2.542655 4.907505z" color="#000" overflow="visible" style="marker:none" transform="rotate(23.96 24.67983474 32.84210216) scale(.73769)"/>
  <path fill="#2e3436" fill-rule="evenodd" d="M8.518214 2.986098H22v20.941904l-5.484356-6.693205L10.96121 24V3.9419039c0-.5376049-1.525894-.9558059-2.442996-.9558059z" opacity=".15"/>
  <path fill="url(#v)" fill-rule="evenodd" stroke="#8f5902" stroke-linejoin="round" stroke-width=".99999994" d="M10.018213 2.5h11.40466c1.571544 0 2.077126.5073903 2.077126 1.970952v18.970952l-5.484356-6.693205-5.554434 6.765203.046875-19.0580961C12.508084 2.8706328 10.935315 2.5 10.018213 2.5z"/>
  <path fill="none" stroke="url(#w)" stroke-width=".99999994" d="M13.25 3.53125c.112221.3025501.28125.5838764.28125.9375L13.5 20.625l3.75-4.53125c.195904-.238434.488283-.376617.796875-.376617s.600971.138183.796875.376617l3.625 4.4375V4.46875c0-.6164689-.103667-.7605816-.125-.78125-.021333-.0206684-.23098-.15625-.90625-.15625H13.25z" opacity=".6"/>
</svg>