<?xml version="1.0" encoding="UTF-8" standalone="no"?>
<!-- Created with Inkscape (http://www.inkscape.org/) -->

<svg
   inkscape:export-ydpi="240.00000"
   inkscape:export-xdpi="240.00000"
   inkscape:export-filename="/home/jimmac/gfx/novell/pdes/trunk/docs/BIGmime-text.png"
   sodipodi:docname="imagefile.svg"
   inkscape:version="1.4.4 (dcaf3e7d9e, 2026-05-05)"
   sodipodi:version="0.32"
   id="svg249"
   height="48.000000px"
   width="48.000000px"
   inkscape:output_extension="org.inkscape.output.svg.inkscape"
   version="1.1"
   xml:space="preserve"
   xmlns:inkscape="http://www.inkscape.org/namespaces/inkscape"
   xmlns:sodipodi="http://sodipodi.sourceforge.net/DTD/sodipodi-0.dtd"
   xmlns:xlink="http://www.w3.org/1999/xlink"
   xmlns="http://www.w3.org/2000/svg"
   xmlns:svg="http://www.w3.org/2000/svg"
   xmlns:rdf="http://www.w3.org/1999/02/22-rdf-syntax-ns#"
   xmlns:cc="http://creativecommons.org/ns#"
   xmlns:dc="http://purl.org/dc/elements/1.1/"><defs
     id="defs3"><linearGradient
       inkscape:collect="always"
       id="linearGradient3520"><stop
         style="stop-color:#000000;stop-opacity:0.41295547"
         offset="0"
         id="stop3522" /><stop
         style="stop-color:#000000;stop-opacity:0;"
         offset="1"
         id="stop3524" /></linearGradient><linearGradient
       inkscape:collect="always"
       xlink:href="#linearGradient3520"
       id="linearGradient13786"
       gradientUnits="userSpaceOnUse"
       gradientTransform="matrix(0.5946829,0,0,0.5927814,-62.327355,-48.725799)"
       x1="-18.618725"
       y1="10.211342"
       x2="-30.558546"
       y2="12.189651" /><linearGradient
       id="linearGradient3671"><stop
         style="stop-color:#ffffff;stop-opacity:1;"
         offset="0"
         id="stop3673" /><stop
         id="stop3691"
         offset="0.47533694"
         style="stop-color:#ffffff;stop-opacity:1;" /><stop
         style="stop-color:#ffffff;stop-opacity:0;"
         offset="1"
         id="stop3675" /></linearGradient><radialGradient
       inkscape:collect="always"
       xlink:href="#linearGradient3671"
       id="radialGradient13784"
       gradientUnits="userSpaceOnUse"
       gradientTransform="matrix(0.2626416,-0.1805803,0.4842474,0.7055033,-76.987986,-55.026495)"
       cx="-26.305403"
       cy="10.108011"
       fx="-26.305403"
       fy="10.108011"
       r="7.0421038" /><linearGradient
       inkscape:collect="always"
       id="linearGradient3656"><stop
         style="stop-color:#ffffff;stop-opacity:1;"
         offset="0"
         id="stop3658" /><stop
         style="stop-color:#ffffff;stop-opacity:0;"
         offset="1"
         id="stop3660" /></linearGradient><linearGradient
       inkscape:collect="always"
       xlink:href="#linearGradient3656"
       id="linearGradient13792"
       gradientUnits="userSpaceOnUse"
       gradientTransform="translate(-90,-60)"
       x1="-24.756966"
       y1="9.5694666"
       x2="-22.611664"
       y2="7.4241643" /><linearGradient
       inkscape:collect="always"
       id="linearGradient3741"><stop
         style="stop-color:#ffffff;stop-opacity:1;"
         offset="0"
         id="stop3743" /><stop
         style="stop-color:#ffffff;stop-opacity:0;"
         offset="1"
         id="stop3745" /></linearGradient><radialGradient
       inkscape:collect="always"
       xlink:href="#linearGradient3741"
       id="radialGradient13636"
       gradientUnits="userSpaceOnUse"
       gradientTransform="matrix(1.8860258,0,0,1.1764706,-3.5441033,-4.2352941)"
       cx="4"
       cy="5.2999997"
       fx="4"
       fy="5.2999997"
       r="17" /><linearGradient
       inkscape:collect="always"
       id="linearGradient3613"><stop
         style="stop-color:#888a85;stop-opacity:1"
         offset="0"
         id="stop3615" /><stop
         style="stop-color:#babdb6;stop-opacity:1"
         offset="1"
         id="stop3617" /></linearGradient><linearGradient
       inkscape:collect="always"
       xlink:href="#linearGradient3613"
       id="linearGradient13634"
       gradientUnits="userSpaceOnUse"
       gradientTransform="translate(-90,-60)"
       x1="-47.5"
       y1="49.020683"
       x2="-62.75"
       y2="-22.502075" /><linearGradient
       id="linearGradient3683"><stop
         id="stop3685"
         offset="0"
         style="stop-color:#f6f6f5;stop-opacity:1;" /><stop
         id="stop3689"
         offset="1"
         style="stop-color:#d3d7cf;stop-opacity:1" /></linearGradient><radialGradient
       inkscape:collect="always"
       xlink:href="#linearGradient3683"
       id="radialGradient13632"
       gradientUnits="userSpaceOnUse"
       gradientTransform="matrix(3.9957492,0,0,1.9350367,0.62141,-91.167422)"
       cx="-30.249996"
       cy="35.357208"
       fx="-30.249996"
       fy="35.357208"
       r="18.000002" /><linearGradient
       inkscape:collect="always"
       xlink:href="#linearGradient3702"
       id="linearGradient13630"
       gradientUnits="userSpaceOnUse"
       x1="25.058096"
       y1="47.027729"
       x2="25.058096"
       y2="39.999443" /><radialGradient
       inkscape:collect="always"
       xlink:href="#linearGradient3688"
       id="radialGradient13628"
       gradientUnits="userSpaceOnUse"
       gradientTransform="matrix(2.003784,0,0,1.4,-20.01187,-104.4)"
       cx="4.9929786"
       cy="43.5"
       fx="4.9929786"
       fy="43.5"
       r="2.5" /><radialGradient
       inkscape:collect="always"
       xlink:href="#linearGradient3688"
       id="radialGradient13626"
       gradientUnits="userSpaceOnUse"
       gradientTransform="matrix(2.003784,0,0,1.4,27.98813,-17.4)"
       cx="4.9929786"
       cy="43.5"
       fx="4.9929786"
       fy="43.5"
       r="2.5" /><linearGradient
       inkscape:collect="always"
       xlink:href="#linearGradient3702"
       id="linearGradient13624"
       gradientUnits="userSpaceOnUse"
       x1="25.058096"
       y1="47.027729"
       x2="25.058096"
       y2="39.999443" /><radialGradient
       inkscape:collect="always"
       xlink:href="#linearGradient3688"
       id="radialGradient13622"
       gradientUnits="userSpaceOnUse"
       gradientTransform="matrix(2.003784,0,0,1.4,-20.01187,-104.4)"
       cx="4.9929786"
       cy="43.5"
       fx="4.9929786"
       fy="43.5"
       r="2.5" /><radialGradient
       inkscape:collect="always"
       xlink:href="#linearGradient3688"
       id="radialGradient13620"
       gradientUnits="userSpaceOnUse"
       gradientTransform="matrix(2.003784,0,0,1.4,27.98813,-17.4)"
       cx="4.9929786"
       cy="43.5"
       fx="4.9929786"
       fy="43.5"
       r="2.5" /><linearGradient
       id="linearGradient3702"><stop
         style="stop-color:black;stop-opacity:0;"
         offset="0"
         id="stop3704" /><stop
         id="stop3710"
         offset="0.5"
         style="stop-color:black;stop-opacity:1;" /><stop
         style="stop-color:black;stop-opacity:0;"
         offset="1"
         id="stop3706" /></linearGradient><linearGradient
       inkscape:collect="always"
       id="linearGradient3688"><stop
         style="stop-color:black;stop-opacity:1;"
         offset="0"
         id="stop3690" /><stop
         style="stop-color:black;stop-opacity:0;"
         offset="1"
         id="stop3692" /></linearGradient><linearGradient
       id="linearGradient6374"><stop
         style="stop-color:#555753;stop-opacity:1;"
         offset="0"
         id="stop6376" /><stop
         style="stop-color:#888a85;stop-opacity:1"
         offset="1"
         id="stop6378" /></linearGradient><linearGradient
       id="linearGradient6327"><stop
         style="stop-color:#888a85;stop-opacity:1"
         offset="0"
         id="stop6329" /><stop
         style="stop-color:#eeeeec;stop-opacity:1"
         offset="1"
         id="stop6331" /></linearGradient><linearGradient
       inkscape:collect="always"
       id="linearGradient4616"><stop
         style="stop-color:#2e3436;stop-opacity:1;"
         offset="0"
         id="stop4618" /><stop
         style="stop-color:#2e3436;stop-opacity:0;"
         offset="1"
         id="stop4620" /></linearGradient><linearGradient
       id="linearGradient4928"><stop
         id="stop4930"
         offset="0"
         style="stop-color:#fce94f;stop-opacity:1;" /><stop
         id="stop4932"
         offset="1"
         style="stop-color:#fce94f;stop-opacity:0;" /></linearGradient><linearGradient
       inkscape:collect="always"
       id="linearGradient2065"><stop
         style="stop-color:#555753"
         offset="0"
         id="stop2067" /><stop
         style="stop-color:#fcaf3e"
         offset="1"
         id="stop2069" /></linearGradient><linearGradient
       inkscape:collect="always"
       xlink:href="#linearGradient2065"
       id="linearGradient2071"
       x1="-11.986486"
       y1="13.122552"
       x2="-11.986486"
       y2="29.726542"
       gradientUnits="userSpaceOnUse"
       gradientTransform="matrix(1.1141976,0,0,1.1666667,37.36883,-3.916667)" /><radialGradient
       inkscape:collect="always"
       xlink:href="#linearGradient4928"
       id="radialGradient4915"
       cx="-6.0070167"
       cy="32.837029"
       fx="-6.0070167"
       fy="32.837029"
       r="9.90625"
       gradientTransform="matrix(1,-1.487184e-8,1.425535e-8,0.958546,22.7158,2.575973)"
       gradientUnits="userSpaceOnUse" /><linearGradient
       inkscape:collect="always"
       xlink:href="#linearGradient4616"
       id="linearGradient4622"
       x1="25.355263"
       y1="33.654644"
       x2="25.355263"
       y2="32.409008"
       gradientUnits="userSpaceOnUse"
       gradientTransform="matrix(1.117647,0,0,1.5,-2.8235294,-15.5)" /><linearGradient
       inkscape:collect="always"
       xlink:href="#linearGradient6327"
       id="linearGradient6333"
       x1="42.999424"
       y1="36.811924"
       x2="40.621296"
       y2="34.433796"
       gradientUnits="userSpaceOnUse" /><linearGradient
       inkscape:collect="always"
       xlink:href="#linearGradient6327"
       id="linearGradient6360"
       x1="61.18124"
       y1="137.97644"
       x2="20.420683"
       y2="2.6749926"
       gradientUnits="userSpaceOnUse" /><linearGradient
       inkscape:collect="always"
       xlink:href="#linearGradient3656"
       id="linearGradient6372"
       x1="40.941582"
       y1="37.639805"
       x2="35.496311"
       y2="32.194534"
       gradientUnits="userSpaceOnUse" /><radialGradient
       inkscape:collect="always"
       xlink:href="#linearGradient6374"
       id="radialGradient6382"
       cx="39.437065"
       cy="34.33852"
       fx="39.437065"
       fy="34.33852"
       r="6"
       gradientTransform="matrix(0.1875,-1.053432,0.7180811,0.127811,7.8227088,71.030427)"
       gradientUnits="userSpaceOnUse" /><radialGradient
       inkscape:collect="always"
       xlink:href="#linearGradient3656"
       id="radialGradient6396"
       cx="20.236877"
       cy="25.043303"
       fx="20.236877"
       fy="25.043303"
       r="22"
       gradientTransform="matrix(0.9409062,-0.2066504,0.109821,0.5000295,-1.5544064,13.219564)"
       gradientUnits="userSpaceOnUse" /><radialGradient
       inkscape:collect="always"
       xlink:href="#linearGradient3656"
       id="radialGradient6437"
       cx="40.179535"
       cy="34.080399"
       fx="40.179535"
       fy="34.080399"
       r="4.125"
       gradientTransform="matrix(1,0,0,0.9356061,0,2.3071141)"
       gradientUnits="userSpaceOnUse" /><radialGradient
       inkscape:collect="always"
       xlink:href="#linearGradient3688"
       id="radialGradient6909"
       gradientUnits="userSpaceOnUse"
       gradientTransform="matrix(-0.01606477,0,0,0.07411765,11.681601,-1.1750779)"
       cx="605.71429"
       cy="486.64789"
       fx="605.71429"
       fy="486.64789"
       r="117.14286" /><radialGradient
       inkscape:collect="always"
       xlink:href="#linearGradient3688"
       id="radialGradient6912"
       gradientUnits="userSpaceOnUse"
       gradientTransform="matrix(0.1044211,0,0,0.07411765,-27.930451,-1.1750779)"
       cx="605.71429"
       cy="486.64789"
       fx="605.71429"
       fy="486.64789"
       r="117.14286" /><linearGradient
       inkscape:collect="always"
       xlink:href="#linearGradient3702"
       id="linearGradient6915"
       gradientUnits="userSpaceOnUse"
       gradientTransform="matrix(0.0683432,0,0,0.07411765,-6.2011835,-1.1750779)"
       x1="302.85715"
       y1="366.64789"
       x2="302.85715"
       y2="609.50507" /></defs><sodipodi:namedview
     inkscape:window-y="0"
     inkscape:window-x="0"
     inkscape:window-height="900"
     inkscape:window-width="1600"
     inkscape:document-units="px"
     inkscape:grid-bbox="true"
     showgrid="false"
     inkscape:current-layer="layer5"
     inkscape:cy="26.914252"
     inkscape:cx="19.091883"
     inkscape:zoom="11.313708"
     inkscape:pageshadow="2"
     inkscape:pageopacity="0.0"
     borderopacity="1"
     bordercolor="#666"
     pagecolor="#ffffff"
     id="base"
     inkscape:showpageshadow="false"
     inkscape:pagecheckerboard="0"
     inkscape:deskcolor="#505050"
     inkscape:window-maximized="1" /><metadata
     id="metadata4"><rdf:RDF><cc:Work
         rdf:about=""><dc:format>image/svg+xml</dc:format><dc:type
           rdf:resource="http://purl.org/dc/dcmitype/StillImage" /><dc:subject><rdf:Bag><rdf:li>text</rdf:li><rdf:li>plaintext</rdf:li><rdf:li>regular</rdf:li><rdf:li>document</rdf:li></rdf:Bag></dc:subject><cc:license
           rdf:resource="" /><dc:creator><cc:Agent><dc:title>Lapo Calamandrei</dc:title></cc:Agent></dc:creator><dc:source /><dc:date /><dc:rights><cc:Agent><dc:title /></cc:Agent></dc:rights><dc:publisher><cc:Agent><dc:title /></cc:Agent></dc:publisher><dc:identifier /><dc:relation /><dc:language /><dc:coverage /><dc:description /><dc:contributor><cc:Agent><dc:title /></cc:Agent></dc:contributor></cc:Work></rdf:RDF></metadata><g
     inkscape:groupmode="layer"
     id="layer6"
     inkscape:label="Shadow" /><g
     style="display:inline"
     inkscape:groupmode="layer"
     inkscape:label="Base"
     id="layer1" /><g
     inkscape:groupmode="layer"
     id="layer5"
     inkscape:label="Text"
     style="display:inline"><g
       style="display:inline"
       id="g13794"
       transform="translate(150,60)"><g
         transform="translate(0,-60)"
         id="g13584"
         style="display:inline"><rect
           style="opacity:0;fill:#000000;fill-opacity:1;stroke:none;stroke-width:1;stroke-miterlimit:4;stroke-dasharray:none;display:inline"
           id="rect13586"
           width="48"
           height="48"
           x="-150"
           y="0" /><g
           id="g13588"><g
             transform="matrix(1.0464281,0,0,0.8888889,-151.18571,5.7222396)"
             inkscape:label="Shadow"
             id="g13590"
             style="opacity:0.65587045;display:inline"><g
               transform="matrix(1.052632,0,0,1.285713,-1.263158,-13.42854)"
               style="opacity:0.4"
               id="g13592"><rect
                 style="opacity:1;fill:url(#radialGradient13620);fill-opacity:1;stroke:none;stroke-width:1;stroke-linecap:round;stroke-linejoin:miter;stroke-miterlimit:4;stroke-dasharray:none;stroke-opacity:1"
                 id="rect13594"
                 width="5"
                 height="7"
                 x="38"
                 y="40" /><rect
                 style="opacity:1;fill:url(#radialGradient13622);fill-opacity:1;stroke:none;stroke-width:1;stroke-linecap:round;stroke-linejoin:miter;stroke-miterlimit:4;stroke-dasharray:none;stroke-opacity:1"
                 id="rect13596"
                 width="5"
                 height="7"
                 x="-10"
                 y="-47"
                 transform="scale(-1,-1)" /><rect
                 style="opacity:1;fill:url(#linearGradient13624);fill-opacity:1;stroke:none;stroke-width:1;stroke-linecap:round;stroke-linejoin:miter;stroke-miterlimit:4;stroke-dasharray:none;stroke-opacity:1"
                 id="rect13598"
                 width="28"
                 height="7.0000005"
                 x="10"
                 y="40" /></g></g><g
             transform="matrix(0.9548466,0,0,0.5555562,-148.98776,19.888875)"
             inkscape:label="Shadow"
             id="g13600"
             style="display:inline"><g
               transform="matrix(1.052632,0,0,1.285713,-1.263158,-13.42854)"
               style="opacity:0.4"
               id="g13602"><rect
                 style="opacity:1;fill:url(#radialGradient13626);fill-opacity:1;stroke:none;stroke-width:1;stroke-linecap:round;stroke-linejoin:miter;stroke-miterlimit:4;stroke-dasharray:none;stroke-opacity:1"
                 id="rect13604"
                 width="5"
                 height="7"
                 x="38"
                 y="40" /><rect
                 style="opacity:1;fill:url(#radialGradient13628);fill-opacity:1;stroke:none;stroke-width:1;stroke-linecap:round;stroke-linejoin:miter;stroke-miterlimit:4;stroke-dasharray:none;stroke-opacity:1"
                 id="rect13606"
                 width="5"
                 height="7"
                 x="-10"
                 y="-47"
                 transform="scale(-1,-1)" /><rect
                 style="opacity:1;fill:url(#linearGradient13630);fill-opacity:1;stroke:none;stroke-width:1;stroke-linecap:round;stroke-linejoin:miter;stroke-miterlimit:4;stroke-dasharray:none;stroke-opacity:1"
                 id="rect13608"
                 width="28"
                 height="7.0000005"
                 x="10"
                 y="40" /></g></g><path
             sodipodi:nodetypes="cccccccscc"
             id="path13610"
             transform="translate(0,60)"
             d="M -141.46875,-56.5 C -142.58997,-56.5 -143.5,-55.589966 -143.5,-54.46875 L -143.5,-17.53125 C -143.5,-16.410033 -142.58997,-15.5 -141.46875,-15.5 L -110.53125,-15.5 C -109.41004,-15.5 -108.5,-16.410034 -108.5,-17.53125 C -108.5,-27.447917 -108.5,-37.364583 -108.5,-47.28125 C -108.75793,-49.746835 -110.13765,-51.573876 -111.78125,-53.21875 C -113.42485,-54.863625 -115.16982,-56.452007 -117.71875,-56.5 C -125.63542,-56.5 -133.55208,-56.5 -141.46875,-56.5 z"
             style="fill:url(#radialGradient13632);fill-opacity:1;stroke:url(#linearGradient13634);stroke-width:1;stroke-miterlimit:4;display:inline" /><path
             transform="translate(-150,0)"
             d="M 8.53125,4 C 7.6730803,4 7,4.6730802 7,5.53125 L 7,42.46875 C 7,43.32692 7.6730802,44 8.53125,44 L 39.46875,44 C 40.326919,44 41,43.326918 41,42.46875 C 41,42.46875 41,19 41,17.5 C 41,16.10803 40.513021,13.200521 38.65625,11.34375 C 36.65625,9.34375 35.65625,8.34375 33.65625,6.34375 C 31.799479,4.4869792 28.89197,4 27.5,4 C 26,4 8.53125,4 8.53125,4 z"
             id="path13612"
             style="opacity:0.68016196;fill:url(#radialGradient13636);fill-opacity:1;stroke:none;stroke-width:1;stroke-miterlimit:4;display:inline"
             inkscape:original="M 8.53125 3.5 C 7.410033 3.5 6.5 4.4100329 6.5 5.53125 L 6.5 42.46875 C 6.5 43.589967 7.4100329 44.5 8.53125 44.5 L 39.46875 44.5 C 40.589967 44.5 41.5 43.589966 41.5 42.46875 C 41.5 42.46875 41.5 19 41.5 17.5 C 41.5 16 41 13 39 11 C 37 9 36 8 34 6 C 32 4 29 3.5 27.5 3.5 C 26 3.5 8.5312499 3.5 8.53125 3.5 z "
             inkscape:radius="-0.4861359"
             sodipodi:type="inkscape:offset" /><path
             id="path13618"
             transform="translate(0,60)"
             d="M -141.46875,-55.5 C -142.05192,-55.5 -142.5,-55.051916 -142.5,-54.46875 L -142.5,-17.53125 C -142.5,-16.948085 -142.05191,-16.5 -141.46875,-16.5 L -110.53125,-16.5 C -109.94808,-16.5 -109.5,-16.948086 -109.5,-17.53125 C -109.5,-17.53125 -109.5,-41 -109.5,-42.5 C -109.5,-42.606586 -109.52415,-42.779716 -109.53125,-42.90625 C -109.53125,-44.658248 -109.53125,-47.01807 -109.53125,-47.28125 C -109.53125,-48.038629 -109.86422,-49.800936 -110.875,-50.8125 C -112.18988,-52.128398 -112.84137,-52.8091 -114.15625,-54.125 C -115.16704,-55.136562 -116.96195,-55.46875 -117.71875,-55.46875 C -118.06477,-55.46875 -120.11232,-55.46875 -122.09375,-55.46875 C -122.22028,-55.475855 -122.39341,-55.5 -122.5,-55.5 C -124,-55.5 -141.46875,-55.5 -141.46875,-55.5 z"
             style="fill:none;fill-opacity:1;stroke:url(#linearGradient13792);stroke-width:1;stroke-miterlimit:4;display:inline" /></g></g><g
         transform="translate(-36.006942,-8.993441)"
         id="g13771"><path
           style="fill:url(#radialGradient13784);fill-opacity:1;stroke:none;stroke-width:1;stroke-miterlimit:4;display:inline"
           d="M -81.704642,-47 C -82.600168,-47 -81.731767,-46.679215 -80.83822,-46.274007 C -79.944674,-45.868798 -78.473456,-44.361864 -79,-42 C -74.43068,-42.707107 -73.851802,-39.822428 -73.644912,-39.074576 C -73.438023,-38.326725 -73.000134,-37.391796 -73.000134,-38.288084 C -72.981865,-40.743928 -74.834804,-42.438635 -76.123279,-43.874197 C -77.411755,-45.309758 -79.348756,-46.692333 -81.704642,-47 z"
           id="path13676"
           sodipodi:nodetypes="ccccczc" /><path
           style="opacity:0.87854249;fill:url(#linearGradient13786);fill-opacity:1;stroke:none;stroke-width:1;stroke-miterlimit:4;display:inline"
           d="M -80.994821,-46.345411 C -80.400137,-46.345411 -80,-42.5 -80,-40 C -77,-40 -74.29634,-39.548186 -74,-39 C -74.20689,-39.747852 -74.538563,-42.773398 -79,-42 C -78.442483,-44.500797 -80.212993,-46.107705 -80.994821,-46.345411 z"
           id="path13678"
           sodipodi:nodetypes="ccccc" /></g></g><g
       id="layer1-6"
       inkscape:label="Layer 1"
       transform="matrix(0.5,0,0,0.5,12.073223,12.941942)"><g
         id="g6917"><rect
           y="26"
           x="2"
           height="18"
           width="33"
           id="rect6057"
           style="color:#000000;display:inline;overflow:visible;visibility:visible;opacity:0.39196;fill:url(#linearGradient6915);fill-opacity:1;fill-rule:nonzero;stroke:none;stroke-width:1;stroke-linecap:round;stroke-linejoin:miter;stroke-miterlimit:4;stroke-dasharray:none;stroke-dashoffset:0;stroke-opacity:1;marker:none;marker-start:none;marker-mid:none;marker-end:none" /><path
           sodipodi:nodetypes="ccscc"
           id="path6059"
           d="m 35,26.00062 c 0,0 0,17.999007 0,17.999007 2.30962,0.01455 5.033409,-0.727312 7.389531,-1.972134 C 45.519106,40.37403 48.000002,37.833194 48,34.998965 48,30.030967 41.999197,26.000621 35,26.00062 Z"
           style="color:#000000;display:inline;overflow:visible;visibility:visible;opacity:0.402062;fill:url(#radialGradient6912);fill-opacity:1;fill-rule:nonzero;stroke:none;stroke-width:1;stroke-linecap:round;stroke-linejoin:miter;stroke-miterlimit:4;stroke-dasharray:none;stroke-dashoffset:0;stroke-opacity:1;marker:none;marker-start:none;marker-mid:none;marker-end:none" /><path
           style="color:#000000;display:inline;overflow:visible;visibility:visible;opacity:0.402062;fill:url(#radialGradient6909);fill-opacity:1;fill-rule:nonzero;stroke:none;stroke-width:1;stroke-linecap:round;stroke-linejoin:miter;stroke-miterlimit:4;stroke-dasharray:none;stroke-dashoffset:0;stroke-opacity:1;marker:none;marker-start:none;marker-mid:none;marker-end:none"
           d="m 2,26.00062 c 0,0 0,17.999007 0,17.999007 C 1.172704,44.03351 1.3577825e-6,39.966963 1.3577825e-6,34.998965 1.3577825e-6,30.030967 0.92320113,26.000621 2,26.00062 Z"
           id="path6061"
           sodipodi:nodetypes="cccc" /></g><path
         style="fill:url(#linearGradient6360);fill-opacity:1;stroke:#888a85;stroke-width:1;stroke-linecap:round;stroke-linejoin:round;stroke-miterlimit:4;stroke-dashoffset:0;stroke-opacity:1"
         d="m 2.767767,6.5 h 42.46447 c 0.702343,0 1.267767,0.5654241 1.267767,1.267767 L 46.5,30.5 c 0,0.702343 -10.297657,10 -11,10 H 2.767767 C 2.0654241,40.5 1.5,39.934576 1.5,39.232233 V 7.767767 C 1.5,7.0654241 2.0654241,6.5 2.767767,6.5 Z"
         id="rect5350"
         sodipodi:nodetypes="ccccccccc" /><path
         style="fill:url(#linearGradient2071);fill-opacity:1;stroke:#888a85;stroke-width:1;stroke-linecap:round;stroke-linejoin:round;stroke-miterlimit:4;stroke-dashoffset:0;stroke-opacity:1"
         d="M 4.9874617,9.5 H 43.039565 c 0.270054,0 0.487462,0.2276458 0.487462,0.510417 V 33.989583 L 40.039565,37.5 H 4.9874617 C 4.7174079,37.5 4.5,37.272354 4.5,36.989583 V 10.010417 C 4.5,9.7276458 4.7174079,9.5 4.9874617,9.5 Z"
         id="rect2063"
         sodipodi:nodetypes="ccccccccc" /><path
         style="color:#000000;display:inline;overflow:visible;visibility:visible;opacity:1;fill:url(#radialGradient4915);fill-opacity:1;fill-rule:evenodd;stroke:none;stroke-width:1;stroke-linecap:round;stroke-linejoin:round;stroke-miterlimit:4;stroke-dasharray:none;stroke-dashoffset:0;stroke-opacity:1;marker:none;marker-start:none;marker-mid:none;marker-end:none"
         d="m 16.083789,23.551777 c -5.168779,0.327955 -9.2812506,4.655188 -9.2812506,9.90625 0,0.202785 0.01921,0.393975 0.03125,0.59375 H 26.583789 c 0.01204,-0.199775 0.03125,-0.390965 0.03125,-0.59375 0,-5.464521 -4.441729,-9.90625 -9.90625,-9.90625 -0.213458,0 -0.414887,-0.01333 -0.625,0 z"
         id="path4898"
         inkscape:r_cx="true"
         inkscape:r_cy="true" /><rect
         style="opacity:1;fill:url(#linearGradient4622);fill-opacity:1;stroke:none;stroke-width:1;stroke-linecap:round;stroke-linejoin:round;stroke-miterlimit:4;stroke-dasharray:none;stroke-dashoffset:0;stroke-opacity:1"
         id="rect1324"
         width="38"
         height="3"
         x="5"
         y="34"
         rx="0"
         ry="0" /><path
         style="opacity:0.818965;fill:url(#linearGradient6372);fill-opacity:1;stroke:none;stroke-width:1;stroke-linecap:round;stroke-linejoin:round;stroke-miterlimit:4;stroke-dashoffset:0;stroke-opacity:1"
         d="m 14.78125,40 h 20.625 c 0.0102,-0.0045 0.01696,-0.004 0.0625,-0.03125 0.09108,-0.05454 0.239108,-0.158764 0.40625,-0.28125 0.334283,-0.244972 0.784837,-0.593604 1.3125,-1.03125 1.055327,-0.875293 2.42316,-2.047759 3.75,-3.25 1.32684,-1.202241 2.626277,-2.44468 3.59375,-3.40625 0.483737,-0.480785 0.886656,-0.881222 1.15625,-1.1875 0.134797,-0.153139 0.223302,-0.293223 0.28125,-0.375 C 45.98324,30.41706 45.99168,30.41954 46,30.40625 v -16.625 z"
         id="path6364"
         sodipodi:nodetypes="ccsssssssccc" /><path
         style="fill:#000000;fill-opacity:1;fill-rule:evenodd;stroke:none;stroke-width:1px;stroke-linecap:butt;stroke-linejoin:miter;stroke-opacity:1"
         d="m 29.555584,34.972272 c 0,0 -0.555584,-3.239746 -0.555584,-5.224471 0.01541,-0.905405 7.786707,-7.958802 7.806757,-9.009433 L 35,22.392753 33.734835,18.776232 38,19.24059 40,17.139148 37.734835,18.886405 36.955806,18.700662 36,15.037705 36.486136,18.607791 32.955806,18.422048 34.06066,21.376634 31,18.189869 34.237437,22.62545 c 8.5e-5,0.989283 -6.380874,7.028486 -6.37002,5.987149 L 25.220971,24.882982 25,19.841002 27,19.24059 28.752155,14.700822 26.442435,18.896683 24.639267,18.810834 20.602879,15.228917 15.06066,13 19.795495,15.734242 16,16.088427 h 5 l 3,3.152163 0.353553,5.444817 L 19,19.24059 21.251301,22.085004 18,24.494195 21.571429,22.392753 27.220971,29.869807 27,34.972272 Z"
         id="path2079"
         sodipodi:nodetypes="cccccccccccccccccccccccccccccccccccc" /><path
         inkscape:r_cy="true"
         inkscape:r_cx="true"
         id="path4924"
         d="m 16.367734,28.233668 c -2.820539,0.178961 -5.064664,2.540279 -5.064664,5.405719 0,0.110657 0.01048,0.214987 0.01705,0.324002 h 10.777333 c 0.0066,-0.109015 0.01705,-0.213345 0.01705,-0.324002 0,-2.981922 -2.423797,-5.405719 -5.405719,-5.405719 -0.116482,0 -0.226399,-0.0073 -0.341055,0 z"
         style="color:#000000;display:inline;overflow:visible;visibility:visible;opacity:1;fill:#fef39e;fill-opacity:1;fill-rule:evenodd;stroke:none;stroke-width:1;stroke-linecap:round;stroke-linejoin:round;stroke-miterlimit:4;stroke-dasharray:none;stroke-dashoffset:0;stroke-opacity:1;marker:none;marker-start:none;marker-mid:none;marker-end:none" /><path
         style="color:#000000;display:inline;overflow:visible;visibility:visible;opacity:1;fill:#fffbd7;fill-opacity:0.556818;fill-rule:evenodd;stroke:none;stroke-width:1;stroke-linecap:round;stroke-linejoin:round;stroke-miterlimit:4;stroke-dasharray:none;stroke-dashoffset:0;stroke-opacity:1;marker:none;marker-start:none;marker-mid:none;marker-end:none"
         d="m 16.448682,29.531973 c -2.151088,0.136486 -3.862573,1.937349 -3.862573,4.122681 0,0.08439 0.008,0.16396 0.013,0.2471 h 8.219349 c 0.005,-0.08314 0.01301,-0.162708 0.01301,-0.2471 0,-2.274167 -1.848512,-4.122681 -4.12268,-4.122681 -0.08883,0 -0.172663,-0.0055 -0.260107,0 z"
         id="path4926"
         inkscape:r_cx="true"
         inkscape:r_cy="true" /><path
         style="fill:none;fill-opacity:1;stroke:#ffffff;stroke-width:1;stroke-linecap:round;stroke-linejoin:round;stroke-miterlimit:4;stroke-dashoffset:0;stroke-opacity:1"
         d="M 2.78125,7.5 C 2.6253137,7.5 2.5,7.6253137 2.5,7.78125 v 31.4375 C 2.5,39.374686 2.6253136,39.5 2.78125,39.5 h 34.5 C 40.921301,36.704635 42.365769,35.606734 45.5,32.25 V 7.78125 C 45.5,7.6253155 45.374683,7.5 45.21875,7.5 Z"
         id="path6351"
         sodipodi:nodetypes="ccccccccc" /><path
         style="fill:url(#linearGradient6333);fill-opacity:1;fill-rule:evenodd;stroke:url(#radialGradient6382);stroke-width:1px;stroke-linecap:butt;stroke-linejoin:round;stroke-opacity:1"
         d="m 46.5,30.5 c 0,5 -6,10 -11,10 0,0 4.432134,-2.16262 4,-7 4.379686,0.416135 7,-3 7,-3 z"
         id="path6322"
         sodipodi:nodetypes="cccc" /><path
         style="opacity:0.732759;fill:url(#radialGradient6437);fill-opacity:1;fill-rule:evenodd;stroke:none;stroke-width:1px;stroke-linecap:butt;stroke-linejoin:round;stroke-opacity:1"
         d="m 45.71875,31.96875 c -1.141161,0.963781 -3.038894,2.12059 -5.6875,2.0625 0.02848,2.743194 -1.332152,4.55626 -2.5625,5.65625 1.484391,-0.981249 3.356416,-2.315695 3.5625,-4.65625 2.161131,-0.0033 3.587964,-1.720595 4.65625,-3 0.0055,-0.02167 0.02592,-0.04082 0.03125,-0.0625 z"
         id="path6339" /><path
         style="opacity:0.344828;fill:url(#radialGradient6396);fill-opacity:1;stroke:none;stroke-width:1;stroke-linecap:round;stroke-linejoin:round;stroke-miterlimit:4;stroke-dashoffset:0;stroke-opacity:1"
         d="M 2.78125,7 C 2.3536576,7 2,7.3536576 2,7.78125 v 23.3125 C 14.714701,22.184679 34.055102,15.625228 46,19.3125 V 7.78125 C 46,7.3536585 45.64634,7 45.21875,7 Z"
         id="path6384"
         sodipodi:nodetypes="ccccccc" /><path
         sodipodi:type="inkscape:offset"
         inkscape:radius="-1"
         inkscape:original="M 2.78125 6.5 C 2.0789071 6.5 1.5 7.0789071 1.5 7.78125 L 1.5 39.21875 C 1.5 39.921093 2.0789071 40.5 2.78125 40.5 L 35.5 40.5 C 40.5 40.5 46.5 35.5 46.5 30.5 L 46.5 7.78125 C 46.5 7.0789071 45.921091 6.5 45.21875 6.5 L 2.78125 6.5 z "
         style="opacity:0.418103;fill:none;fill-opacity:1;stroke:#ffffff;stroke-width:1;stroke-linecap:round;stroke-linejoin:round;stroke-miterlimit:4;stroke-dashoffset:0;stroke-opacity:1"
         id="path6427"
         d="M 2.78125,7.5 C 2.628408,7.5 2.5,7.628408 2.5,7.78125 v 31.4375 C 2.5,39.371592 2.6284079,39.5 2.78125,39.5 H 35.5 c 2.166667,0 4.743499,-1.137302 6.712891,-2.875 C 44.182282,34.887302 45.5,32.6 45.5,30.5 V 7.78125 C 45.5,7.6284098 45.371589,7.5 45.21875,7.5 Z" /></g></g></svg>
