<?xml version="1.0" encoding="UTF-8" standalone="no"?>
<svg xmlns="http://www.w3.org/2000/svg" xmlns:xlink="http://www.w3.org/1999/xlink" width="48" height="48">
  <defs>
    <linearGradient xlink:href="#a" id="v" x1="-26.753757" x2="-24.75" y1="11.566258" y2="9.687501" gradientUnits="userSpaceOnUse"/>
    <linearGradient xlink:href="#b" id="u" x1="-18.588562" x2="-28.789402" y1="11.052948" y2="14.069944" gradientTransform="matrix(.9223 0 0 .91858 -92.447368 61.3257)" gradientUnits="userSpaceOnUse"/>
    <linearGradient id="c">
      <stop offset="0"/>
      <stop offset="1" stop-opacity="0"/>
    </linearGradient>
    <linearGradient xlink:href="#c" id="s" x1="58.282169" x2="61.181217" y1="70.751839" y2="67.799171" gradientTransform="translate(-180)" gradientUnits="userSpaceOnUse"/>
    <linearGradient xlink:href="#d" id="q" x1="-47.5" x2="-62.75" y1="49.020683" y2="-22.502075" gradientTransform="translate(-90 60)" gradientUnits="userSpaceOnUse"/>
    <linearGradient xlink:href="#e" id="o" x1="25.058096" x2="25.058096" y1="47.027729" y2="39.999443" gradientUnits="userSpaceOnUse"/>
    <linearGradient xlink:href="#e" id="l" x1="25.058096" x2="25.058096" y1="47.027729" y2="39.999443" gradientUnits="userSpaceOnUse"/>
    <linearGradient id="a">
      <stop offset="0" stop-color="#fff"/>
      <stop offset="1" stop-color="#fff" stop-opacity="0"/>
    </linearGradient>
    <linearGradient id="b">
      <stop offset="0" stop-opacity=".41295547"/>
      <stop offset="1" stop-opacity="0"/>
    </linearGradient>
    <linearGradient id="f">
      <stop offset="0" stop-color="#fff"/>
      <stop offset=".47533694" stop-color="#fff"/>
      <stop offset="1" stop-color="#fff" stop-opacity="0"/>
    </linearGradient>
    <linearGradient id="g">
      <stop offset="0" stop-color="#fff"/>
      <stop offset="1" stop-color="#fff" stop-opacity="0"/>
    </linearGradient>
    <linearGradient id="d">
      <stop offset="0" stop-color="#888a85"/>
      <stop offset="1" stop-color="#babdb6"/>
    </linearGradient>
    <linearGradient id="h">
      <stop offset="0" stop-color="#f6f6f5"/>
      <stop offset="1" stop-color="#d3d7cf"/>
    </linearGradient>
    <linearGradient id="i">
      <stop offset="0"/>
      <stop offset="1" stop-opacity="0"/>
    </linearGradient>
    <linearGradient id="e">
      <stop offset="0" stop-opacity="0"/>
      <stop offset=".5"/>
      <stop offset="1" stop-opacity="0"/>
    </linearGradient>
    <radialGradient xlink:href="#f" id="t" cx="-26.305403" cy="10.108011" r="7.0421038" fx="-26.305403" fy="10.108011" gradientTransform="matrix(.40734 -.27983 .75103 1.09325 -115.18484 51.56213)" gradientUnits="userSpaceOnUse"/>
    <radialGradient xlink:href="#g" id="r" cx="4" cy="5.2999997" r="17" fx="4" fy="5.2999997" gradientTransform="matrix(1.88603 0 0 1.17647 -3.5441033 -4.2352941)" gradientUnits="userSpaceOnUse"/>
    <radialGradient xlink:href="#h" id="p" cx="-30.249996" cy="35.357208" r="18.000002" fx="-30.249996" fy="35.357208" gradientTransform="matrix(3.99575 0 0 1.93504 .62141 28.832578)" gradientUnits="userSpaceOnUse"/>
    <radialGradient xlink:href="#i" id="n" cx="4.9929786" cy="43.5" r="2.5" fx="4.9929786" fy="43.5" gradientTransform="matrix(2.00378 0 0 1.4 -20.01187 -104.4)" gradientUnits="userSpaceOnUse"/>
    <radialGradient xlink:href="#i" id="m" cx="4.9929786" cy="43.5" r="2.5" fx="4.9929786" fy="43.5" gradientTransform="matrix(2.00378 0 0 1.4 27.98813 -17.4)" gradientUnits="userSpaceOnUse"/>
    <radialGradient xlink:href="#i" id="k" cx="4.9929786" cy="43.5" r="2.5" fx="4.9929786" fy="43.5" gradientTransform="matrix(2.00378 0 0 1.4 -20.01187 -104.4)" gradientUnits="userSpaceOnUse"/>
    <radialGradient xlink:href="#i" id="j" cx="4.9929786" cy="43.5" r="2.5" fx="4.9929786" fy="43.5" gradientTransform="matrix(2.00378 0 0 1.4 27.98813 -17.4)" gradientUnits="userSpaceOnUse"/>
  </defs>
  <g transform="translate(150 -60)">
    <g opacity=".65587045">
      <g opacity=".4" transform="matrix(1.1015 0 0 1.14286 -152.50752403 53.78575985)">
        <path fill="url(#j)" d="M38 40h5v7h-5z" opacity="1"/>
        <path fill="url(#k)" d="M-10-47h5v7h-5z" opacity="1" transform="scale(-1)"/>
        <path fill="url(#l)" d="M10 40h28v7.0000005H10z" opacity="1"/>
      </g>
    </g>
    <g opacity=".4" transform="matrix(1.0051 0 0 .71429 -150.19388212 72.42856635)">
      <path fill="url(#m)" d="M38 40h5v7h-5z" opacity="1"/>
      <path fill="url(#n)" d="M-10-47h5v7h-5z" opacity="1" transform="scale(-1)"/>
      <path fill="url(#o)" d="M10 40h28v7.0000005H10z" opacity="1"/>
    </g>
    <path fill="url(#p)" stroke="url(#q)" d="M-141.47614 63.5H-122.5c3.87705.072942 6.5 2.5 9 5s4.60768 5.252625 5 9v24.97614c0 1.12122-.90264 2.02386-2.02385 2.02386h-30.95229c-1.12122 0-2.02386-.90264-2.02386-2.02386V65.523858c0-1.121217.90264-2.023858 2.02386-2.023858z"/>
    <path fill="url(#r)" d="M8.53125 4C7.6730803 4 7 4.6730802 7 5.53125v36.9375C7 43.32692 7.6730802 44 8.53125 44h30.9375C40.326919 44 41 43.326918 41 42.46875V17.5c0-1.39197-.486979-4.299479-2.34375-6.15625l-5-5C31.799479 4.4869792 28.89197 4 27.5 4H8.53125z" opacity=".68016196" transform="translate(-150 60)"/>
    <path fill="url(#s)" fill-rule="evenodd" d="M-138.59375 69.125c-.21868 0-.40625.187565-.40625.40625 0 .218684.18757.406249.40625.40625h21.1875c.21868 0 .40625-.187566.40625-.40625s-.18757-.40625-.40625-.40625h-21.1875zm.0625 1.9375c-.25969 0-.46875.209063-.46875.46875s.20906.46875.46875.46875h22.0625c.25969 0 .46875-.209063.46875-.46875s-.20906-.46875-.46875-.46875h-22.0625zm0 2c-.25969 0-.46875.209063-.46875.46875s.20906.46875.46875.46875h25.1875c.25969 0 .46875-.209063.46875-.46875s-.20906-.46875-.46875-.46875h-25.1875zm0 2c-.25969 0-.46875.209063-.46875.46875s.20906.46875.46875.46875h25.1875c.25969 0 .46875-.209063.46875-.46875s-.20906-.46875-.46875-.46875h-25.1875zm0 2c-.25969 0-.46875.209063-.46875.46875s.20906.46875.46875.46875h25.1875c.25969 0 .46875-.209063.46875-.46875s-.20906-.46875-.46875-.46875h-25.1875z" opacity=".15" overflow="visible" style="marker:none"/>
    <path fill="url(#t)" d="M-122.5 64c-1.38889 0-.04207.497088 1.34375 1.125S-116.18337 68.340052-117 72c4.32331-.430583 6.67913 3.122378 7 4.28125.32087 1.158872 1 2.607639 1 1.21875.02833-3.805581-2.84543-6.431701-4.84375-8.65625-1.99832-2.224549-5.00246-4.366989-8.65625-4.84375z"/>
    <path fill="url(#u)" d="M-121.39912 65.014353c.9223 0 3.00844 6.195662 2.08614 10.32925 4.29496-.427759 8.85338.088177 9.31298.937647-.32087-1.158872-2.67669-4.711833-7-4.28125.86466-3.875239-3.18657-6.617298-4.39912-6.985647z" opacity=".87854249"/>
    <path fill="none" stroke="url(#v)" d="M-51.46875 4.5c-.583166 0-1.03125.4480842-1.03125 1.03125v36.9375c0 .583165.448086 1.03125 1.03125 1.03125h30.9375c.583165 0 1.03125-.448086 1.03125-1.03125V17.5c0-1.279029-.480469-4.105469-2.1875-5.8125l-5-5C-28.394531 4.9804687-31.220971 4.5-32.5 4.5h-18.96875z" transform="translate(-90 60)"/>
    <g fill-rule="evenodd" opacity=".15" transform="matrix(.92889 0 0 1 -148.28889 60)">
      <rect width="28.125" height=".9375" x="10" y="19.0625" opacity="1" overflow="visible" rx=".50463516" ry=".46875" style="marker:none"/>
      <rect width="28.125" height=".9375" x="10" y="21.0625" opacity="1" overflow="visible" rx=".50463516" ry=".46875" style="marker:none"/>
      <rect width="28.125" height=".9375" x="10" y="23.0625" opacity="1" overflow="visible" rx=".50463516" ry=".46875" style="marker:none"/>
      <rect width="28.125" height=".9375" x="10" y="25.0625" opacity="1" overflow="visible" rx=".50463516" ry=".46875" style="marker:none"/>
      <rect width="28.125" height=".9375" x="10" y="27.0625" opacity="1" overflow="visible" rx=".50463516" ry=".46875" style="marker:none"/>
      <rect width="28.125" height=".9375" x="10" y="29.0625" opacity="1" overflow="visible" rx=".50463516" ry=".46875" style="marker:none"/>
      <rect width="28.125" height=".9375" x="10" y="31.0625" opacity="1" overflow="visible" rx=".50463516" ry=".46875" style="marker:none"/>
      <rect width="28.125" height=".9375" x="10" y="33.0625" opacity="1" overflow="visible" rx=".50463516" ry=".46875" style="marker:none"/>
      <rect width="28.125" height=".9375" x="10" y="35.0625" opacity="1" overflow="visible" rx=".50463516" ry=".46875" style="marker:none"/>
      <rect width="13.8125" height=".9375" x="10" y="37.0625" opacity="1" overflow="visible" rx=".50463516" ry=".46875" style="marker:none"/>
    </g>
  </g>
</svg>